<svg width="21" height="20" viewBox="0 0 21 20" fill="none" xmlns="http://www.w3.org/2000/svg">
<path d="M18.3402 7.31988L4.34025 0.319884C3.78774 0.0448933 3.16386 -0.0530053 2.55368 0.0395358C1.9435 0.132077 1.37671 0.410554 0.930579 0.837C0.484451 1.26345 0.1807 1.81711 0.0607402 2.42249C-0.0592199 3.02788 0.0104488 3.65554 0.260247 4.21988L2.66025 9.58988C2.7147 9.71972 2.74275 9.85909 2.74275 9.99988C2.74275 10.1407 2.7147 10.2801 2.66025 10.4099L0.260247 15.7799C0.0569475 16.2366 -0.0289969 16.7369 0.0102245 17.2353C0.0494459 17.7336 0.21259 18.2143 0.484829 18.6336C0.757069 19.0529 1.12977 19.3975 1.56907 19.6361C2.00837 19.8747 2.50033 19.9998 3.00025 19.9999C3.46848 19.9952 3.92974 19.8859 4.35025 19.6799L18.3502 12.6799C18.8468 12.4301 19.2643 12.0472 19.5559 11.574C19.8476 11.1007 20.0021 10.5558 20.0021 9.99988C20.0021 9.44399 19.8476 8.89903 19.5559 8.42581C19.2643 7.95258 18.8468 7.5697 18.3502 7.31988H18.3402ZM17.4502 10.8899L3.45025 17.8899C3.26641 17.9782 3.05998 18.0081 2.85863 17.9757C2.65729 17.9434 2.47066 17.8502 2.32376 17.7087C2.17686 17.5673 2.07673 17.3843 2.03678 17.1843C1.99683 16.9843 2.01897 16.7769 2.10025 16.5899L4.49025 11.2199C4.52119 11.1482 4.5479 11.0747 4.57025 10.9999H11.4602C11.7255 10.9999 11.9798 10.8945 12.1674 10.707C12.3549 10.5195 12.4602 10.2651 12.4602 9.99988C12.4602 9.73467 12.3549 9.48031 12.1674 9.29278C11.9798 9.10524 11.7255 8.99988 11.4602 8.99988H4.57025C4.5479 8.92505 4.52119 8.85159 4.49025 8.77988L2.10025 3.40988C2.01897 3.22285 1.99683 3.01543 2.03678 2.81545C2.07673 2.61547 2.17686 2.43249 2.32376 2.29103C2.47066 2.14958 2.65729 2.05641 2.85863 2.02404C3.05998 1.99166 3.26641 2.02161 3.45025 2.10988L17.4502 9.10988C17.614 9.1938 17.7515 9.3213 17.8475 9.47833C17.9435 9.63536 17.9943 9.81584 17.9943 9.99988C17.9943 10.1839 17.9435 10.3644 17.8475 10.5214C17.7515 10.6785 17.614 10.806 17.4502 10.8899Z" fill="#51C14F"/>
</svg>
