<svg width="45" height="49" viewBox="0 0 45 49" fill="none" xmlns="http://www.w3.org/2000/svg">
<g opacity="0.4" filter="url(#filter0_f_262_6239)">
<rect x="7" y="11.6667" width="30.3333" height="30.3333" rx="11.6667" fill="#51C14F"/>
</g>
<rect x="4" width="36" height="36" rx="11.6667" fill="#51C14F"/>
<path d="M28 21V11C28 10.2044 27.6839 9.44129 27.1213 8.87868C26.5587 8.31607 25.7956 8 25 8H15C14.2044 8 13.4413 8.31607 12.8787 8.87868C12.3161 9.44129 12 10.2044 12 11V21C12 21.7956 12.3161 22.5587 12.8787 23.1213C13.4413 23.6839 14.2044 24 15 24H25C25.7956 24 26.5587 23.6839 27.1213 23.1213C27.6839 22.5587 28 21.7956 28 21ZM14 11C14 10.7348 14.1054 10.4804 14.2929 10.2929C14.4804 10.1054 14.7348 10 15 10H25C25.2652 10 25.5196 10.1054 25.7071 10.2929C25.8946 10.4804 26 10.7348 26 11V15.36L24.92 14.27C24.44 13.7899 23.7889 13.5201 23.11 13.52C22.4315 13.5223 21.7812 13.7917 21.3 14.27L20.39 15.18L19.58 14.37C19.0319 13.8307 18.2939 13.5285 17.525 13.5285C16.7561 13.5285 16.0181 13.8307 15.47 14.37L14 15.85V11ZM14.12 21.45C14.0429 21.3124 14.0016 21.1577 14 21V18.67L16.88 15.79C16.9646 15.705 17.0651 15.6376 17.1758 15.5916C17.2864 15.5456 17.4051 15.5219 17.525 15.5219C17.6449 15.5219 17.7636 15.5456 17.8742 15.5916C17.9849 15.6376 18.0854 15.705 18.17 15.79L19 16.6L14.12 21.45ZM22.72 15.69C22.7693 15.6358 22.8296 15.5926 22.8968 15.5633C22.964 15.534 23.0367 15.5192 23.11 15.52C23.1833 15.5192 23.256 15.534 23.3232 15.5633C23.3904 15.5926 23.4507 15.6358 23.5 15.69L26 18.18V21C26 21.2652 25.8946 21.5196 25.7071 21.7071C25.5196 21.8946 25.2652 22 25 22H16.4L22.72 15.69ZM31 12C30.7348 12 30.4804 12.1054 30.2929 12.2929C30.1054 12.4804 30 12.7348 30 13V23C30 23.7956 29.6839 24.5587 29.1213 25.1213C28.5587 25.6839 27.7956 26 27 26H17C16.7348 26 16.4804 26.1054 16.2929 26.2929C16.1054 26.4804 16 26.7348 16 27C16 27.2652 16.1054 27.5196 16.2929 27.7071C16.4804 27.8946 16.7348 28 17 28H27C28.3261 28 29.5979 27.4732 30.5355 26.5355C31.4732 25.5979 32 24.3261 32 23V13C32 12.7348 31.8946 12.4804 31.7071 12.2929C31.5196 12.1054 31.2652 12 31 12Z" fill="#EFF7F4"/>
<defs>
<filter id="filter0_f_262_6239" x="-4.76837e-07" y="4.66669" width="44.333" height="44.3333" filterUnits="userSpaceOnUse" color-interpolation-filters="sRGB">
<feFlood flood-opacity="0" result="BackgroundImageFix"/>
<feBlend mode="normal" in="SourceGraphic" in2="BackgroundImageFix" result="shape"/>
<feGaussianBlur stdDeviation="3.5" result="effect1_foregroundBlur_262_6239"/>
</filter>
</defs>
</svg>
