<svg width="20" height="22" viewBox="0 0 20 22" fill="none" xmlns="http://www.w3.org/2000/svg">
<path d="M19.8667 10.3667C19.7873 10.1621 19.6684 9.97516 19.5167 9.81665L11.1833 1.48332C11.0279 1.32792 10.8435 1.20465 10.6404 1.12055C10.4374 1.03645 10.2198 0.993164 10 0.993164C9.55616 0.993164 9.13051 1.16948 8.81667 1.48332C8.66127 1.63871 8.538 1.8232 8.4539 2.02623C8.3698 2.22927 8.32651 2.44688 8.32651 2.66665C8.32651 3.11049 8.50283 3.53614 8.81667 3.84998L14.3167 9.33332H1.66667C1.22464 9.33332 0.800716 9.50891 0.488156 9.82147C0.175595 10.134 0 10.558 0 11C0 11.442 0.175595 11.8659 0.488156 12.1785C0.800716 12.4911 1.22464 12.6667 1.66667 12.6667H14.3167L8.81667 18.15C8.66045 18.3049 8.53646 18.4893 8.45185 18.6924C8.36723 18.8955 8.32367 19.1133 8.32367 19.3333C8.32367 19.5533 8.36723 19.7712 8.45185 19.9743C8.53646 20.1774 8.66045 20.3617 8.81667 20.5166C8.9716 20.6729 9.15594 20.7969 9.35904 20.8815C9.56214 20.9661 9.77998 21.0096 10 21.0096C10.22 21.0096 10.4379 20.9661 10.641 20.8815C10.8441 20.7969 11.0284 20.6729 11.1833 20.5166L19.5167 12.1833C19.6684 12.0248 19.7873 11.8379 19.8667 11.6333C20.0334 11.2275 20.0334 10.7724 19.8667 10.3667Z" fill="#51C14F"/>
</svg>
