<svg width="95" height="82" viewBox="0 0 95 82" fill="none" xmlns="http://www.w3.org/2000/svg">
<path d="M3.8 1.89994C3.8 2.89994 3 3.79994 1.9 3.79994C0.8 3.79994 0 2.89994 0 1.89994C0 0.799939 0.8 -6.10352e-05 1.9 -6.10352e-05C2.9 -6.10352e-05 3.8 0.799939 3.8 1.89994Z" fill="#292929"/>
<path d="M20.1 3.79994C21.1493 3.79994 22 2.94928 22 1.89994C22 0.850598 21.1493 -6.10352e-05 20.1 -6.10352e-05C19.0507 -6.10352e-05 18.2 0.850598 18.2 1.89994C18.2 2.94928 19.0507 3.79994 20.1 3.79994Z" fill="#292929"/>
<path d="M40.1 1.89994C40.1 2.89994 39.3 3.79994 38.2 3.79994C37.2 3.79994 36.3 2.99994 36.3 1.89994C36.3 0.899939 37.1 -6.10352e-05 38.2 -6.10352e-05C39.3 -6.10352e-05 40.1 0.799939 40.1 1.89994Z" fill="#292929"/>
<path d="M56.4 3.79994C57.4493 3.79994 58.3 2.94928 58.3 1.89994C58.3 0.850598 57.4493 -6.10352e-05 56.4 -6.10352e-05C55.3507 -6.10352e-05 54.5 0.850598 54.5 1.89994C54.5 2.94928 55.3507 3.79994 56.4 3.79994Z" fill="#292929"/>
<path d="M76.5 1.89994C76.5 2.89994 75.7 3.79994 74.6 3.79994C73.6 3.79994 72.7 2.99994 72.7 1.89994C72.7 0.899939 73.5 -6.10352e-05 74.6 -6.10352e-05C75.6 -6.10352e-05 76.5 0.799939 76.5 1.89994Z" fill="#292929"/>
<path d="M94.6 1.89994C94.6 2.89994 93.8 3.79994 92.7 3.79994C91.7 3.79994 90.8 2.99994 90.8 1.89994C90.8 0.899939 91.6 -6.10352e-05 92.7 -6.10352e-05C93.8 -6.10352e-05 94.6 0.799939 94.6 1.89994Z" fill="#292929"/>
<path d="M3.8 17.4999C3.8 18.4999 3 19.3999 1.9 19.3999C0.9 19.3999 0 18.5999 0 17.4999C0 16.4999 0.8 15.5999 1.9 15.5999C2.9 15.5999 3.8 16.4999 3.8 17.4999Z" fill="#292929"/>
<path d="M20.1 19.3999C21.1493 19.3999 22 18.5493 22 17.4999C22 16.4506 21.1493 15.5999 20.1 15.5999C19.0507 15.5999 18.2 16.4506 18.2 17.4999C18.2 18.5493 19.0507 19.3999 20.1 19.3999Z" fill="#292929"/>
<path d="M40.1 17.4999C40.1 18.4999 39.3 19.3999 38.2 19.3999C37.2 19.3999 36.3 18.5999 36.3 17.4999C36.3 16.4999 37.1 15.5999 38.2 15.5999C39.3 15.5999 40.1 16.4999 40.1 17.4999Z" fill="#292929"/>
<path d="M56.4 19.3999C57.4493 19.3999 58.3 18.5493 58.3 17.4999C58.3 16.4506 57.4493 15.5999 56.4 15.5999C55.3507 15.5999 54.5 16.4506 54.5 17.4999C54.5 18.5493 55.3507 19.3999 56.4 19.3999Z" fill="#292929"/>
<path d="M76.5 17.4999C76.5 18.4999 75.7 19.3999 74.6 19.3999C73.6 19.3999 72.7 18.5999 72.7 17.4999C72.7 16.4999 73.5 15.5999 74.6 15.5999C75.6 15.5999 76.5 16.4999 76.5 17.4999Z" fill="#292929"/>
<path d="M94.6 17.4999C94.6 18.4999 93.8 19.3999 92.7 19.3999C91.7 19.3999 90.8 18.5999 90.8 17.4999C90.8 16.4999 91.6 15.5999 92.7 15.5999C93.8 15.5999 94.6 16.4999 94.6 17.4999Z" fill="#292929"/>
<path d="M3.8 33.1999C3.8 34.1999 3 35.0999 1.9 35.0999C0.9 35.0999 0 34.2999 0 33.1999C0 32.1999 0.8 31.2999 1.9 31.2999C2.9 31.2999 3.8 32.0999 3.8 33.1999Z" fill="#292929"/>
<path d="M22 33.1999C22 34.1999 21.2 35.0999 20.1 35.0999C19.1 35.0999 18.2 34.2999 18.2 33.1999C18.2 32.1999 19 31.2999 20.1 31.2999C21.1 31.2999 22 32.0999 22 33.1999Z" fill="#292929"/>
<path d="M40.1 33.1999C40.1 34.1999 39.3 35.0999 38.2 35.0999C37.2 35.0999 36.3 34.2999 36.3 33.1999C36.3 32.1999 37.1 31.2999 38.2 31.2999C39.3 31.2999 40.1 32.0999 40.1 33.1999Z" fill="#292929"/>
<path d="M58.3 33.1999C58.3 34.1999 57.5 35.0999 56.4 35.0999C55.4 35.0999 54.5 34.2999 54.5 33.1999C54.5 32.1999 55.3 31.2999 56.4 31.2999C57.5 31.2999 58.3 32.0999 58.3 33.1999Z" fill="#292929"/>
<path d="M76.5 33.1999C76.5 34.1999 75.7 35.0999 74.6 35.0999C73.6 35.0999 72.7 34.2999 72.7 33.1999C72.7 32.1999 73.5 31.2999 74.6 31.2999C75.6 31.2999 76.5 32.0999 76.5 33.1999Z" fill="#292929"/>
<path d="M94.6 33.1999C94.6 34.1999 93.8 35.0999 92.7 35.0999C91.7 35.0999 90.8 34.2999 90.8 33.1999C90.8 32.1999 91.6 31.2999 92.7 31.2999C93.8 31.2999 94.6 32.0999 94.6 33.1999Z" fill="#292929"/>
<path d="M3.8 48.7999C3.8 49.7999 3 50.6999 1.9 50.6999C0.9 50.6999 0 49.8999 0 48.7999C0 47.7999 0.8 46.8999 1.9 46.8999C2.9 46.8999 3.8 47.6999 3.8 48.7999Z" fill="#292929"/>
<path d="M22 48.7999C22 49.7999 21.2 50.6999 20.1 50.6999C19.1 50.6999 18.2 49.8999 18.2 48.7999C18.2 47.7999 19 46.8999 20.1 46.8999C21.1 46.8999 22 47.6999 22 48.7999Z" fill="#292929"/>
<path d="M40.1 48.7999C40.1 49.7999 39.3 50.6999 38.2 50.6999C37.2 50.6999 36.3 49.8999 36.3 48.7999C36.3 47.7999 37.1 46.8999 38.2 46.8999C39.3 46.8999 40.1 47.6999 40.1 48.7999Z" fill="#292929"/>
<path d="M58.3 48.7999C58.3 49.7999 57.5 50.6999 56.4 50.6999C55.4 50.6999 54.5 49.8999 54.5 48.7999C54.5 47.7999 55.3 46.8999 56.4 46.8999C57.5 46.8999 58.3 47.6999 58.3 48.7999Z" fill="#292929"/>
<path d="M76.5 48.7999C76.5 49.7999 75.7 50.6999 74.6 50.6999C73.6 50.6999 72.7 49.8999 72.7 48.7999C72.7 47.7999 73.5 46.8999 74.6 46.8999C75.6 46.8999 76.5 47.6999 76.5 48.7999Z" fill="#292929"/>
<path d="M94.6 48.7999C94.6 49.7999 93.8 50.6999 92.7 50.6999C91.7 50.6999 90.8 49.8999 90.8 48.7999C90.8 47.7999 91.6 46.8999 92.7 46.8999C93.8 46.8999 94.6 47.6999 94.6 48.7999Z" fill="#292929"/>
<path d="M3.8 64.3999C3.8 65.3999 3 66.2999 1.9 66.2999C0.9 66.2999 0 65.4999 0 64.3999C0 63.3999 0.8 62.4999 1.9 62.4999C2.9 62.4999 3.8 63.3999 3.8 64.3999Z" fill="#292929"/>
<path d="M20.1 66.2999C21.1493 66.2999 22 65.4493 22 64.3999C22 63.3506 21.1493 62.4999 20.1 62.4999C19.0507 62.4999 18.2 63.3506 18.2 64.3999C18.2 65.4493 19.0507 66.2999 20.1 66.2999Z" fill="#292929"/>
<path d="M40.1 64.3999C40.1 65.3999 39.3 66.2999 38.2 66.2999C37.2 66.2999 36.3 65.4999 36.3 64.3999C36.3 63.3999 37.1 62.4999 38.2 62.4999C39.3 62.4999 40.1 63.3999 40.1 64.3999Z" fill="#292929"/>
<path d="M56.4 66.2999C57.4493 66.2999 58.3 65.4493 58.3 64.3999C58.3 63.3506 57.4493 62.4999 56.4 62.4999C55.3507 62.4999 54.5 63.3506 54.5 64.3999C54.5 65.4493 55.3507 66.2999 56.4 66.2999Z" fill="#292929"/>
<path d="M76.5 64.3999C76.5 65.3999 75.7 66.2999 74.6 66.2999C73.6 66.2999 72.7 65.4999 72.7 64.3999C72.7 63.3999 73.5 62.4999 74.6 62.4999C75.6 62.4999 76.5 63.3999 76.5 64.3999Z" fill="#292929"/>
<path d="M94.6 64.3999C94.6 65.3999 93.8 66.2999 92.7 66.2999C91.7 66.2999 90.8 65.4999 90.8 64.3999C90.8 63.3999 91.6 62.4999 92.7 62.4999C93.8 62.4999 94.6 63.3999 94.6 64.3999Z" fill="#292929"/>
<path d="M3.8 79.9999C3.8 80.9999 3 81.8999 1.9 81.8999C0.9 81.8999 0 81.0999 0 79.9999C0 78.9999 0.8 78.0999 1.9 78.0999C2.9 78.0999 3.8 78.9999 3.8 79.9999Z" fill="#292929"/>
<path d="M22 79.9999C22 80.9999 21.2 81.8999 20.1 81.8999C19.1 81.8999 18.2 81.0999 18.2 79.9999C18.2 78.9999 19 78.0999 20.1 78.0999C21.1 78.0999 22 78.9999 22 79.9999Z" fill="#292929"/>
<path d="M40.1 79.9999C40.1 80.9999 39.3 81.8999 38.2 81.8999C37.2 81.8999 36.3 81.0999 36.3 79.9999C36.3 78.9999 37.1 78.0999 38.2 78.0999C39.3 78.0999 40.1 78.9999 40.1 79.9999Z" fill="#292929"/>
<path d="M58.3 79.9999C58.3 80.9999 57.5 81.8999 56.4 81.8999C55.4 81.8999 54.5 81.0999 54.5 79.9999C54.5 78.9999 55.3 78.0999 56.4 78.0999C57.5 78.0999 58.3 78.9999 58.3 79.9999Z" fill="#292929"/>
<path d="M76.5 79.9999C76.5 80.9999 75.7 81.8999 74.6 81.8999C73.6 81.8999 72.7 81.0999 72.7 79.9999C72.7 78.9999 73.5 78.0999 74.6 78.0999C75.6 78.0999 76.5 78.9999 76.5 79.9999Z" fill="#292929"/>
<path d="M94.6 79.9999C94.6 80.9999 93.8 81.8999 92.7 81.8999C91.7 81.8999 90.8 81.0999 90.8 79.9999C90.8 78.9999 91.6 78.0999 92.7 78.0999C93.8 78.0999 94.6 78.9999 94.6 79.9999Z" fill="#292929"/>
</svg>
