<svg width="16" height="16" viewBox="0 0 16 16" fill="none" xmlns="http://www.w3.org/2000/svg">
<path d="M14.803 11.6225L13.2505 10.0325C12.9165 9.71508 12.4953 9.50476 12.0409 9.42858C11.5865 9.3524 11.1197 9.41384 10.7005 9.60502L10.0255 8.93002C10.8209 7.86721 11.1842 6.54253 11.0421 5.22264C10.9001 3.90276 10.2634 2.68569 9.26005 1.81642C8.25674 0.947149 6.96138 0.490235 5.63473 0.537655C4.30808 0.585076 3.04864 1.13331 2.10996 2.07199C1.17127 3.01068 0.62304 4.27011 0.575619 5.59677C0.528199 6.92342 0.985112 8.21878 1.85438 9.22209C2.72365 10.2254 3.94073 10.8622 5.26061 11.0042C6.58049 11.1462 7.90517 10.7829 8.96798 9.98752L9.63548 10.655C9.4218 11.0747 9.34522 11.5509 9.41653 12.0165C9.48784 12.4821 9.70346 12.9135 10.033 13.25L11.623 14.84C12.0449 15.2614 12.6167 15.498 13.213 15.498C13.8092 15.498 14.3811 15.2614 14.803 14.84C15.0173 14.6305 15.1876 14.3802 15.3038 14.104C15.4201 13.8277 15.4799 13.531 15.4799 13.2313C15.48 12.9315 15.4201 12.6348 15.3038 12.3586C15.1876 12.0823 15.0173 11.8321 14.803 11.6225ZM8.44298 8.44252C7.91816 8.96602 7.24996 9.32223 6.52279 9.46615C5.79562 9.61008 5.0421 9.53526 4.35743 9.25116C3.67276 8.96705 3.08765 8.4864 2.67601 7.86992C2.26438 7.25344 2.04468 6.52879 2.04468 5.78752C2.04468 5.04624 2.26438 4.32159 2.67601 3.70511C3.08765 3.08864 3.67276 2.60798 4.35743 2.32388C5.0421 2.03977 5.79562 1.96495 6.52279 2.10888C7.24996 2.25281 7.91816 2.60902 8.44298 3.13252C8.79221 3.48086 9.06928 3.89468 9.25832 4.35026C9.44737 4.80585 9.54468 5.29426 9.54468 5.78752C9.54468 6.28077 9.44737 6.76918 9.25832 7.22477C9.06928 7.68036 8.79221 8.09417 8.44298 8.44252ZM13.7455 13.745C13.6758 13.8153 13.5928 13.8711 13.5014 13.9092C13.41 13.9473 13.312 13.9669 13.213 13.9669C13.114 13.9669 13.0159 13.9473 12.9245 13.9092C12.8332 13.8711 12.7502 13.8153 12.6805 13.745L11.0905 12.155C11.0202 12.0853 10.9644 12.0023 10.9263 11.9109C10.8882 11.8196 10.8686 11.7215 10.8686 11.6225C10.8686 11.5235 10.8882 11.4255 10.9263 11.3341C10.9644 11.2427 11.0202 11.1597 11.0905 11.09C11.1602 11.0197 11.2432 10.9639 11.3345 10.9258C11.4259 10.8878 11.524 10.8682 11.623 10.8682C11.722 10.8682 11.82 10.8878 11.9114 10.9258C12.0028 10.9639 12.0858 11.0197 12.1555 11.09L13.7455 12.68C13.8158 12.7497 13.8716 12.8327 13.9096 12.9241C13.9477 13.0155 13.9673 13.1135 13.9673 13.2125C13.9673 13.3115 13.9477 13.4096 13.9096 13.5009C13.8716 13.5923 13.8158 13.6753 13.7455 13.745Z" fill="#51C14F"/>
</svg>
