<svg width="16" height="12" viewBox="0 0 16 12" fill="none" xmlns="http://www.w3.org/2000/svg">
<path d="M1.25 6H5.75C5.94891 6 6.13968 5.92098 6.28033 5.78033C6.42098 5.63968 6.5 5.44891 6.5 5.25V0.75C6.5 0.551088 6.42098 0.360322 6.28033 0.21967C6.13968 0.0790178 5.94891 0 5.75 0H1.25C1.05109 0 0.860322 0.0790178 0.71967 0.21967C0.579018 0.360322 0.5 0.551088 0.5 0.75V5.25C0.5 5.44891 0.579018 5.63968 0.71967 5.78033C0.860322 5.92098 1.05109 6 1.25 6ZM2 1.5H5V4.5H2V1.5ZM8.75 3H14.75C14.9489 3 15.1397 2.92098 15.2803 2.78033C15.421 2.63968 15.5 2.44891 15.5 2.25C15.5 2.05109 15.421 1.86032 15.2803 1.71967C15.1397 1.57902 14.9489 1.5 14.75 1.5H8.75C8.55109 1.5 8.36032 1.57902 8.21967 1.71967C8.07902 1.86032 8 2.05109 8 2.25C8 2.44891 8.07902 2.63968 8.21967 2.78033C8.36032 2.92098 8.55109 3 8.75 3ZM8.75 10.5H1.25C1.05109 10.5 0.860322 10.579 0.71967 10.7197C0.579018 10.8603 0.5 11.0511 0.5 11.25C0.5 11.4489 0.579018 11.6397 0.71967 11.7803C0.860322 11.921 1.05109 12 1.25 12H8.75C8.94891 12 9.13968 11.921 9.28033 11.7803C9.42098 11.6397 9.5 11.4489 9.5 11.25C9.5 11.0511 9.42098 10.8603 9.28033 10.7197C9.13968 10.579 8.94891 10.5 8.75 10.5ZM14.75 7.5H1.25C1.05109 7.5 0.860322 7.57902 0.71967 7.71967C0.579018 7.86032 0.5 8.05109 0.5 8.25C0.5 8.44891 0.579018 8.63968 0.71967 8.78033C0.860322 8.92098 1.05109 9 1.25 9H14.75C14.9489 9 15.1397 8.92098 15.2803 8.78033C15.421 8.63968 15.5 8.44891 15.5 8.25C15.5 8.05109 15.421 7.86032 15.2803 7.71967C15.1397 7.57902 14.9489 7.5 14.75 7.5ZM14.75 4.5H8.75C8.55109 4.5 8.36032 4.57902 8.21967 4.71967C8.07902 4.86032 8 5.05109 8 5.25C8 5.44891 8.07902 5.63968 8.21967 5.78033C8.36032 5.92098 8.55109 6 8.75 6H14.75C14.9489 6 15.1397 5.92098 15.2803 5.78033C15.421 5.63968 15.5 5.44891 15.5 5.25C15.5 5.05109 15.421 4.86032 15.2803 4.71967C15.1397 4.57902 14.9489 4.5 14.75 4.5Z" fill="#51C14F"/>
</svg>
