<svg width="33" height="11" viewBox="0 0 33 11" fill="none" xmlns="http://www.w3.org/2000/svg">
<path d="M31.8813 7.77966C28.9531 6.66967 25.5845 5.70707 22.1398 4.996C15.513 3.62779 9.03788 3.28407 4.65226 4.05361L5.85729 2.19755C6.2851 1.53856 6.09758 0.657334 5.43873 0.229528C4.77959 -0.198278 3.89866 -0.0107661 3.47071 0.648087L0.371925 5.42139C0.166487 5.73794 0.0952089 6.12307 0.173742 6.49211C0.252275 6.86116 0.474074 7.18397 0.790625 7.38941L5.56393 10.4881C5.80337 10.6434 6.07169 10.7175 6.33717 10.7175C6.80296 10.7175 7.25936 10.4892 7.53195 10.0694C7.95976 9.41036 7.77224 8.52928 7.11339 8.10133L5.18378 6.84879C9.2197 6.14483 15.2841 6.48571 21.5649 7.7825C24.8644 8.46369 28.0831 9.38276 30.8732 10.4403C31.0391 10.5031 31.2095 10.533 31.3771 10.533C31.9513 10.533 32.4922 10.1829 32.7076 9.61409C32.9861 8.87955 32.6162 8.05822 31.8813 7.77966Z" fill="#44937D"/>
</svg>
