<svg width="64" height="57" viewBox="0 0 64 57" fill="none" xmlns="http://www.w3.org/2000/svg">
<path d="M54.9813 11.2876C53.5182 9.01582 51.0422 7.65665 48.3609 7.65665C46.8228 7.65665 45.3275 8.10953 44.0372 8.96617C43.209 9.51601 42.4738 10.2345 41.8812 11.0568C40.7 10.3656 39.3446 9.98785 37.9325 9.98785C36.3972 9.98785 34.9043 10.4402 33.6152 11.2961C32.7004 11.9032 31.9421 12.6576 31.3541 13.5011C30.206 12.8613 28.9003 12.5123 27.5422 12.5123C26.0041 12.5121 24.5086 12.965 23.2179 13.822C22.5853 14.242 22.0233 14.7434 21.543 15.3101L21.079 14.5883L16.5844 7.59724L15.0301 5.17972C14.7836 4.79672 14.6168 4.53706 14.4969 4.35378C13.2828 2.23709 11.0399 0.977412 8.47212 0.977051C6.85362 0.97687 5.20614 1.47887 3.83305 2.39058C2.06535 3.56413 0.853026 5.36679 0.420348 7.4665C-0.0125092 9.56603 0.386025 11.7111 1.54215 13.5063C1.65934 13.6882 9.52101 25.8976 14.7356 33.9955C12.8315 36.4417 12.1509 40.1543 14.1606 43.4752C16.6667 47.6169 19.0538 50.5472 21.6732 52.6966C25.1526 55.552 29.0951 56.9996 33.3909 56.9996C38.7141 56.9996 44.5454 54.8461 51.2184 50.4159C58.7625 45.4074 62.8911 39.4501 63.4896 32.7092C63.91 27.9748 62.486 22.916 59.3717 18.0797L54.9813 11.2876ZM49.2718 47.3935C42.8508 51.6563 37.6725 53.3884 33.3907 53.3884C25.8305 53.3884 21.0653 47.9883 17.1908 41.5846C15.7268 39.1655 16.8348 36.4273 18.4787 35.3359L21.2837 39.692C21.476 39.9903 21.6867 40.0716 21.8567 40.0716C21.9988 40.0716 22.1124 40.0149 22.1633 39.9813C22.2752 39.9071 22.5969 39.605 22.2439 39.0568C21.9031 38.528 4.51879 11.5303 4.51879 11.5303C3.20351 9.48766 3.76778 6.7489 5.77966 5.41356C6.57958 4.8825 7.54488 4.58888 8.47177 4.58888C9.68337 4.58888 10.8288 5.09088 11.4504 6.21982C11.4559 6.22596 20.1863 19.8073 22.3346 23.1481C22.339 23.1551 22.3411 23.1629 22.3458 23.1699L22.7952 23.8678C22.9312 24.0789 23.1578 24.1936 23.3891 24.1936C23.5222 24.1936 23.6568 24.1557 23.7765 24.0762C24.104 23.8588 24.1956 23.4128 23.9817 23.0802L23.8654 22.8998C22.6008 20.864 23.1727 18.1673 25.1645 16.845C25.8993 16.357 26.725 16.1239 27.542 16.1239C28.9617 16.1241 30.3538 16.8287 31.1887 18.1254L32.9164 20.8017C33.0503 21.0097 33.2735 21.1227 33.5012 21.1227C33.6321 21.1227 33.7645 21.0854 33.8823 21.0072C34.2047 20.793 34.2952 20.3539 34.0845 20.0263L33.9843 19.8739C32.7871 18.0142 33.7308 15.5345 35.5616 14.3193C36.295 13.8323 37.1184 13.5997 37.9325 13.5999C39.3515 13.5999 40.7424 14.3066 41.5782 15.6046L43.3308 18.3107C43.461 18.5131 43.6783 18.6231 43.9 18.6231C44.0274 18.6231 44.1563 18.5866 44.271 18.5106C44.5847 18.3022 44.6729 17.8748 44.4675 17.5561L44.3327 17.3509C43.2435 15.6597 44.2107 13.1665 45.9832 11.9897C46.7179 11.502 47.5438 11.2688 48.3606 11.2688C49.7802 11.2688 51.1724 11.9734 52.0075 13.27L56.3944 20.0574C60.4644 26.3764 64.1723 37.5013 49.2718 47.3935Z" fill="#44937D"/>
</svg>
