<svg width="65" height="66" viewBox="0 0 65 66" fill="none" xmlns="http://www.w3.org/2000/svg">
<g clip-path="url(#clip0_304_988)">
<path d="M63.6012 9.87418C59.9409 8.46535 55.7301 7.24359 51.4243 6.34108C43.1408 4.60451 35.0469 4.16824 29.5648 5.14496L31.0711 2.7892C31.6059 1.95278 31.3715 0.834309 30.5479 0.291324C29.724 -0.251661 28.6228 -0.0136646 28.0879 0.822572L24.2144 6.881C23.9576 7.28277 23.8685 7.77158 23.9667 8.23999C24.0649 8.7084 24.3421 9.11812 24.7378 9.37887L30.7044 13.3118C31.0037 13.5089 31.3391 13.603 31.671 13.603C32.2532 13.603 32.8237 13.3132 33.1644 12.7803C33.6992 11.9439 33.4648 10.8256 32.6413 10.2825L30.2292 8.69269C35.2741 7.79921 42.8546 8.23187 50.7056 9.87779C54.83 10.7424 58.8534 11.9089 62.341 13.2511C62.5484 13.3309 62.7614 13.3688 62.9709 13.3688C63.6887 13.3688 64.3648 12.9244 64.6341 12.2025C64.9821 11.2702 64.5197 10.2277 63.6012 9.87418Z" fill="#44937D"/>
<path d="M54.9813 20.2876C53.5182 18.0158 51.0422 16.6566 48.3609 16.6566C46.8228 16.6566 45.3275 17.1095 44.0372 17.9662C43.209 18.516 42.4738 19.2345 41.8812 20.0568C40.7 19.3656 39.3446 18.9879 37.9325 18.9879C36.3972 18.9879 34.9043 19.4402 33.6152 20.2961C32.7004 20.9032 31.9421 21.6576 31.3541 22.5011C30.206 21.8613 28.9003 21.5123 27.5422 21.5123C26.0041 21.5121 24.5086 21.965 23.2179 22.822C22.5853 23.242 22.0233 23.7434 21.543 24.3101L21.079 23.5883L16.5844 16.5972L15.0301 14.1797C14.7836 13.7967 14.6168 13.5371 14.4969 13.3538C13.2828 11.2371 11.0399 9.97741 8.47212 9.97705C6.85362 9.97687 5.20614 10.4789 3.83305 11.3906C2.06535 12.5641 0.853026 14.3668 0.420348 16.4665C-0.0125092 18.566 0.386025 20.7111 1.54215 22.5063C1.65934 22.6882 9.52101 34.8976 14.7356 42.9955C12.8315 45.4417 12.1509 49.1543 14.1606 52.4752C16.6667 56.6169 19.0538 59.5472 21.6732 61.6966C25.1526 64.552 29.0951 65.9996 33.3909 65.9996C38.7141 65.9996 44.5454 63.8461 51.2184 59.4159C58.7625 54.4074 62.8911 48.4501 63.4896 41.7092C63.91 36.9748 62.486 31.916 59.3717 27.0797L54.9813 20.2876ZM49.2718 56.3935C42.8508 60.6563 37.6725 62.3884 33.3907 62.3884C25.8305 62.3884 21.0653 56.9883 17.1908 50.5846C15.7268 48.1655 16.8348 45.4273 18.4787 44.3359L21.2837 48.692C21.476 48.9903 21.6867 49.0716 21.8567 49.0716C21.9988 49.0716 22.1124 49.0149 22.1633 48.9813C22.2752 48.9071 22.5969 48.605 22.2439 48.0568C21.9031 47.528 4.51879 20.5303 4.51879 20.5303C3.20351 18.4877 3.76778 15.7489 5.77966 14.4136C6.57958 13.8825 7.54488 13.5889 8.47177 13.5889C9.68337 13.5889 10.8288 14.0909 11.4504 15.2198C11.4559 15.226 20.1863 28.8073 22.3346 32.1481C22.339 32.1551 22.3411 32.1629 22.3458 32.1699L22.7952 32.8678C22.9312 33.0789 23.1578 33.1936 23.3891 33.1936C23.5222 33.1936 23.6568 33.1557 23.7765 33.0762C24.104 32.8588 24.1956 32.4128 23.9817 32.0802L23.8654 31.8998C22.6008 29.864 23.1727 27.1673 25.1645 25.845C25.8993 25.357 26.725 25.1239 27.542 25.1239C28.9617 25.1241 30.3538 25.8287 31.1887 27.1254L32.9164 29.8017C33.0503 30.0097 33.2735 30.1227 33.5012 30.1227C33.6321 30.1227 33.7645 30.0854 33.8823 30.0072C34.2047 29.793 34.2952 29.3539 34.0845 29.0263L33.9843 28.8739C32.7871 27.0142 33.7308 24.5345 35.5616 23.3193C36.295 22.8323 37.1184 22.5997 37.9325 22.5999C39.3515 22.5999 40.7424 23.3066 41.5782 24.6046L43.3308 27.3107C43.461 27.5131 43.6783 27.6231 43.9 27.6231C44.0274 27.6231 44.1563 27.5866 44.271 27.5106C44.5847 27.3022 44.6729 26.8748 44.4675 26.5561L44.3327 26.3509C43.2435 24.6597 44.2107 22.1665 45.9832 20.9897C46.7179 20.502 47.5438 20.2688 48.3606 20.2688C49.7802 20.2688 51.1724 20.9734 52.0075 22.27L56.3944 29.0574C60.4644 35.3764 64.1723 46.5013 49.2718 56.3935Z" fill="#44937D"/>
</g>
<defs>
<clipPath id="clip0_304_988">
<rect width="65" height="66" fill="white"/>
</clipPath>
</defs>
</svg>
