<svg width="188" height="67" viewBox="0 0 188 67" fill="none" xmlns="http://www.w3.org/2000/svg">
<path d="M23.88 37.192C23.624 36.7227 23.272 36.3653 22.824 36.12C22.376 35.8747 21.8533 35.752 21.256 35.752C20.5947 35.752 20.008 35.9013 19.496 36.2C18.984 36.4987 18.584 36.9253 18.296 37.48C18.008 38.0347 17.864 38.6747 17.864 39.4C17.864 40.1467 18.008 40.7973 18.296 41.352C18.5947 41.9067 19.0053 42.3333 19.528 42.632C20.0507 42.9307 20.6587 43.08 21.352 43.08C22.2053 43.08 22.904 42.856 23.448 42.408C23.992 41.9493 24.3493 41.3147 24.52 40.504H20.68V38.792H26.728V40.744C26.5787 41.5227 26.2587 42.2427 25.768 42.904C25.2773 43.5653 24.6427 44.0987 23.864 44.504C23.096 44.8987 22.232 45.096 21.272 45.096C20.1947 45.096 19.2187 44.856 18.344 44.376C17.48 43.8853 16.7973 43.208 16.296 42.344C15.8053 41.48 15.56 40.4987 15.56 39.4C15.56 38.3013 15.8053 37.32 16.296 36.456C16.7973 35.5813 17.48 34.904 18.344 34.424C19.2187 33.9333 20.1893 33.688 21.256 33.688C22.5147 33.688 23.608 33.9973 24.536 34.616C25.464 35.224 26.104 36.0827 26.456 37.192H23.88ZM30.6253 35.64V38.44H34.3853V40.216H30.6253V43.176H34.8653V45H28.3853V33.816H34.8653V35.64H30.6253ZM44.5009 33.832V35.64H41.5249V45H39.2849V35.64H36.3089V33.832H44.5009ZM56.7958 42.872H52.3478L51.6118 45H49.2598L53.2758 33.816H55.8838L59.8998 45H57.5318L56.7958 42.872ZM56.1878 41.08L54.5718 36.408L52.9557 41.08H56.1878ZM64.6694 39.4C64.6694 38.3013 64.9147 37.32 65.4054 36.456C65.9067 35.5813 66.584 34.904 67.4374 34.424C68.3014 33.9333 69.2667 33.688 70.3334 33.688C71.5814 33.688 72.6747 34.008 73.6134 34.648C74.552 35.288 75.208 36.1733 75.5814 37.304H73.0054C72.7494 36.7707 72.3867 36.3707 71.9174 36.104C71.4587 35.8373 70.9254 35.704 70.3174 35.704C69.6667 35.704 69.0854 35.8587 68.5734 36.168C68.072 36.4667 67.6774 36.8933 67.3894 37.448C67.112 38.0027 66.9734 38.6533 66.9734 39.4C66.9734 40.136 67.112 40.7867 67.3894 41.352C67.6774 41.9067 68.072 42.3387 68.5734 42.648C69.0854 42.9467 69.6667 43.096 70.3174 43.096C70.9254 43.096 71.4587 42.9627 71.9174 42.696C72.3867 42.4187 72.7494 42.0133 73.0054 41.48H75.5814C75.208 42.6213 74.552 43.512 73.6134 44.152C72.6854 44.7813 71.592 45.096 70.3334 45.096C69.2667 45.096 68.3014 44.856 67.4374 44.376C66.584 43.8853 65.9067 43.208 65.4054 42.344C64.9147 41.48 64.6694 40.4987 64.6694 39.4ZM82.6786 45.112C81.6333 45.112 80.6733 44.8667 79.7986 44.376C78.924 43.8853 78.2306 43.208 77.7186 42.344C77.2066 41.4693 76.9506 40.4827 76.9506 39.384C76.9506 38.296 77.2066 37.32 77.7186 36.456C78.2306 35.5813 78.924 34.8987 79.7986 34.408C80.6733 33.9173 81.6333 33.672 82.6786 33.672C83.7346 33.672 84.6946 33.9173 85.5586 34.408C86.4333 34.8987 87.1213 35.5813 87.6226 36.456C88.1346 37.32 88.3906 38.296 88.3906 39.384C88.3906 40.4827 88.1346 41.4693 87.6226 42.344C87.1213 43.208 86.4333 43.8853 85.5586 44.376C84.684 44.8667 83.724 45.112 82.6786 45.112ZM82.6786 43.112C83.3506 43.112 83.9426 42.9627 84.4546 42.664C84.9666 42.3547 85.3666 41.9173 85.6546 41.352C85.9426 40.7867 86.0866 40.1307 86.0866 39.384C86.0866 38.6373 85.9426 37.9867 85.6546 37.432C85.3666 36.8667 84.9666 36.4347 84.4546 36.136C83.9426 35.8373 83.3506 35.688 82.6786 35.688C82.0066 35.688 81.4093 35.8373 80.8866 36.136C80.3746 36.4347 79.9746 36.8667 79.6866 37.432C79.3986 37.9867 79.2546 38.6373 79.2546 39.384C79.2546 40.1307 79.3986 40.7867 79.6866 41.352C79.9746 41.9173 80.3746 42.3547 80.8866 42.664C81.4093 42.9627 82.0066 43.112 82.6786 43.112ZM99.6091 45H97.3691L92.2971 37.336V45H90.0571V33.816H92.2971L97.3691 41.496V33.816H99.6091V45ZM105.679 45.112C104.9 45.112 104.196 44.9787 103.567 44.712C102.948 44.4453 102.457 44.0613 102.095 43.56C101.732 43.0587 101.545 42.4667 101.535 41.784H103.935C103.967 42.2427 104.127 42.6053 104.415 42.872C104.713 43.1387 105.119 43.272 105.631 43.272C106.153 43.272 106.564 43.1493 106.863 42.904C107.161 42.648 107.311 42.3173 107.311 41.912C107.311 41.5813 107.209 41.3093 107.007 41.096C106.804 40.8827 106.548 40.7173 106.239 40.6C105.94 40.472 105.524 40.3333 104.991 40.184C104.265 39.9707 103.673 39.7627 103.215 39.56C102.767 39.3467 102.377 39.032 102.047 38.616C101.727 38.1893 101.567 37.624 101.567 36.92C101.567 36.2587 101.732 35.6827 102.063 35.192C102.393 34.7013 102.857 34.328 103.455 34.072C104.052 33.8053 104.735 33.672 105.503 33.672C106.655 33.672 107.588 33.9547 108.303 34.52C109.028 35.0747 109.428 35.8533 109.503 36.856H107.039C107.017 36.472 106.852 36.1573 106.543 35.912C106.244 35.656 105.844 35.528 105.343 35.528C104.905 35.528 104.553 35.64 104.287 35.864C104.031 36.088 103.903 36.4133 103.903 36.84C103.903 37.1387 103.999 37.3893 104.191 37.592C104.393 37.784 104.639 37.944 104.927 38.072C105.225 38.1893 105.641 38.328 106.175 38.488C106.9 38.7013 107.492 38.9147 107.951 39.128C108.409 39.3413 108.804 39.6613 109.135 40.088C109.465 40.5147 109.631 41.0747 109.631 41.768C109.631 42.3653 109.476 42.92 109.167 43.432C108.857 43.944 108.404 44.3547 107.807 44.664C107.209 44.9627 106.5 45.112 105.679 45.112ZM113.781 33.832V40.744C113.781 41.5013 113.978 42.0827 114.373 42.488C114.767 42.8827 115.322 43.08 116.037 43.08C116.762 43.08 117.322 42.8827 117.717 42.488C118.111 42.0827 118.309 41.5013 118.309 40.744V33.832H120.565V40.728C120.565 41.6773 120.357 42.4827 119.941 43.144C119.535 43.7947 118.986 44.2853 118.293 44.616C117.61 44.9467 116.847 45.112 116.005 45.112C115.173 45.112 114.415 44.9467 113.733 44.616C113.061 44.2853 112.527 43.7947 112.133 43.144C111.738 42.4827 111.541 41.6773 111.541 40.728V33.832H113.781ZM124.969 43.224H128.649V45H122.729V33.832H124.969V43.224ZM137.673 33.832V35.64H134.697V45H132.457V35.64H129.481V33.832H137.673ZM146.155 42.872H141.707L140.971 45H138.619L142.635 33.816H145.243L149.259 45H146.891L146.155 42.872ZM145.547 41.08L143.931 36.408L142.315 41.08H145.547ZM158.36 33.832V35.64H155.384V45H153.144V35.64H150.168V33.832H158.36ZM162.235 33.832V45H159.995V33.832H162.235ZM169.632 45.112C168.586 45.112 167.626 44.8667 166.752 44.376C165.877 43.8853 165.184 43.208 164.672 42.344C164.16 41.4693 163.904 40.4827 163.904 39.384C163.904 38.296 164.16 37.32 164.672 36.456C165.184 35.5813 165.877 34.8987 166.752 34.408C167.626 33.9173 168.586 33.672 169.632 33.672C170.688 33.672 171.648 33.9173 172.512 34.408C173.386 34.8987 174.074 35.5813 174.576 36.456C175.088 37.32 175.344 38.296 175.344 39.384C175.344 40.4827 175.088 41.4693 174.576 42.344C174.074 43.208 173.386 43.8853 172.512 44.376C171.637 44.8667 170.677 45.112 169.632 45.112ZM169.632 43.112C170.304 43.112 170.896 42.9627 171.408 42.664C171.92 42.3547 172.32 41.9173 172.608 41.352C172.896 40.7867 173.04 40.1307 173.04 39.384C173.04 38.6373 172.896 37.9867 172.608 37.432C172.32 36.8667 171.92 36.4347 171.408 36.136C170.896 35.8373 170.304 35.688 169.632 35.688C168.96 35.688 168.362 35.8373 167.84 36.136C167.328 36.4347 166.928 36.8667 166.64 37.432C166.352 37.9867 166.208 38.6373 166.208 39.384C166.208 40.1307 166.352 40.7867 166.64 41.352C166.928 41.9173 167.328 42.3547 167.84 42.664C168.362 42.9627 168.96 43.112 169.632 43.112ZM186.562 45H184.322L179.25 37.336V45H177.01V33.816H179.25L184.322 41.496V33.816H186.562V45Z" fill="url(#paint0_linear_262_5748)"/>
<path d="M23.1 12H15C7.26801 12 1 18.268 1 26V52C1 59.732 7.26801 66 15 66H159.25C165.739 66 171 60.7393 171 54.25V54.25M77.925 12H158.8C165.538 12 171 17.4621 171 24.2V24.2" stroke="#51C14F" stroke-width="2" stroke-linecap="round"/>
<path d="M57.4097 13C57.1897 13 56.9597 12.93 56.7397 12.88C56.2945 12.7805 55.8568 12.6501 55.4297 12.49C54.9658 12.3212 54.4558 12.33 53.998 12.5146C53.5402 12.6992 53.1668 13.0466 52.9497 13.49L52.7297 13.95C51.7585 13.3992 50.8613 12.7271 50.0597 11.95C49.2825 11.1484 48.6105 10.2512 48.0597 9.28L48.5197 9.07C48.963 8.85292 49.3105 8.47953 49.4951 8.02169C49.6797 7.56385 49.6885 7.05391 49.5197 6.59C49.3609 6.15903 49.2306 5.71808 49.1297 5.27C49.0797 5.05 49.0397 4.82 49.0097 4.6C48.8882 3.89562 48.5193 3.25774 47.9693 2.80124C47.4193 2.34474 46.7244 2.09961 46.0097 2.11H42.9997C42.5769 2.10945 42.1588 2.19825 41.7728 2.37058C41.3868 2.54292 41.0415 2.7949 40.7597 3.11C40.472 3.43365 40.2578 3.81575 40.1318 4.23004C40.0058 4.64432 39.9709 5.08098 40.0297 5.51C40.5733 9.67214 42.4749 13.5387 45.4397 16.51C48.411 19.4748 52.2775 21.3764 56.4397 21.92C56.5695 21.9299 56.6999 21.9299 56.8297 21.92C57.5671 21.9211 58.2791 21.6505 58.8297 21.16C59.1448 20.8782 59.3968 20.5329 59.5691 20.1469C59.7414 19.7609 59.8302 19.3428 59.8297 18.92V15.92C59.8243 15.229 59.5805 14.5611 59.1396 14.0291C58.6987 13.4971 58.0876 13.1336 57.4097 13ZM57.8997 19C57.8994 19.1395 57.8698 19.2775 57.813 19.4049C57.7562 19.5324 57.6733 19.6465 57.5697 19.74C57.4601 19.8399 57.3297 19.9141 57.1878 19.9573C57.046 20.0006 56.8963 20.0117 56.7497 19.99C53.018 19.5026 49.5499 17.802 46.8797 15.15C44.2072 12.4775 42.4917 8.99737 41.9997 5.25C41.978 5.10333 41.9891 4.95367 42.0324 4.81185C42.0756 4.67003 42.1498 4.5396 42.2497 4.43C42.3443 4.32515 42.4601 4.24154 42.5893 4.18466C42.7186 4.12778 42.8585 4.09892 42.9997 4.1H45.9997C46.2308 4.09435 46.4568 4.16898 46.6391 4.3112C46.8215 4.45341 46.9489 4.65442 46.9997 4.88C46.9997 5.15 47.0897 5.43 47.1497 5.7C47.2653 6.22386 47.419 6.73857 47.6097 7.24L46.2097 7.9C45.969 8.01046 45.782 8.21185 45.6897 8.46C45.5897 8.70346 45.5897 8.97654 45.6897 9.22C47.1289 12.3028 49.6069 14.7808 52.6897 16.22C52.9331 16.32 53.2062 16.32 53.4497 16.22C53.6978 16.1276 53.8992 15.9406 54.0097 15.7L54.6397 14.3C55.1556 14.4881 55.6834 14.6418 56.2197 14.76C56.4797 14.82 56.7597 14.87 57.0297 14.91C57.2553 14.9608 57.4563 15.0882 57.5985 15.2705C57.7407 15.4529 57.8153 15.6788 57.8097 15.91L57.8997 19ZM51.9997 2C51.7697 2 51.5297 2 51.2997 2C51.0345 2.02254 50.7891 2.14952 50.6175 2.353C50.4459 2.55647 50.3621 2.81978 50.3847 3.085C50.4072 3.35022 50.5342 3.59562 50.7377 3.76721C50.9412 3.93881 51.2045 4.02254 51.4697 4H51.9997C53.591 4 55.1171 4.63214 56.2423 5.75736C57.3675 6.88258 57.9997 8.4087 57.9997 10C57.9997 10.18 57.9997 10.35 57.9997 10.53C57.9775 10.7938 58.0609 11.0556 58.2314 11.2581C58.402 11.4606 58.6459 11.5871 58.9097 11.61H58.9897C59.24 11.611 59.4816 11.5181 59.6668 11.3496C59.8519 11.1811 59.9672 10.9493 59.9897 10.7C59.9897 10.47 59.9897 10.23 59.9897 10C59.9897 7.88 59.1482 5.84668 57.6501 4.34668C56.1519 2.84667 54.1197 2.00265 51.9997 2ZM53.9997 10C53.9997 10.2652 54.105 10.5196 54.2926 10.7071C54.4801 10.8946 54.7345 11 54.9997 11C55.2649 11 55.5193 10.8946 55.7068 10.7071C55.8943 10.5196 55.9997 10.2652 55.9997 10C55.9997 8.93913 55.5783 7.92172 54.8281 7.17157C54.078 6.42143 53.0605 6 51.9997 6C51.7345 6 51.4801 6.10536 51.2926 6.29289C51.105 6.48043 50.9997 6.73478 50.9997 7C50.9997 7.26522 51.105 7.51957 51.2926 7.70711C51.4801 7.89464 51.7345 8 51.9997 8C52.5301 8 53.0388 8.21071 53.4139 8.58579C53.789 8.96086 53.9997 9.46957 53.9997 10Z" fill="#51C14F"/>
<defs>
<linearGradient id="paint0_linear_262_5748" x1="101.5" y1="27" x2="101.5" y2="51" gradientUnits="userSpaceOnUse">
<stop stop-color="#DEF7DE"/>
<stop offset="1" stop-color="#51C14F"/>
</linearGradient>
</defs>
</svg>
