<svg width="30" height="26" viewBox="0 0 30 26" fill="none" xmlns="http://www.w3.org/2000/svg">
<path d="M1.20507 0.603175C1.20507 0.920635 0.951374 1.20635 0.602537 1.20635C0.2537 1.20635 0 0.920635 0 0.603175C0 0.253968 0.2537 0 0.602537 0C0.919662 0 1.20507 0.253968 1.20507 0.603175Z" fill="#B3A779"/>
<path d="M6.37421 1.20635C6.70698 1.20635 6.97674 0.936299 6.97674 0.603175C6.97674 0.27005 6.70698 0 6.37421 0C6.04144 0 5.77167 0.27005 5.77167 0.603175C5.77167 0.936299 6.04144 1.20635 6.37421 1.20635Z" fill="#B3A779"/>
<path d="M12.7167 0.603175C12.7167 0.920635 12.463 1.20635 12.1142 1.20635C11.797 1.20635 11.5116 0.952381 11.5116 0.603175C11.5116 0.285714 11.7653 0 12.1142 0C12.463 0 12.7167 0.253968 12.7167 0.603175Z" fill="#B3A779"/>
<path d="M17.8858 1.20635C18.2186 1.20635 18.4884 0.936299 18.4884 0.603175C18.4884 0.27005 18.2186 0 17.8858 0C17.5531 0 17.2833 0.27005 17.2833 0.603175C17.2833 0.936299 17.5531 1.20635 17.8858 1.20635Z" fill="#B3A779"/>
<path d="M24.26 0.603175C24.26 0.920635 24.0063 1.20635 23.6575 1.20635C23.3404 1.20635 23.055 0.952381 23.055 0.603175C23.055 0.285714 23.3087 0 23.6575 0C23.9746 0 24.26 0.253968 24.26 0.603175Z" fill="#B3A779"/>
<path d="M30 0.603175C30 0.920635 29.7463 1.20635 29.3975 1.20635C29.0803 1.20635 28.7949 0.952381 28.7949 0.603175C28.7949 0.285714 29.0486 0 29.3975 0C29.7463 0 30 0.253968 30 0.603175Z" fill="#B3A779"/>
<path d="M1.20507 5.55556C1.20507 5.87302 0.951374 6.15873 0.602537 6.15873C0.285412 6.15873 0 5.90476 0 5.55556C0 5.23809 0.2537 4.95238 0.602537 4.95238C0.919662 4.95238 1.20507 5.23809 1.20507 5.55556Z" fill="#B3A779"/>
<path d="M6.37421 6.15873C6.70698 6.15873 6.97674 5.88868 6.97674 5.55556C6.97674 5.22243 6.70698 4.95238 6.37421 4.95238C6.04144 4.95238 5.77167 5.22243 5.77167 5.55556C5.77167 5.88868 6.04144 6.15873 6.37421 6.15873Z" fill="#B3A779"/>
<path d="M12.7167 5.55556C12.7167 5.87302 12.463 6.15873 12.1142 6.15873C11.797 6.15873 11.5116 5.90476 11.5116 5.55556C11.5116 5.23809 11.7653 4.95238 12.1142 4.95238C12.463 4.95238 12.7167 5.23809 12.7167 5.55556Z" fill="#B3A779"/>
<path d="M17.8858 6.15873C18.2186 6.15873 18.4884 5.88868 18.4884 5.55556C18.4884 5.22243 18.2186 4.95238 17.8858 4.95238C17.5531 4.95238 17.2833 5.22243 17.2833 5.55556C17.2833 5.88868 17.5531 6.15873 17.8858 6.15873Z" fill="#B3A779"/>
<path d="M24.26 5.55556C24.26 5.87302 24.0063 6.15873 23.6575 6.15873C23.3404 6.15873 23.055 5.90476 23.055 5.55556C23.055 5.23809 23.3087 4.95238 23.6575 4.95238C23.9746 4.95238 24.26 5.23809 24.26 5.55556Z" fill="#B3A779"/>
<path d="M30 5.55556C30 5.87302 29.7463 6.15873 29.3975 6.15873C29.0803 6.15873 28.7949 5.90476 28.7949 5.55556C28.7949 5.23809 29.0486 4.95238 29.3975 4.95238C29.7463 4.95238 30 5.23809 30 5.55556Z" fill="#B3A779"/>
<path d="M1.20507 10.5397C1.20507 10.8571 0.951374 11.1429 0.602537 11.1429C0.285412 11.1429 0 10.8889 0 10.5397C0 10.2222 0.2537 9.93651 0.602537 9.93651C0.919662 9.93651 1.20507 10.1905 1.20507 10.5397Z" fill="#B3A779"/>
<path d="M6.97674 10.5397C6.97674 10.8571 6.72304 11.1429 6.37421 11.1429C6.05708 11.1429 5.77167 10.8889 5.77167 10.5397C5.77167 10.2222 6.02537 9.93651 6.37421 9.93651C6.69133 9.93651 6.97674 10.1905 6.97674 10.5397Z" fill="#B3A779"/>
<path d="M12.7167 10.5397C12.7167 10.8571 12.463 11.1429 12.1142 11.1429C11.797 11.1429 11.5116 10.8889 11.5116 10.5397C11.5116 10.2222 11.7653 9.93651 12.1142 9.93651C12.463 9.93651 12.7167 10.1905 12.7167 10.5397Z" fill="#B3A779"/>
<path d="M18.4884 10.5397C18.4884 10.8571 18.2347 11.1429 17.8858 11.1429C17.5687 11.1429 17.2833 10.8889 17.2833 10.5397C17.2833 10.2222 17.537 9.93651 17.8858 9.93651C18.2347 9.93651 18.4884 10.1905 18.4884 10.5397Z" fill="#B3A779"/>
<path d="M24.26 10.5397C24.26 10.8571 24.0063 11.1429 23.6575 11.1429C23.3404 11.1429 23.055 10.8889 23.055 10.5397C23.055 10.2222 23.3087 9.93651 23.6575 9.93651C23.9746 9.93651 24.26 10.1905 24.26 10.5397Z" fill="#B3A779"/>
<path d="M30 10.5397C30 10.8571 29.7463 11.1429 29.3975 11.1429C29.0803 11.1429 28.7949 10.8889 28.7949 10.5397C28.7949 10.2222 29.0486 9.93651 29.3975 9.93651C29.7463 9.93651 30 10.1905 30 10.5397Z" fill="#B3A779"/>
<path d="M1.20507 15.4921C1.20507 15.8095 0.951374 16.0952 0.602537 16.0952C0.285412 16.0952 0 15.8413 0 15.4921C0 15.1746 0.2537 14.8889 0.602537 14.8889C0.919662 14.8889 1.20507 15.1429 1.20507 15.4921Z" fill="#B3A779"/>
<path d="M6.97674 15.4921C6.97674 15.8095 6.72304 16.0952 6.37421 16.0952C6.05708 16.0952 5.77167 15.8413 5.77167 15.4921C5.77167 15.1746 6.02537 14.8889 6.37421 14.8889C6.69133 14.8889 6.97674 15.1429 6.97674 15.4921Z" fill="#B3A779"/>
<path d="M12.7167 15.4921C12.7167 15.8095 12.463 16.0952 12.1142 16.0952C11.797 16.0952 11.5116 15.8413 11.5116 15.4921C11.5116 15.1746 11.7653 14.8889 12.1142 14.8889C12.463 14.8889 12.7167 15.1429 12.7167 15.4921Z" fill="#B3A779"/>
<path d="M18.4884 15.4921C18.4884 15.8095 18.2347 16.0952 17.8858 16.0952C17.5687 16.0952 17.2833 15.8413 17.2833 15.4921C17.2833 15.1746 17.537 14.8889 17.8858 14.8889C18.2347 14.8889 18.4884 15.1429 18.4884 15.4921Z" fill="#B3A779"/>
<path d="M24.26 15.4921C24.26 15.8095 24.0063 16.0952 23.6575 16.0952C23.3404 16.0952 23.055 15.8413 23.055 15.4921C23.055 15.1746 23.3087 14.8889 23.6575 14.8889C23.9746 14.8889 24.26 15.1429 24.26 15.4921Z" fill="#B3A779"/>
<path d="M30 15.4921C30 15.8095 29.7463 16.0952 29.3975 16.0952C29.0803 16.0952 28.7949 15.8413 28.7949 15.4921C28.7949 15.1746 29.0486 14.8889 29.3975 14.8889C29.7463 14.8889 30 15.1429 30 15.4921Z" fill="#B3A779"/>
<path d="M1.20507 20.4444C1.20507 20.7619 0.951374 21.0476 0.602537 21.0476C0.285412 21.0476 0 20.7936 0 20.4444C0 20.127 0.2537 19.8413 0.602537 19.8413C0.919662 19.8413 1.20507 20.127 1.20507 20.4444Z" fill="#B3A779"/>
<path d="M6.37421 21.0476C6.70698 21.0476 6.97674 20.7776 6.97674 20.4444C6.97674 20.1113 6.70698 19.8413 6.37421 19.8413C6.04144 19.8413 5.77167 20.1113 5.77167 20.4444C5.77167 20.7776 6.04144 21.0476 6.37421 21.0476Z" fill="#B3A779"/>
<path d="M12.7167 20.4444C12.7167 20.7619 12.463 21.0476 12.1142 21.0476C11.797 21.0476 11.5116 20.7936 11.5116 20.4444C11.5116 20.127 11.7653 19.8413 12.1142 19.8413C12.463 19.8413 12.7167 20.127 12.7167 20.4444Z" fill="#B3A779"/>
<path d="M17.8858 21.0476C18.2186 21.0476 18.4884 20.7776 18.4884 20.4444C18.4884 20.1113 18.2186 19.8413 17.8858 19.8413C17.5531 19.8413 17.2833 20.1113 17.2833 20.4444C17.2833 20.7776 17.5531 21.0476 17.8858 21.0476Z" fill="#B3A779"/>
<path d="M24.26 20.4444C24.26 20.7619 24.0063 21.0476 23.6575 21.0476C23.3404 21.0476 23.055 20.7936 23.055 20.4444C23.055 20.127 23.3087 19.8413 23.6575 19.8413C23.9746 19.8413 24.26 20.127 24.26 20.4444Z" fill="#B3A779"/>
<path d="M30 20.4444C30 20.7619 29.7463 21.0476 29.3975 21.0476C29.0803 21.0476 28.7949 20.7936 28.7949 20.4444C28.7949 20.127 29.0486 19.8413 29.3975 19.8413C29.7463 19.8413 30 20.127 30 20.4444Z" fill="#B3A779"/>
<path d="M1.20507 25.3968C1.20507 25.7143 0.951374 26 0.602537 26C0.285412 26 0 25.746 0 25.3968C0 25.0794 0.2537 24.7936 0.602537 24.7936C0.919662 24.7936 1.20507 25.0794 1.20507 25.3968Z" fill="#B3A779"/>
<path d="M6.97674 25.3968C6.97674 25.7143 6.72304 26 6.37421 26C6.05708 26 5.77167 25.746 5.77167 25.3968C5.77167 25.0794 6.02537 24.7936 6.37421 24.7936C6.69133 24.7936 6.97674 25.0794 6.97674 25.3968Z" fill="#B3A779"/>
<path d="M12.7167 25.3968C12.7167 25.7143 12.463 26 12.1142 26C11.797 26 11.5116 25.746 11.5116 25.3968C11.5116 25.0794 11.7653 24.7936 12.1142 24.7936C12.463 24.7936 12.7167 25.0794 12.7167 25.3968Z" fill="#B3A779"/>
<path d="M18.4884 25.3968C18.4884 25.7143 18.2347 26 17.8858 26C17.5687 26 17.2833 25.746 17.2833 25.3968C17.2833 25.0794 17.537 24.7936 17.8858 24.7936C18.2347 24.7936 18.4884 25.0794 18.4884 25.3968Z" fill="#B3A779"/>
<path d="M24.26 25.3968C24.26 25.7143 24.0063 26 23.6575 26C23.3404 26 23.055 25.746 23.055 25.3968C23.055 25.0794 23.3087 24.7936 23.6575 24.7936C23.9746 24.7936 24.26 25.0794 24.26 25.3968Z" fill="#B3A779"/>
<path d="M30 25.3968C30 25.7143 29.7463 26 29.3975 26C29.0803 26 28.7949 25.746 28.7949 25.3968C28.7949 25.0794 29.0486 24.7936 29.3975 24.7936C29.7463 24.7936 30 25.0794 30 25.3968Z" fill="#B3A779"/>
</svg>
