<svg width="45" height="49" viewBox="0 0 45 49" fill="none" xmlns="http://www.w3.org/2000/svg">
<g opacity="0.4" filter="url(#filter0_f_262_6244)">
<rect x="7" y="11.6667" width="30.3333" height="30.3333" rx="11.6667" fill="#51C14F"/>
</g>
<rect x="4" width="36" height="36" rx="11.6667" fill="#51C14F"/>
<path d="M21 15H25C25.2652 15 25.5196 14.8946 25.7071 14.7071C25.8946 14.5196 26 14.2652 26 14C26 13.7348 25.8946 13.4804 25.7071 13.2929C25.5196 13.1054 25.2652 13 25 13H23V12C23 11.7348 22.8946 11.4804 22.7071 11.2929C22.5196 11.1054 22.2652 11 22 11C21.7348 11 21.4804 11.1054 21.2929 11.2929C21.1054 11.4804 21 11.7348 21 12V13C20.2044 13 19.4413 13.3161 18.8787 13.8787C18.3161 14.4413 18 15.2044 18 16C18 16.7956 18.3161 17.5587 18.8787 18.1213C19.4413 18.6839 20.2044 19 21 19H23C23.2652 19 23.5196 19.1054 23.7071 19.2929C23.8946 19.4804 24 19.7348 24 20C24 20.2652 23.8946 20.5196 23.7071 20.7071C23.5196 20.8946 23.2652 21 23 21H19C18.7348 21 18.4804 21.1054 18.2929 21.2929C18.1054 21.4804 18 21.7348 18 22C18 22.2652 18.1054 22.5196 18.2929 22.7071C18.4804 22.8946 18.7348 23 19 23H21V24C21 24.2652 21.1054 24.5196 21.2929 24.7071C21.4804 24.8946 21.7348 25 22 25C22.2652 25 22.5196 24.8946 22.7071 24.7071C22.8946 24.5196 23 24.2652 23 24V23C23.7957 23 24.5587 22.6839 25.1213 22.1213C25.6839 21.5587 26 20.7956 26 20C26 19.2043 25.6839 18.4413 25.1213 17.8787C24.5587 17.3161 23.7957 17 23 17H21C20.7348 17 20.4804 16.8946 20.2929 16.7071C20.1054 16.5196 20 16.2652 20 16C20 15.7348 20.1054 15.4804 20.2929 15.2929C20.4804 15.1054 20.7348 15 21 15ZM22 7C19.8244 7 17.6977 7.64514 15.8887 8.85383C14.0798 10.0625 12.6699 11.7805 11.8373 13.7905C11.0048 15.8005 10.7869 18.0122 11.2114 20.146C11.6358 22.2798 12.6835 24.2398 14.2218 25.7782C15.7602 27.3166 17.7202 28.3642 19.854 28.7886C21.9878 29.2131 24.1995 28.9952 26.2095 28.1627C28.2195 27.3301 29.9375 25.9202 31.1462 24.1113C32.3549 22.3023 33 20.1756 33 18C33 15.0826 31.8411 12.2847 29.7782 10.2218C27.7153 8.15893 24.9174 7 22 7ZM22 27C20.22 27 18.4799 26.4722 16.9999 25.4832C15.5198 24.4943 14.3663 23.0887 13.6851 21.4441C13.0039 19.7996 12.8257 17.99 13.1729 16.2442C13.5202 14.4984 14.3774 12.8947 15.636 11.636C16.8947 10.3774 18.4984 9.5202 20.2442 9.17293C21.99 8.82567 23.7996 9.0039 25.4442 9.68508C27.0887 10.3663 28.4943 11.5198 29.4832 12.9999C30.4722 14.4799 31 16.22 31 18C31 20.3869 30.0518 22.6761 28.364 24.364C26.6761 26.0518 24.387 27 22 27Z" fill="#EFF7F4"/>
<defs>
<filter id="filter0_f_262_6244" x="-4.76837e-07" y="4.66669" width="44.333" height="44.3333" filterUnits="userSpaceOnUse" color-interpolation-filters="sRGB">
<feFlood flood-opacity="0" result="BackgroundImageFix"/>
<feBlend mode="normal" in="SourceGraphic" in2="BackgroundImageFix" result="shape"/>
<feGaussianBlur stdDeviation="3.5" result="effect1_foregroundBlur_262_6244"/>
</filter>
</defs>
</svg>
