<svg width="100" height="110" viewBox="0 0 100 110" fill="none" xmlns="http://www.w3.org/2000/svg">
<g opacity="0.6" filter="url(#filter0_f_262_5897)">
<rect x="18" y="28" width="64" height="64" rx="12" fill="#51C14F"/>
</g>
<rect x="11" width="80" height="80" rx="14" fill="#51C14F"/>
<path d="M61.0161 28H40.9839L37.5559 38.6563C36.5621 41.1658 36.9141 43.9622 38.5048 46.1936L49.0963 59.0521C49.9972 60.316 52.0028 60.316 52.9037 59.0521L63.4952 46.1936C65.0858 43.9622 65.4379 41.1658 64.4441 38.6563L61.0161 28Z" fill="#44937D"/>
<path d="M61 28H41C38.7909 28 37 26.2091 37 24C37 21.7909 38.7909 20 41 20H61C63.2091 20 65 21.7909 65 24C65 26.2091 63.2091 28 61 28Z" fill="#D6EAE4"/>
<path d="M52.5 45.7092C53.9659 45.1159 55 43.6787 55 42C55 39.7909 53.2091 38 51 38C48.7909 38 47 39.7909 47 42C47 43.6787 48.0341 45.1159 49.5 45.7092V59.4819C50.3512 60.1727 51.6488 60.1727 52.5 59.4819V45.7092Z" fill="#D6EAE4"/>
<defs>
<filter id="filter0_f_262_5897" x="0" y="10" width="100" height="100" filterUnits="userSpaceOnUse" color-interpolation-filters="sRGB">
<feFlood flood-opacity="0" result="BackgroundImageFix"/>
<feBlend mode="normal" in="SourceGraphic" in2="BackgroundImageFix" result="shape"/>
<feGaussianBlur stdDeviation="9" result="effect1_foregroundBlur_262_5897"/>
</filter>
</defs>
</svg>
