<svg width="96" height="100" viewBox="0 0 96 100" fill="none" xmlns="http://www.w3.org/2000/svg">
<path fill-rule="evenodd" clip-rule="evenodd" d="M47.7568 0L95.5095 34.695L77.2714 90.835H18.2423L0 34.695L47.7568 0Z" fill="#7A7A7A"/>
<path fill-rule="evenodd" clip-rule="evenodd" d="M3.64176 35.8782L47.7568 3.82573V0L0 34.695L3.64176 35.8782Z" fill="url(#paint0_radial_262_7763)"/>
<path fill-rule="evenodd" clip-rule="evenodd" d="M47.7567 3.82574L3.6416 35.8783L6.3677 36.7647L47.7567 6.69818V3.82574Z" fill="url(#paint1_radial_262_7763)"/>
<path fill-rule="evenodd" clip-rule="evenodd" d="M47.7568 3.82573L91.8719 35.8782L95.5095 34.695L47.7568 0V3.82573Z" fill="url(#paint2_radial_262_7763)"/>
<path fill-rule="evenodd" clip-rule="evenodd" d="M91.8719 35.8783L47.7568 3.82574V6.69818L89.1416 36.7647L91.8719 35.8783Z" fill="url(#paint3_radial_262_7763)"/>
<path fill-rule="evenodd" clip-rule="evenodd" d="M17.4018 40.3521L47.7568 18.3008V16.3858L15.583 39.7583L17.4018 40.3521Z" fill="url(#paint4_radial_262_7763)"/>
<path fill-rule="evenodd" clip-rule="evenodd" d="M47.7563 18.3008L17.4014 40.352L19.2243 40.9416L47.7563 20.2116V18.3008Z" fill="url(#paint5_radial_262_7763)"/>
<path fill-rule="evenodd" clip-rule="evenodd" d="M47.7568 18.3008L78.1076 40.3521L79.9264 39.7583L47.7568 16.3858V18.3008Z" fill="url(#paint6_radial_262_7763)"/>
<path fill-rule="evenodd" clip-rule="evenodd" d="M78.1076 40.352L47.7568 18.3008V20.2116L76.2888 40.9416L78.1076 40.352Z" fill="url(#paint7_radial_262_7763)"/>
<path fill-rule="evenodd" clip-rule="evenodd" d="M20.4917 87.741L3.64176 35.8783L0 34.695L18.2423 90.835L20.4917 87.741Z" fill="#ACACAC"/>
<path fill-rule="evenodd" clip-rule="evenodd" d="M3.6416 35.8782L20.4915 87.7409L22.1765 85.4162L6.3677 36.7646L3.6416 35.8782Z" fill="url(#paint8_radial_262_7763)"/>
<path fill-rule="evenodd" clip-rule="evenodd" d="M15.583 39.7583L27.8713 77.5808L28.9961 76.0296L17.4018 40.3521L15.583 39.7583Z" fill="url(#paint9_radial_262_7763)"/>
<path fill-rule="evenodd" clip-rule="evenodd" d="M17.4014 40.3521L28.9956 76.0296L30.1204 74.4826L19.2243 40.9416L17.4014 40.3521Z" fill="url(#paint10_radial_262_7763)"/>
<path fill-rule="evenodd" clip-rule="evenodd" d="M76.2889 40.9416L65.3887 74.4826L66.5134 76.0296L78.1077 40.3521L76.2889 40.9416Z" fill="url(#paint11_radial_262_7763)"/>
<path fill-rule="evenodd" clip-rule="evenodd" d="M78.1079 40.3521L66.5137 76.0296L67.6384 77.5808L79.9267 39.7583L78.1079 40.3521Z" fill="url(#paint12_radial_262_7763)"/>
<path fill-rule="evenodd" clip-rule="evenodd" d="M89.1418 36.7646L73.333 85.4162L75.0222 87.7409L91.8721 35.8782L89.1418 36.7646Z" fill="url(#paint13_radial_262_7763)"/>
<path fill-rule="evenodd" clip-rule="evenodd" d="M91.8714 35.8783L75.0215 87.741L77.2709 90.835L95.509 34.695L91.8714 35.8783Z" fill="url(#paint14_radial_262_7763)"/>
<path fill-rule="evenodd" clip-rule="evenodd" d="M73.3333 85.4162H22.1772L20.4922 87.7409H75.0224L73.3333 85.4162Z" fill="url(#paint15_radial_262_7763)"/>
<path fill-rule="evenodd" clip-rule="evenodd" d="M75.0219 87.7409H20.4916L18.2422 90.835H77.2713L75.0219 87.7409Z" fill="url(#paint16_radial_262_7763)"/>
<path fill-rule="evenodd" clip-rule="evenodd" d="M28.9961 76.0296H66.5133L65.3886 74.4826H30.1208L28.9961 76.0296Z" fill="url(#paint17_radial_262_7763)"/>
<path fill-rule="evenodd" clip-rule="evenodd" d="M66.5131 76.0296H28.9958L27.8711 77.5808H67.6378L66.5131 76.0296Z" fill="url(#paint18_radial_262_7763)"/>
<path style="mix-blend-mode:screen" fill-rule="evenodd" clip-rule="evenodd" d="M3.63736 35.8824L47.7524 3.82991V0.685699C45.4653 5.28494 5.55232 35.0211 0.0625 34.7201L3.63736 35.8824Z" fill="url(#paint19_radial_262_7763)"/>
<path style="mix-blend-mode:screen" fill-rule="evenodd" clip-rule="evenodd" d="M29.5771 17.0339L47.3009 3.50798L47.7567 0.372131L48.1832 3.50798L63.9376 15.5831L47.7567 4.2773L29.5771 17.0339Z" fill="url(#paint20_radial_262_7763)"/>
<path style="mix-blend-mode:screen" fill-rule="evenodd" clip-rule="evenodd" d="M51.0391 87.7409L74.5788 87.1347L83.748 60.8856L75.5655 87.674L76.8826 90.2998L74.6582 88.2009L51.0391 87.7409Z" fill="url(#paint21_radial_262_7763)"/>
<path fill-rule="evenodd" clip-rule="evenodd" d="M46.2061 7.8229L47.7573 3.82574V18.3008L46.2061 17.5106V7.8229Z" fill="url(#paint22_radial_262_7763)"/>
<path fill-rule="evenodd" clip-rule="evenodd" d="M47.7568 3.82574L49.3039 7.8229V17.5106L47.7568 18.3008V3.82574Z" fill="url(#paint23_radial_262_7763)"/>
<path fill-rule="evenodd" clip-rule="evenodd" d="M87.5902 35.6399L91.8717 35.8782L78.1074 40.3521L78.3792 38.6336L87.5902 35.6399Z" fill="url(#paint24_radial_262_7763)"/>
<path fill-rule="evenodd" clip-rule="evenodd" d="M91.8717 35.8782L88.5477 38.5876L79.3367 41.5813L78.1074 40.352L91.8717 35.8782Z" fill="url(#paint25_radial_262_7763)"/>
<path fill-rule="evenodd" clip-rule="evenodd" d="M73.9226 83.5975L75.0223 87.741L66.5137 76.0338L68.2321 75.762L73.9226 83.5975Z" fill="url(#paint26_radial_262_7763)"/>
<path fill-rule="evenodd" clip-rule="evenodd" d="M75.0215 87.7409L71.4173 85.4162L65.7227 77.5808L66.5129 76.0338L75.0215 87.7409Z" fill="url(#paint27_radial_262_7763)"/>
<path fill-rule="evenodd" clip-rule="evenodd" d="M24.0921 85.4162L20.4922 87.7409L28.9966 76.0338L29.7868 77.5808L24.0921 85.4162Z" fill="url(#paint28_radial_262_7763)"/>
<path fill-rule="evenodd" clip-rule="evenodd" d="M20.4922 87.741L21.5876 83.5975L27.2823 75.762L28.9966 76.0338L20.4922 87.741Z" fill="url(#paint29_radial_262_7763)"/>
<path fill-rule="evenodd" clip-rule="evenodd" d="M47.7566 87.7409L38.1943 90.835L47.7566 100L57.3188 90.835L47.7566 87.7409Z" fill="#848484"/>
<path fill-rule="evenodd" clip-rule="evenodd" d="M47.7566 87.7409L38.1943 90.835L47.7566 100V87.7409Z" fill="url(#paint30_radial_262_7763)"/>
<path fill-rule="evenodd" clip-rule="evenodd" d="M47.7568 87.7409L57.3191 90.835L47.7568 100V87.7409Z" fill="url(#paint31_radial_262_7763)"/>
<path fill-rule="evenodd" clip-rule="evenodd" d="M83.4471 61.8096L89.3467 53.6731L95.1083 65.5977L83.4346 71.861L83.4471 61.8096Z" fill="#848484"/>
<path fill-rule="evenodd" clip-rule="evenodd" d="M83.4473 61.8096L89.3468 53.6731L95.1084 65.5977L83.4473 61.8096Z" fill="url(#paint32_radial_262_7763)"/>
<path fill-rule="evenodd" clip-rule="evenodd" d="M83.4471 61.8096L83.4346 71.861L95.1083 65.5977L83.4471 61.8096Z" fill="url(#paint33_radial_262_7763)"/>
<path fill-rule="evenodd" clip-rule="evenodd" d="M3.64176 35.8783L20.4917 87.741L18.2423 90.835L0 34.695L3.64176 35.8783Z" fill="url(#paint34_radial_262_7763)"/>
<path fill-rule="evenodd" clip-rule="evenodd" d="M12.0667 61.8096L6.16296 53.6731L0.401367 65.5977L12.0751 71.861L12.0667 61.8096Z" fill="#848484"/>
<path fill-rule="evenodd" clip-rule="evenodd" d="M12.0667 61.8096L6.16296 53.6731L0.401367 65.5977L12.0667 61.8096Z" fill="url(#paint35_radial_262_7763)"/>
<path fill-rule="evenodd" clip-rule="evenodd" d="M12.0667 61.8096L12.0751 71.861L0.401367 65.5977L12.0667 61.8096Z" fill="url(#paint36_radial_262_7763)"/>
<path fill-rule="evenodd" clip-rule="evenodd" d="M69.8118 19.852L63.8955 11.7281L77.0201 9.93436L79.3699 22.9669L69.8118 19.852Z" fill="#848484"/>
<path style="mix-blend-mode:screen" fill-rule="evenodd" clip-rule="evenodd" d="M22.9379 21.8589L3.47471 35.2845L0.338867 34.8079L3.44963 36.3841L14.5589 69.4819L4.46146 36.1458L22.9379 21.8589Z" fill="url(#paint37_radial_262_7763)"/>
<path fill-rule="evenodd" clip-rule="evenodd" d="M69.8118 19.852L63.8955 11.7281L77.0201 9.93436L69.8118 19.852Z" fill="url(#paint38_radial_262_7763)"/>
<path fill-rule="evenodd" clip-rule="evenodd" d="M69.8125 19.852L79.3706 22.9669L77.0208 9.93436L69.8125 19.852Z" fill="url(#paint39_radial_262_7763)"/>
<path fill-rule="evenodd" clip-rule="evenodd" d="M25.6974 19.852L31.6137 11.7281L18.4892 9.93436L16.1436 22.9669L25.6974 19.852Z" fill="#848484"/>
<path fill-rule="evenodd" clip-rule="evenodd" d="M25.6975 19.852L31.6138 11.7281L18.4893 9.93436L25.6975 19.852Z" fill="url(#paint40_radial_262_7763)"/>
<path fill-rule="evenodd" clip-rule="evenodd" d="M25.6974 19.852L16.1436 22.9669L18.4892 9.93436L25.6974 19.852Z" fill="url(#paint41_radial_262_7763)"/>
<path style="mix-blend-mode:screen" fill-rule="evenodd" clip-rule="evenodd" d="M0.401367 65.6019L12.0792 61.8096L10.7747 60.0075C9.90507 62.0981 4.45287 63.4402 2.63826 61.0068L0.418083 65.6061L0.401367 65.6019Z" fill="url(#paint42_radial_262_7763)"/>
<path style="mix-blend-mode:screen" fill-rule="evenodd" clip-rule="evenodd" d="M95.1077 65.6019L83.4424 61.8096L84.7511 60.0075C85.6208 62.0981 91.0729 63.4402 92.8876 61.0068L95.1077 65.6061V65.6019Z" fill="url(#paint43_radial_262_7763)"/>
<path style="mix-blend-mode:screen" fill-rule="evenodd" clip-rule="evenodd" d="M77.0202 9.93018L69.8119 19.852L68.499 18.0499C70.7443 17.866 73.7171 13.0995 71.9652 10.6201L77.0202 9.93018Z" fill="url(#paint44_radial_262_7763)"/>
<path style="mix-blend-mode:screen" fill-rule="evenodd" clip-rule="evenodd" d="M18.4893 9.93018L25.6975 19.852L27.0062 18.0499C24.7651 17.866 21.7923 13.0995 23.5442 10.6201L18.4893 9.93018Z" fill="url(#paint45_radial_262_7763)"/>
<path fill-rule="evenodd" clip-rule="evenodd" d="M24.0918 85.4162L32.6924 81.4985L29.7865 77.5808L24.0918 85.4162Z" fill="url(#paint46_radial_262_7763)"/>
<path fill-rule="evenodd" clip-rule="evenodd" d="M71.418 85.4162L62.8174 81.4985L65.7233 77.5808L71.418 85.4162Z" fill="url(#paint47_radial_262_7763)"/>
<path fill-rule="evenodd" clip-rule="evenodd" d="M32.692 81.4985H62.817L65.7229 77.5808H29.7861L32.692 81.4985Z" fill="url(#paint48_radial_262_7763)"/>
<path fill-rule="evenodd" clip-rule="evenodd" d="M62.8174 81.4985H32.6924L24.0918 85.4162H71.418L62.8174 81.4985Z" fill="url(#paint49_radial_262_7763)"/>
<path style="mix-blend-mode:screen" fill-rule="evenodd" clip-rule="evenodd" d="M46.7822 77.5808H56.1521C56.1814 78.785 57.7828 80.8588 59.4176 81.5027H48.417C48.6261 80.5034 47.7272 78.3 46.7906 77.5808H46.7822Z" fill="url(#paint50_radial_262_7763)"/>
<path style="mix-blend-mode:screen" fill-rule="evenodd" clip-rule="evenodd" d="M30.3133 78.2916L31.9648 81.4024L27.5537 83.84L32.8763 81.8999L46.2392 81.4985L32.8387 81.0051L30.3133 78.2916Z" fill="url(#paint51_radial_262_7763)"/>
<path style="mix-blend-mode:screen" fill-rule="evenodd" clip-rule="evenodd" d="M65.1964 78.2916L63.5449 81.4024L67.956 83.84L62.6334 81.8999L49.2705 81.4985L62.6752 81.0051L65.1964 78.2916Z" fill="url(#paint52_radial_262_7763)"/>
<path fill-rule="evenodd" clip-rule="evenodd" d="M6.96191 38.5876L13.3465 45.5534L16.1771 41.5813L6.96191 38.5876Z" fill="url(#paint53_radial_262_7763)"/>
<path fill-rule="evenodd" clip-rule="evenodd" d="M21.5869 83.5974L22.6573 74.2066L27.2816 75.762L21.5869 83.5974Z" fill="url(#paint54_radial_262_7763)"/>
<path fill-rule="evenodd" clip-rule="evenodd" d="M13.3457 45.5534L22.6571 74.2066L27.2814 75.762L16.1763 41.5813L13.3457 45.5534Z" fill="url(#paint55_radial_262_7763)"/>
<path fill-rule="evenodd" clip-rule="evenodd" d="M22.6579 74.2066L13.3465 45.5534L6.96191 38.5876L21.5875 83.5974L22.6579 74.2066Z" fill="url(#paint56_radial_262_7763)"/>
<path style="mix-blend-mode:screen" fill-rule="evenodd" clip-rule="evenodd" d="M15.6627 42.3005L13.2126 44.8342L9.5332 41.3932L13.0203 45.8544L17.5317 58.4396L13.8607 45.5408L15.6627 42.3005Z" fill="url(#paint57_radial_262_7763)"/>
<path style="mix-blend-mode:screen" fill-rule="evenodd" clip-rule="evenodd" d="M26.437 75.4777L22.9708 74.8673L22.0176 79.8177L22.2141 74.1565L18.4678 61.3204L23.0796 73.914L26.437 75.4777Z" fill="url(#paint58_radial_262_7763)"/>
<path fill-rule="evenodd" clip-rule="evenodd" d="M88.5479 38.5834L82.1634 45.5534L79.3369 41.5771L88.5479 38.5834Z" fill="url(#paint59_radial_262_7763)"/>
<path fill-rule="evenodd" clip-rule="evenodd" d="M73.922 83.5974L72.8558 74.2066L68.2314 75.7578L73.922 83.5974Z" fill="url(#paint60_radial_262_7763)"/>
<path fill-rule="evenodd" clip-rule="evenodd" d="M82.163 45.5534L72.8558 74.2066L68.2314 75.7578L79.3365 41.5771L82.163 45.5534Z" fill="url(#paint61_radial_262_7763)"/>
<path fill-rule="evenodd" clip-rule="evenodd" d="M72.8564 74.2066L82.1636 45.5534L88.5482 38.5834L73.9226 83.5974L72.8564 74.2066Z" fill="url(#paint62_radial_262_7763)"/>
<path style="mix-blend-mode:screen" fill-rule="evenodd" clip-rule="evenodd" d="M79.8507 42.3005L82.2966 44.8342L85.976 41.3932L82.489 45.8544L77.9775 58.4396L81.6486 45.5408L79.8507 42.3005Z" fill="url(#paint63_radial_262_7763)"/>
<path style="mix-blend-mode:screen" fill-rule="evenodd" clip-rule="evenodd" d="M69.0723 75.4777L72.5384 74.8673L73.4959 79.8177L73.2952 74.1565L77.0415 61.3204L72.4297 73.914L69.0723 75.4777Z" fill="url(#paint64_radial_262_7763)"/>
<path fill-rule="evenodd" clip-rule="evenodd" d="M49.3037 7.82288L53.9573 16.0472L49.3037 17.5105V7.82288Z" fill="url(#paint65_radial_262_7763)"/>
<path fill-rule="evenodd" clip-rule="evenodd" d="M87.5945 35.6399L78.3291 33.7542L78.3793 38.6336L87.5945 35.6399Z" fill="url(#paint66_radial_262_7763)"/>
<path fill-rule="evenodd" clip-rule="evenodd" d="M53.9573 16.0471L78.3291 33.7542L78.3793 38.6336L49.3037 17.5105L53.9573 16.0471Z" fill="url(#paint67_radial_262_7763)"/>
<path fill-rule="evenodd" clip-rule="evenodd" d="M78.3291 33.7542L53.9573 16.0472L49.3037 7.82288L87.5945 35.6399L78.3291 33.7542Z" fill="url(#paint68_radial_262_7763)"/>
<path style="mix-blend-mode:screen" fill-rule="evenodd" clip-rule="evenodd" d="M50.1484 17.243L53.3135 15.7001L51.177 11.1343L54.3421 15.8297L64.9204 24.0122L53.786 16.5322L50.1484 17.243Z" fill="url(#paint69_radial_262_7763)"/>
<path style="mix-blend-mode:screen" fill-rule="evenodd" clip-rule="evenodd" d="M78.3707 37.7472L78.8599 34.2601L83.8647 34.8831L78.4167 33.3236L67.3701 25.7934L77.9233 34.072L78.3707 37.7472Z" fill="url(#paint70_radial_262_7763)"/>
<path fill-rule="evenodd" clip-rule="evenodd" d="M46.2054 7.82288L41.5518 16.0472L46.2054 17.5105V7.82288Z" fill="url(#paint71_radial_262_7763)"/>
<path fill-rule="evenodd" clip-rule="evenodd" d="M7.91895 35.6399L17.1801 33.7542L17.13 38.6336L7.91895 35.6399Z" fill="url(#paint72_radial_262_7763)"/>
<path fill-rule="evenodd" clip-rule="evenodd" d="M41.5518 16.0471L17.1801 33.7542L17.1299 38.6336L46.2054 17.5105L41.5518 16.0471Z" fill="url(#paint73_radial_262_7763)"/>
<path fill-rule="evenodd" clip-rule="evenodd" d="M17.1801 33.7542L41.5519 16.0472L46.2055 7.82288L7.91895 35.6399L17.1801 33.7542Z" fill="url(#paint74_radial_262_7763)"/>
<path style="mix-blend-mode:screen" fill-rule="evenodd" clip-rule="evenodd" d="M45.3615 17.243L42.1964 15.7001L44.3329 11.1343L41.1678 15.8297L30.5938 24.0122L41.7239 16.5322L45.3615 17.243Z" fill="url(#paint75_radial_262_7763)"/>
<path style="mix-blend-mode:screen" fill-rule="evenodd" clip-rule="evenodd" d="M17.1383 37.7472L16.6491 34.2601L11.6484 34.8831L17.0923 33.3236L28.1388 25.7934L17.5856 34.072L17.1383 37.7472Z" fill="url(#paint76_radial_262_7763)"/>
<path style="mix-blend-mode:screen" fill-rule="evenodd" clip-rule="evenodd" d="M28.6992 20.546C29.456 21.8004 30.0121 23.5774 29.364 24.9028L36.982 19.3712C36.359 18.56 36.2462 16.7538 36.727 14.7134L28.6992 20.546Z" fill="url(#paint77_radial_262_7763)"/>
<path fill-rule="evenodd" clip-rule="evenodd" d="M47.7566 20.2116L62.0226 30.5766L76.2886 40.9416L70.8364 57.7121L65.3884 74.4826H47.7566H30.1206L24.6726 57.7121L19.2246 40.9416L33.4906 30.5766L47.7566 20.2116Z" fill="#006D05"/>
<path fill-rule="evenodd" clip-rule="evenodd" d="M33.6579 45.6328L47.7566 35.3891V20.2116L33.4906 30.5766L19.2246 40.9416L33.6579 45.6328Z" fill="url(#paint78_radial_262_7763)"/>
<path fill-rule="evenodd" clip-rule="evenodd" d="M61.8556 45.6328L76.2888 40.9416L62.0228 30.5766L47.7568 20.2116V35.3891L61.8556 45.6328Z" fill="url(#paint79_radial_262_7763)"/>
<path fill-rule="evenodd" clip-rule="evenodd" d="M61.856 45.6328L56.4707 62.2068L65.389 74.4826L70.8371 57.7121L76.2892 40.9416L61.856 45.6328Z" fill="url(#paint80_radial_262_7763)"/>
<path fill-rule="evenodd" clip-rule="evenodd" d="M56.4706 62.2068H39.0436L30.1211 74.4826H47.7571H65.3889L56.4706 62.2068Z" fill="url(#paint81_radial_262_7763)"/>
<path fill-rule="evenodd" clip-rule="evenodd" d="M39.0431 62.2068L33.6579 45.6328L19.2246 40.9416L24.6726 57.7121L30.1206 74.4826L39.0431 62.2068Z" fill="url(#paint82_radial_262_7763)"/>
<path style="mix-blend-mode:screen" fill-rule="evenodd" clip-rule="evenodd" d="M31.6595 31.9062C34.072 32.9264 36.1207 40.0343 36.058 41.7067L42.7018 36.8775C41.251 35.0462 39.959 28.0094 41.69 24.6059L31.6553 31.8936L31.6595 31.9062Z" fill="url(#paint83_radial_262_7763)"/>
<path style="mix-blend-mode:screen" fill-rule="evenodd" clip-rule="evenodd" d="M60.112 74.4868C57.4612 73.0067 53.7024 68.7795 52.6153 63.9629H44.0732C45.8042 65.882 48.5094 72.2373 47.7526 74.4868H60.112Z" fill="url(#paint84_radial_262_7763)"/>
<path style="mix-blend-mode:multiply" fill-rule="evenodd" clip-rule="evenodd" d="M21.3238 47.4098C21.5956 46.6865 22.2227 46.0217 23.9705 45.8753C27.353 45.5868 32.408 47.3847 34.7912 49.9561C34.9614 50.1414 35.1166 50.3399 35.2553 50.5498L33.6539 45.6328L19.2207 40.9458L21.3113 47.4098H21.3238Z" fill="url(#paint85_radial_262_7763)"/>
<path style="mix-blend-mode:multiply" fill-rule="evenodd" clip-rule="evenodd" d="M59.1592 53.9198C61.3585 50.9638 68.5166 46.3938 72.2461 47.138C73.0823 47.3053 73.5799 47.8279 73.7304 48.8105L76.2893 40.9374L61.856 45.6244L59.1592 53.9114V53.9198Z" fill="url(#paint86_radial_262_7763)"/>
<path fill-rule="evenodd" clip-rule="evenodd" d="M44.4078 35.6525L34.9417 42.5304L32.8721 48.8983L36.4887 60.0243L41.9075 63.9587H53.6063L59.0208 60.0243L62.6375 48.8983L60.5679 42.5304L51.106 35.6525H44.4078Z" fill="url(#paint87_radial_262_7763)"/>
<path fill-rule="evenodd" clip-rule="evenodd" d="M44.4082 35.6525L47.7573 29.456L51.1064 35.6525H44.4082Z" fill="url(#paint88_radial_262_7763)"/>
<path fill-rule="evenodd" clip-rule="evenodd" d="M60.5674 42.5304L67.4955 43.7973L62.637 48.8983L60.5674 42.5304Z" fill="url(#paint89_radial_262_7763)"/>
<path fill-rule="evenodd" clip-rule="evenodd" d="M34.9418 42.5304L28.0137 43.7973L32.8721 48.8983L34.9418 42.5304Z" fill="url(#paint90_radial_262_7763)"/>
<path fill-rule="evenodd" clip-rule="evenodd" d="M36.489 60.0242L35.5566 67.0025L41.9078 63.9587L36.489 60.0242Z" fill="url(#paint91_radial_262_7763)"/>
<path fill-rule="evenodd" clip-rule="evenodd" d="M59.021 60.0242L59.9576 67.0025L53.6064 63.9587L59.021 60.0242Z" fill="url(#paint92_radial_262_7763)"/>
<path style="mix-blend-mode:multiply" fill-rule="evenodd" clip-rule="evenodd" d="M47.7566 50.2112L39.6744 39.0894L34.9414 42.5304L47.7566 50.2112Z" fill="url(#paint93_radial_262_7763)"/>
<path style="mix-blend-mode:screen" opacity="0.5" fill-rule="evenodd" clip-rule="evenodd" d="M47.7568 35.6525V48.3505L54.4801 38.1068L51.1059 35.6525H47.7568Z" fill="url(#paint94_radial_262_7763)"/>
<path style="mix-blend-mode:screen" opacity="0.75" fill-rule="evenodd" clip-rule="evenodd" d="M56.3156 61.9936L47.7568 50.2112V63.9587H53.6062L56.3156 61.9936Z" fill="url(#paint95_radial_262_7763)"/>
<path style="mix-blend-mode:screen" opacity="0.45" fill-rule="evenodd" clip-rule="evenodd" d="M47.7568 50.2112L60.8312 54.4592L61.6382 51.9756L47.7568 50.2112Z" fill="url(#paint96_radial_262_7763)"/>
<path style="mix-blend-mode:multiply" fill-rule="evenodd" clip-rule="evenodd" d="M39.1984 61.9936L36.489 60.0243L35.9873 58.4772L46.1558 52.4146L39.1984 61.9936Z" fill="url(#paint97_radial_262_7763)"/>
<path style="mix-blend-mode:screen" fill-rule="evenodd" clip-rule="evenodd" d="M30.8527 46.7743L27.8632 44.1485L20.3037 41.2928L28.0346 43.4252L34.0471 42.6935L28.5823 43.9813L30.8527 46.7743Z" fill="url(#paint98_radial_262_7763)"/>
<path style="mix-blend-mode:screen" fill-rule="evenodd" clip-rule="evenodd" d="M37.9688 40.3311L44.1443 35.1173C45.4713 33.4125 46.5405 31.5219 47.3178 29.5062L47.7359 21.2986L48.2125 29.3891L50.1275 33.842L47.7568 30.3382C46.9206 31.1995 45.5784 33.4908 44.8802 35.3556L48.6097 35.6566L44.5666 36.012L37.9729 40.3311H37.9688Z" fill="url(#paint99_radial_262_7763)"/>
<path style="mix-blend-mode:screen" fill-rule="evenodd" clip-rule="evenodd" d="M55.1904 62.8089L58.8113 59.5978L62.1938 50.2613L59.4552 59.8654L59.5054 63.6242L58.8489 60.3629L55.1904 62.8089Z" fill="url(#paint100_radial_262_7763)"/>
<path style="mix-blend-mode:screen" fill-rule="evenodd" clip-rule="evenodd" d="M59.6107 64.4395L60.2964 66.9566L64.0594 72.6513L59.7821 67.2242L54.3174 64.3015L59.7278 66.5468L59.6107 64.4395Z" fill="url(#paint101_radial_262_7763)"/>
<path style="mix-blend-mode:screen" fill-rule="evenodd" clip-rule="evenodd" d="M38.1357 61.2242L41.2716 63.8918L39.7455 64.9956L42.0242 64.2597L52.1091 63.9587L42.0242 63.6242L38.1357 61.2242Z" fill="url(#paint102_radial_262_7763)"/>
<path fill-rule="evenodd" clip-rule="evenodd" d="M7.91889 35.6399L3.6416 35.8782L17.4017 40.3521L17.1299 38.6336L7.91889 35.6399Z" fill="url(#paint103_radial_262_7763)"/>
<path fill-rule="evenodd" clip-rule="evenodd" d="M3.6416 35.8782L6.96142 38.5876L16.1766 41.5813L17.4017 40.352L3.6416 35.8782Z" fill="url(#paint104_radial_262_7763)"/>
<defs>
<radialGradient id="paint0_radial_262_7763" cx="0" cy="0" r="1" gradientUnits="userSpaceOnUse" gradientTransform="translate(31.1954 -4.41527) scale(60.0619 60.0619)">
<stop stop-color="#FFF8C7"/>
<stop offset="1" stop-color="#FFC521"/>
</radialGradient>
<radialGradient id="paint1_radial_262_7763" cx="0" cy="0" r="1" gradientUnits="userSpaceOnUse" gradientTransform="translate(20.9515 41.6608) scale(69.3189 69.3189)">
<stop stop-color="#FF9900"/>
<stop offset="1" stop-color="#C44800"/>
</radialGradient>
<radialGradient id="paint2_radial_262_7763" cx="0" cy="0" r="1" gradientUnits="userSpaceOnUse" gradientTransform="translate(55.8097 -17.1384) scale(86.5326 86.5326)">
<stop stop-color="#FFEB68"/>
<stop offset="1" stop-color="#E67D2D"/>
</radialGradient>
<radialGradient id="paint3_radial_262_7763" cx="0" cy="0" r="1" gradientUnits="userSpaceOnUse" gradientTransform="translate(73.1739 43.4419) scale(63.7998 63.7998)">
<stop stop-color="#FF9900"/>
<stop offset="1" stop-color="#C44800"/>
</radialGradient>
<radialGradient id="paint4_radial_262_7763" cx="0" cy="0" r="1" gradientUnits="userSpaceOnUse" gradientTransform="translate(43.9352 27.1815) scale(43.7722 43.7722)">
<stop stop-color="#FFF8C7"/>
<stop offset="1" stop-color="#FFC521"/>
</radialGradient>
<radialGradient id="paint5_radial_262_7763" cx="0" cy="0" r="1" gradientUnits="userSpaceOnUse" gradientTransform="translate(43.5585 36.8399) scale(38.989)">
<stop stop-color="#FF9900"/>
<stop offset="1" stop-color="#C44800"/>
</radialGradient>
<radialGradient id="paint6_radial_262_7763" cx="0" cy="0" r="1" gradientUnits="userSpaceOnUse" gradientTransform="translate(79.8637 34.4023) scale(44.7882 44.7882)">
<stop stop-color="#FFEB68"/>
<stop offset="1" stop-color="#E67D2D"/>
</radialGradient>
<radialGradient id="paint7_radial_262_7763" cx="0" cy="0" r="1" gradientUnits="userSpaceOnUse" gradientTransform="translate(61.7427 47.4223) scale(46.0175 46.0175)">
<stop stop-color="#FF9900"/>
<stop offset="1" stop-color="#C44800"/>
</radialGradient>
<radialGradient id="paint8_radial_262_7763" cx="0" cy="0" r="1" gradientUnits="userSpaceOnUse" gradientTransform="translate(38.6251 63.5907) scale(55.818 55.818)">
<stop stop-color="#FF9900"/>
<stop offset="1" stop-color="#C44800"/>
</radialGradient>
<radialGradient id="paint9_radial_262_7763" cx="0" cy="0" r="1" gradientUnits="userSpaceOnUse" gradientTransform="translate(28.8832 54.4508) scale(59.3427 59.3427)">
<stop stop-color="#FF9900"/>
<stop offset="1" stop-color="#C44800"/>
</radialGradient>
<radialGradient id="paint10_radial_262_7763" cx="0" cy="0" r="1" gradientUnits="userSpaceOnUse" gradientTransform="translate(59.7645 38.5082) scale(49.5631 49.5631)">
<stop stop-color="#FFF8C7"/>
<stop offset="1" stop-color="#FFC521"/>
</radialGradient>
<radialGradient id="paint11_radial_262_7763" cx="0" cy="0" r="1" gradientUnits="userSpaceOnUse" gradientTransform="translate(41.6817 42.8942) scale(55.149 55.149)">
<stop stop-color="#FFF8C7"/>
<stop offset="1" stop-color="#FFC521"/>
</radialGradient>
<radialGradient id="paint12_radial_262_7763" cx="0" cy="0" r="1" gradientUnits="userSpaceOnUse" gradientTransform="translate(54.3299 53.0334) scale(45.5032 45.5032)">
<stop stop-color="#FF9900"/>
<stop offset="1" stop-color="#C44800"/>
</radialGradient>
<radialGradient id="paint13_radial_262_7763" cx="0" cy="0" r="1" gradientUnits="userSpaceOnUse" gradientTransform="translate(50.3577 64.381) scale(53.7693 53.7693)">
<stop stop-color="#FFEB68"/>
<stop offset="1" stop-color="#E67D2D"/>
</radialGradient>
<radialGradient id="paint14_radial_262_7763" cx="0" cy="0" r="1" gradientUnits="userSpaceOnUse" gradientTransform="translate(56.7792 51.0934) scale(51.2857 51.2857)">
<stop stop-color="#FF9900"/>
<stop offset="1" stop-color="#C44800"/>
</radialGradient>
<radialGradient id="paint15_radial_262_7763" cx="0" cy="0" r="1" gradientUnits="userSpaceOnUse" gradientTransform="translate(47.3601 95.4802) scale(64.3852 64.3853)">
<stop stop-color="#FFF8C7"/>
<stop offset="1" stop-color="#FFC521"/>
</radialGradient>
<radialGradient id="paint16_radial_262_7763" cx="0" cy="0" r="1" gradientUnits="userSpaceOnUse" gradientTransform="translate(43.4042 45.3736) scale(82.2051 82.2051)">
<stop stop-color="#FF9900"/>
<stop offset="1" stop-color="#C44800"/>
</radialGradient>
<radialGradient id="paint17_radial_262_7763" cx="0" cy="0" r="1" gradientUnits="userSpaceOnUse" gradientTransform="translate(47.7568 75.2561) scale(50.6167 50.6167)">
<stop stop-color="#FFF8C7"/>
<stop offset="1" stop-color="#FFC521"/>
</radialGradient>
<radialGradient id="paint18_radial_262_7763" cx="0" cy="0" r="1" gradientUnits="userSpaceOnUse" gradientTransform="translate(51.2185 69.3858) scale(52.8954 52.8955)">
<stop stop-color="#FF9900"/>
<stop offset="1" stop-color="#C44800"/>
</radialGradient>
<radialGradient id="paint19_radial_262_7763" cx="0" cy="0" r="1" gradientUnits="userSpaceOnUse" gradientTransform="translate(-9.32413 -6.37622) scale(63.0305 63.0305)">
<stop/>
<stop offset="1" stop-color="#FFD58C"/>
</radialGradient>
<radialGradient id="paint20_radial_262_7763" cx="0" cy="0" r="1" gradientUnits="userSpaceOnUse" gradientTransform="translate(46.887 3.56233) scale(37.9981 37.9981)">
<stop stop-color="#FFEF8F"/>
<stop offset="1"/>
</radialGradient>
<radialGradient id="paint21_radial_262_7763" cx="0" cy="0" r="1" gradientUnits="userSpaceOnUse" gradientTransform="translate(76.0966 88.251) scale(52.954 52.954)">
<stop stop-color="#FFEF8F"/>
<stop offset="1"/>
</radialGradient>
<radialGradient id="paint22_radial_262_7763" cx="0" cy="0" r="1" gradientUnits="userSpaceOnUse" gradientTransform="translate(45.7963 10.8668) scale(26.4958 26.4958)">
<stop stop-color="#FFF8C7"/>
<stop offset="1" stop-color="#FFC521"/>
</radialGradient>
<radialGradient id="paint23_radial_262_7763" cx="0" cy="0" r="1" gradientUnits="userSpaceOnUse" gradientTransform="translate(50.4077 19.3712) scale(25.3167 25.3167)">
<stop stop-color="#FF9900"/>
<stop offset="1" stop-color="#C44800"/>
</radialGradient>
<radialGradient id="paint24_radial_262_7763" cx="0" cy="0" r="1" gradientUnits="userSpaceOnUse" gradientTransform="translate(100.025 29.8867) scale(24.9279 24.9279)">
<stop stop-color="#FFF8C7"/>
<stop offset="1" stop-color="#FFC521"/>
</radialGradient>
<radialGradient id="paint25_radial_262_7763" cx="0" cy="0" r="1" gradientUnits="userSpaceOnUse" gradientTransform="translate(94.2884 36.3549) scale(19.1119)">
<stop stop-color="#FF9900"/>
<stop offset="1" stop-color="#C44800"/>
</radialGradient>
<radialGradient id="paint26_radial_262_7763" cx="0" cy="0" r="1" gradientUnits="userSpaceOnUse" gradientTransform="translate(68.8886 100.64) scale(26.8679 26.8679)">
<stop stop-color="#FFF8C7"/>
<stop offset="1" stop-color="#FFC521"/>
</radialGradient>
<radialGradient id="paint27_radial_262_7763" cx="0" cy="0" r="1" gradientUnits="userSpaceOnUse" gradientTransform="translate(85.7042 73.0819) scale(31.4755 31.4755)">
<stop stop-color="#FF9900"/>
<stop offset="1" stop-color="#C44800"/>
</radialGradient>
<radialGradient id="paint28_radial_262_7763" cx="0" cy="0" r="1" gradientUnits="userSpaceOnUse" gradientTransform="translate(20.6887 75.0596) scale(25.6345 25.6345)">
<stop stop-color="#FF9900"/>
<stop offset="1" stop-color="#C44800"/>
</radialGradient>
<radialGradient id="paint29_radial_262_7763" cx="0" cy="0" r="1" gradientUnits="userSpaceOnUse" gradientTransform="translate(26.2287 89.1667) scale(24.1502 24.1502)">
<stop stop-color="#FFF8C7"/>
<stop offset="1" stop-color="#FFC521"/>
</radialGradient>
<radialGradient id="paint30_radial_262_7763" cx="0" cy="0" r="1" gradientUnits="userSpaceOnUse" gradientTransform="translate(66.7096 85.7591) scale(37.9312 37.9312)">
<stop stop-color="#FFEB68"/>
<stop offset="1" stop-color="#EB6600"/>
</radialGradient>
<radialGradient id="paint31_radial_262_7763" cx="0" cy="0" r="1" gradientUnits="userSpaceOnUse" gradientTransform="translate(32.755 99.0133) scale(37.7054 37.7054)">
<stop stop-color="#ED8700"/>
<stop offset="1" stop-color="#A12D00"/>
</radialGradient>
<radialGradient id="paint32_radial_262_7763" cx="0" cy="0" r="1" gradientUnits="userSpaceOnUse" gradientTransform="translate(92.9677 78.3627) scale(34.8706 34.8706)">
<stop stop-color="#FFEB68"/>
<stop offset="1" stop-color="#EB6600"/>
</radialGradient>
<radialGradient id="paint33_radial_262_7763" cx="0" cy="0" r="1" gradientUnits="userSpaceOnUse" gradientTransform="translate(103.78 46.791) scale(33.8211)">
<stop stop-color="#FFEB68"/>
<stop offset="1" stop-color="#EB6600"/>
</radialGradient>
<radialGradient id="paint34_radial_262_7763" cx="0" cy="0" r="1" gradientUnits="userSpaceOnUse" gradientTransform="translate(-38.8134 53.4683) scale(75.9376 75.9376)">
<stop stop-color="#FFEB68"/>
<stop offset="1" stop-color="#E67D2D"/>
</radialGradient>
<radialGradient id="paint35_radial_262_7763" cx="0" cy="0" r="1" gradientUnits="userSpaceOnUse" gradientTransform="translate(11.3768 67.5461) scale(27.6414 27.6414)">
<stop stop-color="#FFEB68"/>
<stop offset="1" stop-color="#EB6600"/>
</radialGradient>
<radialGradient id="paint36_radial_262_7763" cx="0" cy="0" r="1" gradientUnits="userSpaceOnUse" gradientTransform="translate(5.84519 44.0858) scale(30.2504 30.2504)">
<stop stop-color="#FFEB68"/>
<stop offset="1" stop-color="#EB6600"/>
</radialGradient>
<radialGradient id="paint37_radial_262_7763" cx="0" cy="0" r="1" gradientUnits="userSpaceOnUse" gradientTransform="translate(3.52907 33.2065) scale(46.0635 46.0635)">
<stop stop-color="#FFEF8F"/>
<stop offset="1"/>
</radialGradient>
<radialGradient id="paint38_radial_262_7763" cx="0" cy="0" r="1" gradientUnits="userSpaceOnUse" gradientTransform="translate(93.9996 15.0897) scale(32.2448 32.2448)">
<stop stop-color="#FFF8C7"/>
<stop offset="1" stop-color="#FFC521"/>
</radialGradient>
<radialGradient id="paint39_radial_262_7763" cx="0" cy="0" r="1" gradientUnits="userSpaceOnUse" gradientTransform="translate(64.5025 6.9574) scale(29.3013 29.3013)">
<stop stop-color="#FFC600"/>
<stop offset="1" stop-color="#D64F00"/>
</radialGradient>
<radialGradient id="paint40_radial_262_7763" cx="0" cy="0" r="1" gradientUnits="userSpaceOnUse" gradientTransform="translate(20.8976 7.77271) scale(29.7069 29.7069)">
<stop stop-color="#FFF8C7"/>
<stop offset="1" stop-color="#FFC521"/>
</radialGradient>
<radialGradient id="paint41_radial_262_7763" cx="0" cy="0" r="1" gradientUnits="userSpaceOnUse" gradientTransform="translate(28.4361 4.77903) scale(36.1667 36.1667)">
<stop stop-color="#FFC600"/>
<stop offset="1" stop-color="#D64F00"/>
</radialGradient>
<radialGradient id="paint42_radial_262_7763" cx="0" cy="0" r="1" gradientUnits="userSpaceOnUse" gradientTransform="translate(-0.589559 71.606) scale(30.0372 30.0372)">
<stop stop-color="#FFEF8F"/>
<stop offset="1"/>
</radialGradient>
<radialGradient id="paint43_radial_262_7763" cx="0" cy="0" r="1" gradientUnits="userSpaceOnUse" gradientTransform="translate(100.351 69.7287) scale(33.4616 33.4616)">
<stop stop-color="#FFEF8F"/>
<stop offset="1"/>
</radialGradient>
<radialGradient id="paint44_radial_262_7763" cx="0" cy="0" r="1" gradientUnits="userSpaceOnUse" gradientTransform="translate(87.2012 4.01388) scale(32.5166 32.5166)">
<stop stop-color="#FFEF8F"/>
<stop offset="1"/>
</radialGradient>
<radialGradient id="paint45_radial_262_7763" cx="0" cy="0" r="1" gradientUnits="userSpaceOnUse" gradientTransform="translate(23.1429 4.21458) scale(30.748 30.748)">
<stop stop-color="#FFEF8F"/>
<stop offset="1"/>
</radialGradient>
<radialGradient id="paint46_radial_262_7763" cx="0" cy="0" r="1" gradientUnits="userSpaceOnUse" gradientTransform="translate(40.2602 68.6416) scale(28.3271 28.3271)">
<stop stop-color="#8CFFA1"/>
<stop offset="1" stop-color="#00943D"/>
</radialGradient>
<radialGradient id="paint47_radial_262_7763" cx="0" cy="0" r="1" gradientUnits="userSpaceOnUse" gradientTransform="translate(66.3295 74.3781) scale(32.918 32.918)">
<stop stop-color="#13D12E"/>
<stop offset="1" stop-color="#00611E"/>
</radialGradient>
<radialGradient id="paint48_radial_262_7763" cx="0" cy="0" r="1" gradientUnits="userSpaceOnUse" gradientTransform="translate(48.5468 103.671) scale(41.7402 41.7402)">
<stop stop-color="#DBFFE1"/>
<stop offset="1" stop-color="#2EFF63"/>
</radialGradient>
<radialGradient id="paint49_radial_262_7763" cx="0" cy="0" r="1" gradientUnits="userSpaceOnUse" gradientTransform="translate(51.9088 92.3611) scale(53.2592 53.2592)">
<stop stop-color="#085E10"/>
<stop offset="1" stop-color="#00A30B"/>
</radialGradient>
<radialGradient id="paint50_radial_262_7763" cx="0" cy="0" r="1" gradientUnits="userSpaceOnUse" gradientTransform="translate(58.251 87.6531) scale(29.1926 29.1926)">
<stop stop-color="#6EFFB8"/>
<stop offset="1"/>
</radialGradient>
<radialGradient id="paint51_radial_262_7763" cx="0" cy="0" r="1" gradientUnits="userSpaceOnUse" gradientTransform="translate(32.8094 81.3313) scale(26.2366 26.2366)">
<stop stop-color="#6EFFB8"/>
<stop offset="1"/>
</radialGradient>
<radialGradient id="paint52_radial_262_7763" cx="0" cy="0" r="1" gradientUnits="userSpaceOnUse" gradientTransform="translate(63.6243 81.3313) scale(24.999 24.999)">
<stop stop-color="#6EFFB8"/>
<stop offset="1"/>
</radialGradient>
<radialGradient id="paint53_radial_262_7763" cx="0" cy="0" r="1" gradientUnits="userSpaceOnUse" gradientTransform="translate(14.2078 51.039) scale(18.4555 18.4555)">
<stop stop-color="#DBFFE1"/>
<stop offset="1" stop-color="#2EFF63"/>
</radialGradient>
<radialGradient id="paint54_radial_262_7763" cx="0" cy="0" r="1" gradientUnits="userSpaceOnUse" gradientTransform="translate(23.7736 73.7593) scale(18.0332 18.0332)">
<stop stop-color="#085E10"/>
<stop offset="1" stop-color="#00A30B"/>
</radialGradient>
<radialGradient id="paint55_radial_262_7763" cx="0" cy="0" r="1" gradientUnits="userSpaceOnUse" gradientTransform="translate(31.4583 44.0983) scale(47.552 47.5519)">
<stop stop-color="#13D12E"/>
<stop offset="1" stop-color="#00611E"/>
</radialGradient>
<radialGradient id="paint56_radial_262_7763" cx="0" cy="0" r="1" gradientUnits="userSpaceOnUse" gradientTransform="translate(6.30129 77.1794) scale(54.9024 54.9024)">
<stop stop-color="#085E10"/>
<stop offset="1" stop-color="#00A30B"/>
</radialGradient>
<radialGradient id="paint57_radial_262_7763" cx="0" cy="0" r="1" gradientUnits="userSpaceOnUse" gradientTransform="translate(13.2669 43.3207) scale(25.2582 25.2582)">
<stop stop-color="#6EFFB8"/>
<stop offset="1"/>
</radialGradient>
<radialGradient id="paint58_radial_262_7763" cx="0" cy="0" r="1" gradientUnits="userSpaceOnUse" gradientTransform="translate(23.5102 74.5244) scale(24.2714 24.2714)">
<stop stop-color="#6EFFB8"/>
<stop offset="1"/>
</radialGradient>
<radialGradient id="paint59_radial_262_7763" cx="0" cy="0" r="1" gradientUnits="userSpaceOnUse" gradientTransform="translate(75.4359 51.7623) scale(36.6601 36.6601)">
<stop stop-color="#DBFFE1"/>
<stop offset="1" stop-color="#2EFF63"/>
</radialGradient>
<radialGradient id="paint60_radial_262_7763" cx="0" cy="0" r="1" gradientUnits="userSpaceOnUse" gradientTransform="translate(63.3604 92.5492) scale(24.9613 24.9613)">
<stop stop-color="#085E10"/>
<stop offset="1" stop-color="#00A30B"/>
</radialGradient>
<radialGradient id="paint61_radial_262_7763" cx="0" cy="0" r="1" gradientUnits="userSpaceOnUse" gradientTransform="translate(52.4477 71.33) scale(46.306 46.306)">
<stop stop-color="#8CFFA1"/>
<stop offset="1" stop-color="#00943D"/>
</radialGradient>
<radialGradient id="paint62_radial_262_7763" cx="0" cy="0" r="1" gradientUnits="userSpaceOnUse" gradientTransform="translate(89.0123 73.3537) scale(69.921 69.921)">
<stop stop-color="#085E10"/>
<stop offset="1" stop-color="#00A30B"/>
</radialGradient>
<radialGradient id="paint63_radial_262_7763" cx="0" cy="0" r="1" gradientUnits="userSpaceOnUse" gradientTransform="translate(77.6263 46.883) scale(22.8666)">
<stop stop-color="#6EFFB8"/>
<stop offset="1"/>
</radialGradient>
<radialGradient id="paint64_radial_262_7763" cx="0" cy="0" r="1" gradientUnits="userSpaceOnUse" gradientTransform="translate(69.6284 70.1718) scale(27.8463 27.8463)">
<stop stop-color="#6EFFB8"/>
<stop offset="1"/>
</radialGradient>
<radialGradient id="paint65_radial_262_7763" cx="0" cy="0" r="1" gradientUnits="userSpaceOnUse" gradientTransform="translate(70.4895 16.0931) scale(24.5014 24.5014)">
<stop stop-color="#DBFFE1"/>
<stop offset="1" stop-color="#2EFF63"/>
</radialGradient>
<radialGradient id="paint66_radial_262_7763" cx="0" cy="0" r="1" gradientUnits="userSpaceOnUse" gradientTransform="translate(79.2699 33.2943) scale(32.4664 32.4664)">
<stop stop-color="#085E10"/>
<stop offset="1" stop-color="#00A30B"/>
</radialGradient>
<radialGradient id="paint67_radial_262_7763" cx="0" cy="0" r="1" gradientUnits="userSpaceOnUse" gradientTransform="translate(70.9619 41.0586) scale(37.258 37.258)">
<stop stop-color="#085E10"/>
<stop offset="1" stop-color="#00A30B"/>
</radialGradient>
<radialGradient id="paint68_radial_262_7763" cx="0" cy="0" r="1" gradientUnits="userSpaceOnUse" gradientTransform="translate(38.646 36.5012) scale(49.7345 49.7345)">
<stop stop-color="#8CFFA1"/>
<stop offset="1" stop-color="#00943D"/>
</radialGradient>
<radialGradient id="paint69_radial_262_7763" cx="0" cy="0" r="1" gradientUnits="userSpaceOnUse" gradientTransform="translate(53.8404 15.9886) scale(22.1809)">
<stop stop-color="#6EFFB8"/>
<stop offset="1"/>
</radialGradient>
<radialGradient id="paint70_radial_262_7763" cx="0" cy="0" r="1" gradientUnits="userSpaceOnUse" gradientTransform="translate(78.9142 33.3528) scale(24.6854 24.6854)">
<stop stop-color="#6EFFB8"/>
<stop offset="1"/>
</radialGradient>
<radialGradient id="paint71_radial_262_7763" cx="0" cy="0" r="1" gradientUnits="userSpaceOnUse" gradientTransform="translate(41.4054 16.1266) scale(18.5851 18.5851)">
<stop stop-color="#DBFFE1"/>
<stop offset="1" stop-color="#2EFF63"/>
</radialGradient>
<radialGradient id="paint72_radial_262_7763" cx="0" cy="0" r="1" gradientUnits="userSpaceOnUse" gradientTransform="translate(17.9871 30.1627) scale(13.3211 13.3211)">
<stop stop-color="#99FFAC"/>
<stop offset="1" stop-color="#009400"/>
</radialGradient>
<radialGradient id="paint73_radial_262_7763" cx="0" cy="0" r="1" gradientUnits="userSpaceOnUse" gradientTransform="translate(29.9868 40.2015) scale(22.2101 22.2101)">
<stop stop-color="#085E10"/>
<stop offset="1" stop-color="#00A30B"/>
</radialGradient>
<radialGradient id="paint74_radial_262_7763" cx="0" cy="0" r="1" gradientUnits="userSpaceOnUse" gradientTransform="translate(33.1939 28.6574) scale(24.7397)">
<stop stop-color="#8CFFA1"/>
<stop offset="1" stop-color="#00943D"/>
</radialGradient>
<radialGradient id="paint75_radial_262_7763" cx="0" cy="0" r="1" gradientUnits="userSpaceOnUse" gradientTransform="translate(41.7364 15.9886) scale(21.6959 21.6959)">
<stop stop-color="#6EFFB8"/>
<stop offset="1"/>
</radialGradient>
<radialGradient id="paint76_radial_262_7763" cx="0" cy="0" r="1" gradientUnits="userSpaceOnUse" gradientTransform="translate(18.4093 34.6406) scale(20.5502)">
<stop stop-color="#6EFFB8"/>
<stop offset="1"/>
</radialGradient>
<radialGradient id="paint77_radial_262_7763" cx="0" cy="0" r="1" gradientUnits="userSpaceOnUse" gradientTransform="translate(36.4009 25.4463) scale(15.5663 15.5663)">
<stop stop-color="#6EFFB8"/>
<stop offset="1"/>
</radialGradient>
<radialGradient id="paint78_radial_262_7763" cx="0" cy="0" r="1" gradientUnits="userSpaceOnUse" gradientTransform="translate(49.4249 35.1675) scale(41.4141 41.4141)">
<stop stop-color="#8CFFA1"/>
<stop offset="1" stop-color="#00943D"/>
</radialGradient>
<radialGradient id="paint79_radial_262_7763" cx="0" cy="0" r="1" gradientUnits="userSpaceOnUse" gradientTransform="translate(49.1492 32.9222) scale(40.7451 40.7451)">
<stop stop-color="#085E10"/>
<stop offset="1" stop-color="#00A30B"/>
</radialGradient>
<radialGradient id="paint80_radial_262_7763" cx="0" cy="0" r="1" gradientUnits="userSpaceOnUse" gradientTransform="translate(40.0263 38.3033) scale(40.3604 40.3604)">
<stop stop-color="#085E10"/>
<stop offset="1" stop-color="#00A30B"/>
</radialGradient>
<radialGradient id="paint81_radial_262_7763" cx="0" cy="0" r="1" gradientUnits="userSpaceOnUse" gradientTransform="translate(57.7165 79.8888) scale(44.9889)">
<stop stop-color="#085E10"/>
<stop offset="1" stop-color="#00A30B"/>
</radialGradient>
<radialGradient id="paint82_radial_262_7763" cx="0" cy="0" r="1" gradientUnits="userSpaceOnUse" gradientTransform="translate(40.0633 45.2523) scale(32.6086)">
<stop stop-color="#085E10"/>
<stop offset="1" stop-color="#00A30B"/>
</radialGradient>
<radialGradient id="paint83_radial_262_7763" cx="0" cy="0" r="1" gradientUnits="userSpaceOnUse" gradientTransform="translate(45.1478 38.0733) scale(29.6776 29.6776)">
<stop stop-color="#6EFFB8"/>
<stop offset="1"/>
</radialGradient>
<radialGradient id="paint84_radial_262_7763" cx="0" cy="0" r="1" gradientUnits="userSpaceOnUse" gradientTransform="translate(58.2222 45.9339) scale(32.3661 32.3661)">
<stop stop-color="#6EFFB8"/>
<stop offset="1"/>
</radialGradient>
<radialGradient id="paint85_radial_262_7763" cx="0" cy="0" r="1" gradientUnits="userSpaceOnUse" gradientTransform="translate(19.4256 70.8743) scale(33.0518 33.0518)">
<stop offset="0.63" stop-color="white"/>
<stop offset="0.68" stop-color="#FAFBFD"/>
<stop offset="0.74" stop-color="#ECF1F8"/>
<stop offset="0.8" stop-color="#D4E0F0"/>
<stop offset="0.86" stop-color="#B2C8E5"/>
<stop offset="0.93" stop-color="#87A9D6"/>
<stop offset="1" stop-color="#5282C4"/>
</radialGradient>
<radialGradient id="paint86_radial_262_7763" cx="0" cy="0" r="1" gradientUnits="userSpaceOnUse" gradientTransform="translate(78.1415 72.5593) scale(34.8037 34.8037)">
<stop offset="0.63" stop-color="white"/>
<stop offset="0.68" stop-color="#FAFBFD"/>
<stop offset="0.74" stop-color="#ECF1F8"/>
<stop offset="0.8" stop-color="#D4E0F0"/>
<stop offset="0.86" stop-color="#B2C8E5"/>
<stop offset="0.93" stop-color="#87A9D6"/>
<stop offset="1" stop-color="#5282C4"/>
</radialGradient>
<radialGradient id="paint87_radial_262_7763" cx="0" cy="0" r="1" gradientUnits="userSpaceOnUse" gradientTransform="translate(57.5616 62.4744) scale(45.198 45.198)">
<stop stop-color="#13D12E"/>
<stop offset="1" stop-color="#00611E"/>
</radialGradient>
<radialGradient id="paint88_radial_262_7763" cx="0" cy="0" r="1" gradientUnits="userSpaceOnUse" gradientTransform="translate(43.4675 25.1996) scale(18.5935 18.5935)">
<stop stop-color="#DBFFE1"/>
<stop offset="1" stop-color="#2EFF63"/>
</radialGradient>
<radialGradient id="paint89_radial_262_7763" cx="0" cy="0" r="1" gradientUnits="userSpaceOnUse" gradientTransform="translate(60.1994 31.7682) scale(24.5474 24.5474)">
<stop stop-color="#99FFAC"/>
<stop offset="1" stop-color="#009400"/>
</radialGradient>
<radialGradient id="paint90_radial_262_7763" cx="0" cy="0" r="1" gradientUnits="userSpaceOnUse" gradientTransform="translate(33.47 40.3521) scale(23.0087 23.0087)">
<stop stop-color="#DBFFE1"/>
<stop offset="1" stop-color="#2EFF63"/>
</radialGradient>
<radialGradient id="paint91_radial_262_7763" cx="0" cy="0" r="1" gradientUnits="userSpaceOnUse" gradientTransform="translate(37.8103 58.7657) scale(24.7063 24.7063)">
<stop stop-color="#085E10"/>
<stop offset="1" stop-color="#00A30B"/>
</radialGradient>
<radialGradient id="paint92_radial_262_7763" cx="0" cy="0" r="1" gradientUnits="userSpaceOnUse" gradientTransform="translate(64.2892 61.2159) scale(23.962 23.962)">
<stop stop-color="#A6FFB7"/>
<stop offset="1" stop-color="#0DDB3A"/>
</radialGradient>
<radialGradient id="paint93_radial_262_7763" cx="0" cy="0" r="1" gradientUnits="userSpaceOnUse" gradientTransform="translate(57.3857 62.119) scale(30.401 30.401)">
<stop stop-color="#10B32B"/>
<stop offset="1" stop-color="white"/>
</radialGradient>
<radialGradient id="paint94_radial_262_7763" cx="0" cy="0" r="1" gradientUnits="userSpaceOnUse" gradientTransform="translate(63.0681 10.7455) scale(52.009 52.009)">
<stop stop-color="#6EFFB8"/>
<stop offset="1"/>
</radialGradient>
<radialGradient id="paint95_radial_262_7763" cx="0" cy="0" r="1" gradientUnits="userSpaceOnUse" gradientTransform="translate(45.5994 40.0259) scale(28.3606 28.3606)">
<stop stop-color="#6EFFB8"/>
<stop offset="1"/>
</radialGradient>
<radialGradient id="paint96_radial_262_7763" cx="0" cy="0" r="1" gradientUnits="userSpaceOnUse" gradientTransform="translate(66.0367 59.8445) scale(25.438 25.438)">
<stop stop-color="#6EFFB8"/>
<stop offset="1"/>
</radialGradient>
<radialGradient id="paint97_radial_262_7763" cx="0" cy="0" r="1" gradientUnits="userSpaceOnUse" gradientTransform="translate(47.0966 50.0523) scale(20.73 20.73)">
<stop stop-color="#10B32B"/>
<stop offset="1" stop-color="white"/>
</radialGradient>
<radialGradient id="paint98_radial_262_7763" cx="0" cy="0" r="1" gradientUnits="userSpaceOnUse" gradientTransform="translate(29.013 42.8106) scale(16.1475)">
<stop stop-color="#6EFFB8"/>
<stop offset="1"/>
</radialGradient>
<radialGradient id="paint99_radial_262_7763" cx="0" cy="0" r="1" gradientUnits="userSpaceOnUse" gradientTransform="translate(46.4983 30.8901) scale(33.1773 33.1772)">
<stop stop-color="#6EFFB8"/>
<stop offset="1"/>
</radialGradient>
<radialGradient id="paint100_radial_262_7763" cx="0" cy="0" r="1" gradientUnits="userSpaceOnUse" gradientTransform="translate(58.8447 60.0075) scale(15.6625)">
<stop stop-color="#6EFFB8"/>
<stop offset="1"/>
</radialGradient>
<radialGradient id="paint101_radial_262_7763" cx="0" cy="0" r="1" gradientUnits="userSpaceOnUse" gradientTransform="translate(60.4135 66.8938) scale(10.9086)">
<stop stop-color="#6EFFB8"/>
<stop offset="1"/>
</radialGradient>
<radialGradient id="paint102_radial_262_7763" cx="0" cy="0" r="1" gradientUnits="userSpaceOnUse" gradientTransform="translate(42.0576 64.1803) scale(18.1377 18.1377)">
<stop stop-color="#6EFFB8"/>
<stop offset="1"/>
</radialGradient>
<radialGradient id="paint103_radial_262_7763" cx="0" cy="0" r="1" gradientUnits="userSpaceOnUse" gradientTransform="translate(11.0171 35.6232) scale(21.2401 21.2401)">
<stop stop-color="#FFF8C7"/>
<stop offset="1" stop-color="#FFC521"/>
</radialGradient>
<radialGradient id="paint104_radial_262_7763" cx="0" cy="0" r="1" gradientUnits="userSpaceOnUse" gradientTransform="translate(18.8316 42.1917) scale(26.1488)">
<stop stop-color="#FF9900"/>
<stop offset="1" stop-color="#C44800"/>
</radialGradient>
</defs>
</svg>
