<svg width="100" height="110" viewBox="0 0 100 110" fill="none" xmlns="http://www.w3.org/2000/svg">
<g opacity="0.6" filter="url(#filter0_f_712_923)">
<rect x="18" y="28" width="64" height="64" rx="12" fill="#51C14F"/>
</g>
<rect x="11" width="80" height="80" rx="14" fill="#51C14F"/>
<path fill-rule="evenodd" clip-rule="evenodd" d="M31 18.5C31.8284 18.5 32.5 19.1716 32.5 20V52C32.5 55.5898 35.4101 58.5 39 58.5H71C71.8284 58.5 72.5 59.1716 72.5 60C72.5 60.8284 71.8284 61.5 71 61.5H39C33.7533 61.5 29.5 57.2467 29.5 52V20C29.5 19.1716 30.1716 18.5 31 18.5Z" fill="#D6EAE4"/>
<path fill-rule="evenodd" clip-rule="evenodd" d="M56.5003 34C56.5003 33.1716 57.1719 32.5 58.0003 32.5L61.7642 32.5C63.0899 32.5 64.3018 33.249 64.8947 34.4348L66.3419 37.3292C66.7124 38.0701 66.4121 38.9712 65.6711 39.3416C64.9301 39.7121 64.0291 39.4118 63.6586 38.6708L62.6759 36.7053L57.7836 44.1681C56.3717 46.3218 53.1959 46.2647 51.8623 44.0616L48.046 37.7569C47.8461 37.4267 47.3633 37.4379 47.179 37.777L42.3181 46.7165C41.9223 47.4443 41.0115 47.7135 40.2837 47.3178C39.5559 46.922 39.2868 46.0112 39.6825 45.2835L44.5434 36.3439C45.834 33.9702 49.2133 33.892 50.6124 36.2034L54.4288 42.5081C54.6193 42.8228 55.073 42.831 55.2747 42.5233L59.8789 35.5H58.0003C57.1719 35.5 56.5003 34.8284 56.5003 34Z" fill="#44937D"/>
<defs>
<filter id="filter0_f_712_923" x="0" y="10" width="100" height="100" filterUnits="userSpaceOnUse" color-interpolation-filters="sRGB">
<feFlood flood-opacity="0" result="BackgroundImageFix"/>
<feBlend mode="normal" in="SourceGraphic" in2="BackgroundImageFix" result="shape"/>
<feGaussianBlur stdDeviation="9" result="effect1_foregroundBlur_712_923"/>
</filter>
</defs>
</svg>
