<svg width="100" height="110" viewBox="0 0 100 110" fill="none" xmlns="http://www.w3.org/2000/svg">
<g opacity="0.6" filter="url(#filter0_f_712_941)">
<rect x="18" y="28" width="64" height="64" rx="12" fill="#51C14F"/>
</g>
<rect x="11" width="80" height="80" rx="14" fill="#51C14F"/>
<path d="M63.2918 25.5867L58.6765 30.2021C56.367 28.3547 53.4375 27.25 50.25 27.25C42.7942 27.25 36.75 33.2942 36.75 40.75C36.75 48.2059 42.7942 54.25 50.25 54.25C57.7059 54.25 63.75 48.2059 63.75 40.75C63.75 38.6013 63.248 36.5698 62.3549 34.7664L67.1194 30.0019C69.1014 33.1061 70.25 36.7939 70.25 40.75C70.25 51.7957 61.2957 60.75 50.25 60.75C39.2043 60.75 30.25 51.7957 30.25 40.75C30.25 29.7043 39.2043 20.75 50.25 20.75C55.2329 20.75 59.7902 22.5723 63.2918 25.5867Z" fill="#44937D"/>
<path d="M56.5382 32.3404C54.7853 31.0276 52.6085 30.25 50.25 30.25C44.451 30.25 39.75 34.951 39.75 40.75C39.75 46.549 44.451 51.25 50.25 51.25C56.049 51.25 60.75 46.549 60.75 40.75C60.75 39.4454 60.5121 38.1964 60.0773 37.044L55.7107 41.4106C55.3844 44.1367 53.064 46.25 50.25 46.25C47.2124 46.25 44.75 43.7876 44.75 40.75C44.75 37.7124 47.2124 35.25 50.25 35.25C51.2237 35.25 52.1383 35.503 52.9316 35.9469L56.5382 32.3404Z" fill="#D6EAE4"/>
<path d="M71.3107 21.8107L52.7252 40.3962C52.7415 40.5118 52.75 40.6299 52.75 40.75C52.75 42.1307 51.6307 43.25 50.25 43.25C48.8693 43.25 47.75 42.1307 47.75 40.75C47.75 39.3693 48.8693 38.25 50.25 38.25C50.3701 38.25 50.4882 38.2585 50.6038 38.2748L69.1893 19.6893C69.7751 19.1036 70.7249 19.1036 71.3107 19.6893C71.8964 20.2751 71.8964 21.2249 71.3107 21.8107Z" fill="#D6EAE4"/>
<defs>
<filter id="filter0_f_712_941" x="0" y="10" width="100" height="100" filterUnits="userSpaceOnUse" color-interpolation-filters="sRGB">
<feFlood flood-opacity="0" result="BackgroundImageFix"/>
<feBlend mode="normal" in="SourceGraphic" in2="BackgroundImageFix" result="shape"/>
<feGaussianBlur stdDeviation="9" result="effect1_foregroundBlur_712_941"/>
</filter>
</defs>
</svg>
