<svg width="85" height="80" viewBox="0 0 85 80" fill="none" xmlns="http://www.w3.org/2000/svg">
<path fill-rule="evenodd" clip-rule="evenodd" d="M42.0595 0L84.1191 30.5598L68.0542 80H16.0649L0 30.5598L42.0595 0Z" fill="#F56D00"/>
<path fill-rule="evenodd" clip-rule="evenodd" d="M3.54551 31.7069L42.0595 3.72511V0L0 30.5598L3.54551 31.7069Z" fill="url(#paint0_radial_595_1232)"/>
<path fill-rule="evenodd" clip-rule="evenodd" d="M42.0599 3.7251L3.5459 31.7069L6.19924 32.5758L24.1296 19.5467L42.0599 6.52327V3.7251Z" fill="url(#paint1_radial_595_1232)"/>
<path fill-rule="evenodd" clip-rule="evenodd" d="M42.0596 3.72511L80.5736 31.7069L84.1191 30.5598L42.0596 0V3.72511Z" fill="url(#paint2_radial_595_1232)"/>
<path fill-rule="evenodd" clip-rule="evenodd" d="M13.047 53.652L6.19924 32.5758L3.5459 31.7068L18.2551 76.9875L19.9005 74.7281L13.047 53.652Z" fill="url(#paint3_radial_595_1232)"/>
<path fill-rule="evenodd" clip-rule="evenodd" d="M18.2548 76.9875L3.54551 31.7069L0 30.5598L16.0649 80L18.2548 76.9875Z" fill="url(#paint4_radial_595_1232)"/>
<path fill-rule="evenodd" clip-rule="evenodd" d="M42.0596 74.7281H19.9002L18.2549 76.9875H65.8644L64.2191 74.7281H42.0596Z" fill="url(#paint5_radial_595_1232)"/>
<path fill-rule="evenodd" clip-rule="evenodd" d="M65.8639 76.9875H18.2543L16.0645 80H68.0537L65.8639 76.9875Z" fill="url(#paint6_radial_595_1232)"/>
<path fill-rule="evenodd" clip-rule="evenodd" d="M71.0665 53.652L64.2188 74.7281L65.8641 76.9875L80.5733 31.7068L77.92 32.5758L71.0665 53.652Z" fill="url(#paint7_radial_595_1232)"/>
<path fill-rule="evenodd" clip-rule="evenodd" d="M80.5735 31.7069L65.8643 76.9875L68.0541 80L84.119 30.5598L80.5735 31.7069Z" fill="url(#paint8_radial_595_1232)"/>
<path style="mix-blend-mode:screen" fill-rule="evenodd" clip-rule="evenodd" d="M3.54522 31.7068L42.0592 3.72509V1.85385C36.3238 7.52551 12.8435 24.4478 1.77246 31.1275L3.54522 31.7068Z" fill="url(#paint9_radial_595_1232)"/>
<path style="mix-blend-mode:screen" fill-rule="evenodd" clip-rule="evenodd" d="M21.887 18.3822L3.29039 31.0985L0.237305 30.6351L3.26142 32.1703L14.1645 64.3928L4.24628 31.9386L21.887 18.3822Z" fill="url(#paint10_radial_595_1232)"/>
<path style="mix-blend-mode:screen" fill-rule="evenodd" clip-rule="evenodd" d="M31.9736 76.9875L65.459 76.4313L73.9694 52.0414L66.4149 76.9585L67.7011 79.5134L65.5344 77.4683L31.9736 76.9875Z" fill="url(#paint11_radial_595_1232)"/>
<path fill-rule="evenodd" clip-rule="evenodd" d="M42.0596 3.7251L80.5736 31.7069L77.9202 32.5758L59.9899 19.5467L42.0596 6.52327V3.7251Z" fill="url(#paint12_radial_595_1232)"/>
<path style="mix-blend-mode:screen" fill-rule="evenodd" clip-rule="evenodd" d="M24.2393 16.6732L41.6134 3.33116L42.0595 0.278076L42.4766 3.33116L58.1592 15.4218L42.0595 4.20016L24.2393 16.6732Z" fill="url(#paint13_radial_595_1232)"/>
<path fill-rule="evenodd" clip-rule="evenodd" d="M42.0599 6.52328L59.9902 19.5467L77.9206 32.5759L71.0671 53.652L64.2194 74.7281H42.0599H19.9004L13.0469 53.652L6.19922 32.5759L24.1296 19.5467L42.0599 6.52328Z" fill="#006D05"/>
<path fill-rule="evenodd" clip-rule="evenodd" d="M24.3381 38.4677L42.0599 25.5949V6.52328L24.1296 19.5467L6.19922 32.5759L24.3381 38.4677Z" fill="url(#paint14_radial_595_1232)"/>
<path fill-rule="evenodd" clip-rule="evenodd" d="M59.7813 38.4677L77.9202 32.5759L59.9899 19.5467L42.0596 6.52328V25.5949L59.7813 38.4677Z" fill="url(#paint15_radial_595_1232)"/>
<path fill-rule="evenodd" clip-rule="evenodd" d="M59.7812 38.4677L53.0088 59.2947L64.2189 74.7281L71.0666 53.652L77.9201 32.5759L59.7812 38.4677Z" fill="url(#paint16_radial_595_1232)"/>
<path fill-rule="evenodd" clip-rule="evenodd" d="M53.0092 59.2946H31.1105L19.9004 74.7281H42.0599H64.2193L53.0092 59.2946Z" fill="url(#paint17_radial_595_1232)"/>
<path fill-rule="evenodd" clip-rule="evenodd" d="M31.1105 59.2947L24.3381 38.4677L6.19922 32.5759L13.0469 53.652L19.9004 74.7281L31.1105 59.2947Z" fill="url(#paint18_radial_595_1232)"/>
<path style="mix-blend-mode:screen" fill-rule="evenodd" clip-rule="evenodd" d="M21.8291 21.2152C24.8648 22.4839 27.437 31.4288 27.3559 33.5433L35.7099 27.4777C33.885 25.1604 32.2629 16.3314 34.4412 12.0559L21.8291 21.2152Z" fill="url(#paint19_radial_595_1232)"/>
<path style="mix-blend-mode:screen" fill-rule="evenodd" clip-rule="evenodd" d="M57.5857 74.7223C54.2603 72.8684 49.533 67.5559 48.1658 61.5019H37.4365C39.609 63.9119 43.0039 71.8951 42.0712 74.7223H57.5857Z" fill="url(#paint20_radial_595_1232)"/>
<path style="mix-blend-mode:multiply" fill-rule="evenodd" clip-rule="evenodd" d="M8.84033 40.6981C9.18213 39.7885 9.97003 38.9601 12.1715 38.7631C16.418 38.4039 22.7675 40.6633 25.7684 43.896C25.9817 44.1288 26.1755 44.3788 26.3477 44.6433L24.3375 38.4619L6.22754 32.5585L8.86929 40.6691L8.84033 40.6981Z" fill="url(#paint21_radial_595_1232)"/>
<path style="mix-blend-mode:multiply" fill-rule="evenodd" clip-rule="evenodd" d="M56.3926 48.8783C59.156 45.1589 68.1472 39.4178 72.8398 40.3563C73.3452 40.4399 73.8062 40.6954 74.145 41.0796C74.4838 41.4638 74.6797 41.9532 74.6995 42.4651L77.9206 32.5585L59.7759 38.4503L56.3926 48.8783Z" fill="url(#paint22_radial_595_1232)"/>
<path fill-rule="evenodd" clip-rule="evenodd" d="M37.8474 25.9251L25.9537 34.5687L23.3525 42.5693L27.9003 56.5544L34.7075 61.5019H49.4109L56.2181 56.5544L60.76 42.5693L58.1588 34.5687L46.2651 25.9251H37.8474Z" fill="url(#paint23_radial_595_1232)"/>
<path fill-rule="evenodd" clip-rule="evenodd" d="M37.8477 25.9251L42.0594 18.1389L46.2654 25.9251H37.8477Z" fill="url(#paint24_radial_595_1232)"/>
<path fill-rule="evenodd" clip-rule="evenodd" d="M58.1592 34.5688L66.8665 36.1619L60.7604 42.5693L58.1592 34.5688Z" fill="url(#paint25_radial_595_1232)"/>
<path fill-rule="evenodd" clip-rule="evenodd" d="M25.9545 34.5688L17.2529 36.1619L23.3533 42.5693L25.9545 34.5688Z" fill="url(#paint26_radial_595_1232)"/>
<path fill-rule="evenodd" clip-rule="evenodd" d="M27.9007 56.5544L26.7246 65.3255L34.7078 61.5019L27.9007 56.5544Z" fill="url(#paint27_radial_595_1232)"/>
<path fill-rule="evenodd" clip-rule="evenodd" d="M56.2183 56.5544L57.3885 65.3255L49.4111 61.5019L56.2183 56.5544Z" fill="url(#paint28_radial_595_1232)"/>
<path style="mix-blend-mode:multiply" fill-rule="evenodd" clip-rule="evenodd" d="M42.0595 44.2262L31.9038 30.2469L25.9541 34.5688L42.0595 44.2262Z" fill="url(#paint29_radial_595_1232)"/>
<path style="mix-blend-mode:screen" opacity="0.5" fill-rule="evenodd" clip-rule="evenodd" d="M42.0596 25.9251V41.8857L50.512 29.0072L46.2655 25.9251H42.0596Z" fill="url(#paint30_radial_595_1232)"/>
<path style="mix-blend-mode:screen" opacity="0.75" fill-rule="evenodd" clip-rule="evenodd" d="M52.8178 59.0282L42.0596 44.2262V61.5019H49.4113L52.8178 59.0282Z" fill="url(#paint31_radial_595_1232)"/>
<path style="mix-blend-mode:screen" opacity="0.45" fill-rule="evenodd" clip-rule="evenodd" d="M42.0596 44.2262L58.4894 49.5619L59.5091 46.4393L42.0596 44.2262Z" fill="url(#paint32_radial_595_1232)"/>
<path style="mix-blend-mode:multiply" fill-rule="evenodd" clip-rule="evenodd" d="M31.3017 59.0282L27.901 56.5544L27.2695 54.6137L40.0496 46.9897L31.3017 59.0282Z" fill="url(#paint33_radial_595_1232)"/>
<path style="mix-blend-mode:screen" fill-rule="evenodd" clip-rule="evenodd" d="M20.8156 39.9044L17.0615 36.608L7.55469 33.0104L17.2701 35.6985L24.8362 34.7715L17.9595 36.3937L20.8156 39.9044Z" fill="url(#paint34_radial_595_1232)"/>
<path style="mix-blend-mode:screen" fill-rule="evenodd" clip-rule="evenodd" d="M29.7604 31.7995L37.5119 25.2473C39.1779 23.1045 40.5207 20.7291 41.4977 18.1968L42.048 7.87891L42.6274 18.0462L45.0084 23.6483L42.0307 19.2454C40.9995 20.323 39.2904 23.2022 38.4156 25.5485L43.1024 25.9251L38.0159 26.3712L29.7314 31.7995H29.7604Z" fill="url(#paint35_radial_595_1232)"/>
<path style="mix-blend-mode:screen" fill-rule="evenodd" clip-rule="evenodd" d="M51.4043 60.0536L55.9521 56.0214L60.2044 44.2841L56.7631 56.3574L56.8268 61.079L56.0042 56.9773L51.4043 60.0536Z" fill="url(#paint36_radial_595_1232)"/>
<path style="mix-blend-mode:screen" fill-rule="evenodd" clip-rule="evenodd" d="M56.9602 62.0986L57.8234 65.2676L62.5508 72.4223L57.1746 65.6036L50.3037 61.9306L57.1051 64.752L56.9602 62.0986Z" fill="url(#paint37_radial_595_1232)"/>
<path style="mix-blend-mode:screen" fill-rule="evenodd" clip-rule="evenodd" d="M29.9746 58.0607L33.9083 61.415L31.9965 62.8054L34.8584 61.8727L47.5284 61.5019L34.8584 61.079L29.9746 58.0607Z" fill="url(#paint38_radial_595_1232)"/>
<defs>
<radialGradient id="paint0_radial_595_1232" cx="0" cy="0" r="1" gradientUnits="userSpaceOnUse" gradientTransform="translate(33.9315 18.359) scale(71.843 71.843)">
<stop stop-color="#FFF8C7"/>
<stop offset="1" stop-color="#FFC521"/>
</radialGradient>
<radialGradient id="paint1_radial_595_1232" cx="0" cy="0" r="1" gradientUnits="userSpaceOnUse" gradientTransform="translate(39.5572 35.4783) scale(49.1853 49.1853)">
<stop stop-color="#FF9900"/>
<stop offset="1" stop-color="#C44800"/>
</radialGradient>
<radialGradient id="paint2_radial_595_1232" cx="0" cy="0" r="1" gradientUnits="userSpaceOnUse" gradientTransform="translate(54.4225 -5.13288) scale(89.7618 89.7618)">
<stop stop-color="#FFEB68"/>
<stop offset="1" stop-color="#E67D2D"/>
</radialGradient>
<radialGradient id="paint3_radial_595_1232" cx="0" cy="0" r="1" gradientUnits="userSpaceOnUse" gradientTransform="translate(23.8515 70.3309) scale(66.293 66.293)">
<stop stop-color="#FF9900"/>
<stop offset="1" stop-color="#C44800"/>
</radialGradient>
<radialGradient id="paint4_radial_595_1232" cx="0" cy="0" r="1" gradientUnits="userSpaceOnUse" gradientTransform="translate(-23.9959 40.8371) scale(55.5058 55.5058)">
<stop stop-color="#FFEB68"/>
<stop offset="1" stop-color="#E67D2D"/>
</radialGradient>
<radialGradient id="paint5_radial_595_1232" cx="0" cy="0" r="1" gradientUnits="userSpaceOnUse" gradientTransform="translate(42.639 76.8195) scale(49.4924 49.4923)">
<stop stop-color="#FFF8C7"/>
<stop offset="1" stop-color="#FFC521"/>
</radialGradient>
<radialGradient id="paint6_radial_595_1232" cx="0" cy="0" r="1" gradientUnits="userSpaceOnUse" gradientTransform="translate(43.7913 33.2421) scale(64.9316 64.9315)">
<stop stop-color="#FF9900"/>
<stop offset="1" stop-color="#C44800"/>
</radialGradient>
<radialGradient id="paint7_radial_595_1232" cx="0" cy="0" r="1" gradientUnits="userSpaceOnUse" gradientTransform="translate(59.4972 49.5329) scale(64.9837 64.9837)">
<stop stop-color="#FFEB68"/>
<stop offset="1" stop-color="#E67D2D"/>
</radialGradient>
<radialGradient id="paint8_radial_595_1232" cx="0" cy="0" r="1" gradientUnits="userSpaceOnUse" gradientTransform="translate(62.087 31.9791) scale(61.9422 61.9422)">
<stop stop-color="#FF9900"/>
<stop offset="1" stop-color="#C44800"/>
</radialGradient>
<radialGradient id="paint9_radial_595_1232" cx="0" cy="0" r="1" gradientUnits="userSpaceOnUse" gradientTransform="translate(4.71547 -1.5758) scale(46.7753 46.7753)">
<stop/>
<stop offset="1" stop-color="#FFD58C"/>
</radialGradient>
<radialGradient id="paint10_radial_595_1232" cx="0" cy="0" r="1" gradientUnits="userSpaceOnUse" gradientTransform="translate(3.55109 31.1797) scale(46.9143 46.9143)">
<stop stop-color="#FFEF8F"/>
<stop offset="1"/>
</radialGradient>
<radialGradient id="paint11_radial_595_1232" cx="0" cy="0" r="1" gradientUnits="userSpaceOnUse" gradientTransform="translate(67.029 78.0998) scale(56.566 56.566)">
<stop stop-color="#FFEF8F"/>
<stop offset="1"/>
</radialGradient>
<radialGradient id="paint12_radial_595_1232" cx="0" cy="0" r="1" gradientUnits="userSpaceOnUse" gradientTransform="translate(71.9068 34.7078) scale(77.2887)">
<stop stop-color="#FF9900"/>
<stop offset="1" stop-color="#C44800"/>
</radialGradient>
<radialGradient id="paint13_radial_595_1232" cx="0" cy="0" r="1" gradientUnits="userSpaceOnUse" gradientTransform="translate(41.7756 4.04374) scale(42.5462 42.5462)">
<stop stop-color="#FFEF8F"/>
<stop offset="1"/>
</radialGradient>
<radialGradient id="paint14_radial_595_1232" cx="0" cy="0" r="1" gradientUnits="userSpaceOnUse" gradientTransform="translate(44.1571 25.3168) scale(52.0472 52.0472)">
<stop stop-color="#8CFFA1"/>
<stop offset="1" stop-color="#00943D"/>
</radialGradient>
<radialGradient id="paint15_radial_595_1232" cx="0" cy="0" r="1" gradientUnits="userSpaceOnUse" gradientTransform="translate(43.8149 22.4955) scale(51.2072 51.2072)">
<stop stop-color="#085E10"/>
<stop offset="1" stop-color="#00A30B"/>
</radialGradient>
<radialGradient id="paint16_radial_595_1232" cx="0" cy="0" r="1" gradientUnits="userSpaceOnUse" gradientTransform="translate(32.344 29.2563) scale(50.7263 50.7264)">
<stop stop-color="#085E10"/>
<stop offset="1" stop-color="#00A30B"/>
</radialGradient>
<radialGradient id="paint17_radial_595_1232" cx="0" cy="0" r="1" gradientUnits="userSpaceOnUse" gradientTransform="translate(54.5734 81.5178) scale(56.537 56.5371)">
<stop stop-color="#085E10"/>
<stop offset="1" stop-color="#00A30B"/>
</radialGradient>
<radialGradient id="paint18_radial_595_1232" cx="0" cy="0" r="1" gradientUnits="userSpaceOnUse" gradientTransform="translate(32.3908 37.9868) scale(40.982 40.982)">
<stop stop-color="#085E10"/>
<stop offset="1" stop-color="#00A30B"/>
</radialGradient>
<radialGradient id="paint19_radial_595_1232" cx="0" cy="0" r="1" gradientUnits="userSpaceOnUse" gradientTransform="translate(38.7862 28.9608) scale(37.2974 37.2974)">
<stop stop-color="#6EFFB8"/>
<stop offset="1"/>
</radialGradient>
<radialGradient id="paint20_radial_595_1232" cx="0" cy="0" r="1" gradientUnits="userSpaceOnUse" gradientTransform="translate(55.2162 38.8442) scale(40.6749 40.6749)">
<stop stop-color="#6EFFB8"/>
<stop offset="1"/>
</radialGradient>
<radialGradient id="paint21_radial_595_1232" cx="0" cy="0" r="1" gradientUnits="userSpaceOnUse" gradientTransform="translate(6.45348 70.1861) scale(41.5381 41.5381)">
<stop offset="0.63" stop-color="white"/>
<stop offset="0.68" stop-color="#FAFBFD"/>
<stop offset="0.74" stop-color="#ECF1F8"/>
<stop offset="0.8" stop-color="#D4E0F0"/>
<stop offset="0.86" stop-color="#B2C8E5"/>
<stop offset="0.93" stop-color="#87A9D6"/>
<stop offset="1" stop-color="#5282C4"/>
</radialGradient>
<radialGradient id="paint22_radial_595_1232" cx="0" cy="0" r="1" gradientUnits="userSpaceOnUse" gradientTransform="translate(80.2495 72.3065) scale(43.7396 43.7396)">
<stop offset="0.63" stop-color="white"/>
<stop offset="0.68" stop-color="#FAFBFD"/>
<stop offset="0.74" stop-color="#ECF1F8"/>
<stop offset="0.8" stop-color="#D4E0F0"/>
<stop offset="0.86" stop-color="#B2C8E5"/>
<stop offset="0.93" stop-color="#87A9D6"/>
<stop offset="1" stop-color="#5282C4"/>
</radialGradient>
<radialGradient id="paint23_radial_595_1232" cx="0" cy="0" r="1" gradientUnits="userSpaceOnUse" gradientTransform="translate(54.3816 59.6307) scale(56.8035 56.8035)">
<stop stop-color="#13D12E"/>
<stop offset="1" stop-color="#00611E"/>
</radialGradient>
<radialGradient id="paint24_radial_595_1232" cx="0" cy="0" r="1" gradientUnits="userSpaceOnUse" gradientTransform="translate(36.6658 12.7916) scale(23.3703 23.3703)">
<stop stop-color="#DBFFE1"/>
<stop offset="1" stop-color="#2EFF63"/>
</radialGradient>
<radialGradient id="paint25_radial_595_1232" cx="0" cy="0" r="1" gradientUnits="userSpaceOnUse" gradientTransform="translate(57.7015 21.0471) scale(30.8494 30.8495)">
<stop stop-color="#99FFAC"/>
<stop offset="1" stop-color="#009400"/>
</radialGradient>
<radialGradient id="paint26_radial_595_1232" cx="0" cy="0" r="1" gradientUnits="userSpaceOnUse" gradientTransform="translate(24.1064 31.8285) scale(28.9145 28.9145)">
<stop stop-color="#DBFFE1"/>
<stop offset="1" stop-color="#2EFF63"/>
</radialGradient>
<radialGradient id="paint27_radial_595_1232" cx="0" cy="0" r="1" gradientUnits="userSpaceOnUse" gradientTransform="translate(29.5633 54.9728) scale(31.0464 31.0464)">
<stop stop-color="#085E10"/>
<stop offset="1" stop-color="#00A30B"/>
</radialGradient>
<radialGradient id="paint28_radial_595_1232" cx="0" cy="0" r="1" gradientUnits="userSpaceOnUse" gradientTransform="translate(62.8343 58.0491) scale(30.1137 30.1137)">
<stop stop-color="#A6FFB7"/>
<stop offset="1" stop-color="#0DDB3A"/>
</radialGradient>
<radialGradient id="paint29_radial_595_1232" cx="0" cy="0" r="1" gradientUnits="userSpaceOnUse" gradientTransform="translate(54.1618 59.1846) scale(38.207 38.207)">
<stop stop-color="#10B32B"/>
<stop offset="1" stop-color="white"/>
</radialGradient>
<radialGradient id="paint30_radial_595_1232" cx="0" cy="0" r="1" gradientUnits="userSpaceOnUse" gradientTransform="translate(61.305 -5.37622) scale(65.3603 65.3603)">
<stop stop-color="#6EFFB8"/>
<stop offset="1"/>
</radialGradient>
<radialGradient id="paint31_radial_595_1232" cx="0" cy="0" r="1" gradientUnits="userSpaceOnUse" gradientTransform="translate(39.3483 31.423) scale(35.6405 35.6405)">
<stop stop-color="#6EFFB8"/>
<stop offset="1"/>
</radialGradient>
<radialGradient id="paint32_radial_595_1232" cx="0" cy="0" r="1" gradientUnits="userSpaceOnUse" gradientTransform="translate(65.0301 56.3285) scale(31.9734 31.9734)">
<stop stop-color="#6EFFB8"/>
<stop offset="1"/>
</radialGradient>
<radialGradient id="paint33_radial_595_1232" cx="0" cy="0" r="1" gradientUnits="userSpaceOnUse" gradientTransform="translate(41.2314 44.0235) scale(26.0526)">
<stop stop-color="#10B32B"/>
<stop offset="1" stop-color="white"/>
</radialGradient>
<radialGradient id="paint34_radial_595_1232" cx="0" cy="0" r="1" gradientUnits="userSpaceOnUse" gradientTransform="translate(18.5041 34.9164) scale(20.294 20.294)">
<stop stop-color="#6EFFB8"/>
<stop offset="1"/>
</radialGradient>
<radialGradient id="paint35_radial_595_1232" cx="0" cy="0" r="1" gradientUnits="userSpaceOnUse" gradientTransform="translate(40.4781 19.9348) scale(41.6945 41.6946)">
<stop stop-color="#6EFFB8"/>
<stop offset="1"/>
</radialGradient>
<radialGradient id="paint36_radial_595_1232" cx="0" cy="0" r="1" gradientUnits="userSpaceOnUse" gradientTransform="translate(55.9984 56.537) scale(19.6857)">
<stop stop-color="#6EFFB8"/>
<stop offset="1"/>
</radialGradient>
<radialGradient id="paint37_radial_595_1232" cx="0" cy="0" r="1" gradientUnits="userSpaceOnUse" gradientTransform="translate(57.9683 65.1865) scale(13.7128)">
<stop stop-color="#6EFFB8"/>
<stop offset="1"/>
</radialGradient>
<radialGradient id="paint38_radial_595_1232" cx="0" cy="0" r="1" gradientUnits="userSpaceOnUse" gradientTransform="translate(34.8989 61.78) scale(22.7967 22.7967)">
<stop stop-color="#6EFFB8"/>
<stop offset="1"/>
</radialGradient>
</defs>
</svg>
