<svg width="55" height="80" viewBox="0 0 55 80" fill="none" xmlns="http://www.w3.org/2000/svg">
<path fill-rule="evenodd" clip-rule="evenodd" d="M26.7123 7.17773H20.4265L9.76606 0L8.32202 4.37459V12.2319L9.17146 12.8265L9.80853 5.69122L11.38 3.94988L19.9168 10.8303L18.1755 14.313L16.0094 13.4211L15.2874 9.98087L11.1252 7.43256V12.8265L6.45326 23.1046L13.0789 18.4752C15.075 18.4186 19.8319 19.7069 22.8898 25.3132C20.9928 23.7417 16.5021 20.5139 13.7159 20.1741L9.80853 23.0622L9.63865 25.653C10.658 24.8035 13.1468 22.9348 14.9476 22.2552C13.7301 23.048 10.9383 25.2028 9.51123 27.4792L9.46876 28.2862C10.4173 27.4368 12.841 25.534 14.9476 24.7186C13.5602 25.6388 10.4966 28.0314 9.34134 30.2399V30.792C10.0634 30.155 12.0086 28.6769 14.0132 27.8615C13.093 28.3853 10.8024 30.036 9.00157 32.4484L13.8009 37.7149L12.6117 32.1087L14.2681 28.8808L20.5114 40.0509L21.0636 32.6608C22.9465 30.7213 26.7123 22.9093 26.7123 7.17773ZM21.5716 26.6723C20.8679 27.8911 19.3094 28.3087 18.0905 27.605C16.8717 26.9013 16.4541 25.3428 17.1578 24.124L21.5716 26.6723Z" fill="#51C14F"/>
<path fill-rule="evenodd" clip-rule="evenodd" d="M26.7123 7.17773C26.7123 22.9093 30.4781 30.7213 32.361 32.6608L32.9132 40.0509L39.1565 28.8808L40.8129 32.1087L39.6237 37.7149L44.423 32.4484C42.6222 30.036 40.3316 28.3853 39.4114 27.8615C41.416 28.6769 43.3612 30.155 44.0833 30.792V30.2399C42.928 28.0314 39.8644 25.6388 38.477 24.7186C40.5836 25.534 43.0073 27.4368 43.9558 28.2862L43.9134 27.4792C42.4863 25.2028 39.6945 23.048 38.477 22.2552C40.2778 22.9348 42.7666 24.8035 43.786 25.653L43.6161 23.0622L39.7087 20.1741C36.9225 20.5139 32.4318 23.7417 30.5348 25.3132C33.5927 19.7069 38.3496 18.4186 40.3457 18.4752L46.9713 23.1046L42.2994 12.8265V7.43256L38.1372 9.98087L37.4152 13.4211L35.2491 14.313L33.5078 10.8303L42.0446 3.94988L43.6161 5.69122L44.2531 12.8265L45.1026 12.2319V4.37459L43.6585 0L32.9981 7.17773H26.7123ZM35.29 27.605C36.5088 26.9013 36.9264 25.3428 36.2227 24.124L31.8089 26.6723C32.5126 27.8911 34.0711 28.3087 35.29 27.605Z" fill="#51C14F"/>
<path d="M26.4575 30.792L26.7123 20.0467L26.9671 30.792L28.4536 32.634L30.2799 38.9891L27.5617 38.3751H25.8629L23.1447 38.9891L24.971 32.634L26.4575 30.792Z" fill="#51C14F"/>
<path d="M30.2799 39.9235L28.8784 39.4138H24.5038L23.1022 39.9235L23.3146 41.3675L25.5656 44.0432H27.8166L30.0676 41.3675L30.2799 39.9235Z" fill="#51C14F"/>
<path d="M13.1638 40.4756L14.3955 41.325L14.9476 43.1089C14.7438 43.7884 14.7777 46.2518 14.8202 47.3985C13.8009 45.8355 13.2912 42.132 13.1638 40.4756Z" fill="#51C14F"/>
<path d="M12.9514 40.3482L11.1252 39.1165C11.2809 40.6597 11.7877 44.1112 12.5692 45.5722L12.9514 45.8695C12.8099 44.8502 12.6117 42.3189 12.9514 40.3482Z" fill="#51C14F"/>
<path d="M6.83551 36.2709L10.9128 39.0316C10.607 39.949 10.7288 42.7266 10.8279 44.0008C10.4541 43.7289 8.01056 38.7343 6.83551 36.2709Z" fill="#51C14F"/>
<path d="M32.1487 44.2131L30.0676 45.5722L23.442 45.5722L21.3609 44.2131L23.1022 46.3792L25.6505 47.5684V52.1129L24.8011 53.0048H23.9516L16.0519 46.4641L15.3299 44.1282C15.3157 44.9493 15.4913 46.9908 16.3067 48.5877L26.7123 57.2095L26.7972 57.2095L37.2028 48.5877C38.0183 46.9908 38.1938 44.9493 38.1797 44.1282L37.4577 46.4641L29.5579 53.0048H28.7085L27.859 52.1129V47.5684L30.4073 46.3792L32.1487 44.2131Z" fill="#51C14F"/>
<path d="M40.3457 40.4756L39.1141 41.325L38.5619 43.1088C38.7658 43.7884 38.7318 46.2518 38.6893 47.3985C39.7087 45.8355 40.2183 42.132 40.3457 40.4756Z" fill="#51C14F"/>
<path d="M40.5581 40.3482L42.3844 39.1165C42.2287 40.6596 41.7218 44.1112 40.9403 45.5722L40.5581 45.8695C40.6997 44.8502 40.8979 42.3189 40.5581 40.3482Z" fill="#51C14F"/>
<path d="M46.674 36.2709L42.5967 39.0316C42.9025 39.9489 42.7808 42.7266 42.6817 44.0008C43.0554 43.7289 45.499 38.7343 46.674 36.2709Z" fill="#51C14F"/>
<path d="M1.73387 63.7316L0.899043 64.7377H0V61.8051H5.50129V67.7195C4.02673 67.992 2.75143 68.3009 1.73387 68.5995V63.7316Z" fill="#51C14F"/>
<path d="M1.73387 70.2106C2.91466 69.5125 4.18926 68.9602 5.50129 68.5239V70.4926C4.05193 70.8901 2.78075 71.3119 1.73387 71.7113V70.2106Z" fill="#51C14F"/>
<path d="M1.73387 73.2287V74.1052C2.83581 73.6155 4.1015 73.1113 5.50129 72.6308V71.2072C4.17803 71.7549 2.89925 72.4197 1.73387 73.2287Z" fill="#51C14F"/>
<path d="M1.73387 76.9604V75.2274C2.91375 74.4099 4.19502 73.7191 5.50129 73.134V76.9604L0 80V77.9236L1.73387 76.9604Z" fill="#51C14F"/>
<path d="M9.82157 76.7891V71.5521C11.1762 71.1489 12.4631 70.8396 13.589 70.5985V76.7891H9.82157Z" fill="#51C14F"/>
<path d="M13.589 69.0815V70.586C12.2833 70.801 11.0235 71.0642 9.82157 71.3603V69.8163C11.1265 69.4964 12.4036 69.2599 13.589 69.0815Z" fill="#51C14F"/>
<path d="M15.4137 68.8401C15.6605 68.8117 15.9005 68.7857 16.1331 68.7617C15.9014 68.7743 15.6709 68.7885 15.4416 68.8042L15.9222 68.184L14.979 66.9726C15.7711 66.9413 16.5161 66.9305 17.196 66.9305C16.4197 66.8928 15.6539 66.8746 14.9017 66.8733L13.589 65.1872V66.888C12.2784 66.9196 11.0167 67.0002 9.82157 67.1158V64.0099L8.51582 61.9763H13.589L17.1423 66.6L20.6957 61.9763H24.4845V76.7891H20.6957V65.1872L18.3839 68.184L19.0475 69.0402V76.7891H15.2586V69.0402L15.4137 68.8401Z" fill="#51C14F"/>
<path d="M13.589 68.9665C12.2783 69.1061 11.0174 69.2925 9.82157 69.5106V67.4779C11.1174 67.2634 12.3907 67.129 13.589 67.0471V68.9665Z" fill="#51C14F"/>
<path fill-rule="evenodd" clip-rule="evenodd" d="M30.866 62.4257L31.3581 63.2179L27.5265 76.7891H31.2725L32.2786 73.407L36.1744 71.8444L37.5872 76.7891H39.8134L38.2294 71.1594L39.5565 70.6457V68.5907L37.7156 69.2971L36.6536 65.6168C35.5343 65.4461 34.4785 65.3079 33.5228 65.1941C34.5793 65.2833 35.6142 65.3904 36.6234 65.512L36.1697 63.94C34.6569 63.7642 33.2389 63.6421 31.9918 63.5527C33.4093 63.6061 34.7926 63.693 36.131 63.8059L35.7751 62.5723C34.0178 62.4756 32.3537 62.4362 30.866 62.4257ZM34.4406 65.6581L35.6607 69.9179L32.9207 71.0096L34.4406 65.6581Z" fill="#51C14F"/>
<path d="M45.5828 67.6053L46.63 69.9821L42.6271 76.7891H45.1958L47.7431 72.4652L49.6482 76.7891H54.015L50.9285 69.814C49.3067 68.9282 47.478 68.2023 45.5828 67.6053Z" fill="#51C14F"/>
<path d="M50.2501 68.2809C48.8477 67.8612 47.1864 67.421 45.3171 67.0021L44.6494 65.4865C46.7403 66.0445 48.7654 66.7548 50.5589 67.6628L50.2261 68.2268L50.2501 68.2809Z" fill="#51C14F"/>
<path d="M51.7173 65.6995L51.2759 66.4476C49.5733 65.951 47.2127 65.3847 44.3829 64.8816L43.9328 63.86L43.6617 63.4263C45.3572 63.7189 47.0308 64.0937 48.6189 64.5726L49.1344 65.7438L49.6336 64.8971C50.3516 65.1404 51.0483 65.4072 51.7173 65.6995Z" fill="#51C14F"/>
<path d="M30.8442 62.3905C32.5174 62.3533 34.1499 62.358 35.7241 62.3958L35.5537 61.8051H30.4805L30.8442 62.3905Z" fill="#51C14F"/>
<path d="M48.1113 63.4196C46.6965 63.2105 45.0773 63.0106 43.2967 62.8422L42.6485 61.8051H47.4006L48.1113 63.4196Z" fill="#51C14F"/>
<path d="M50.2941 63.7767C51.195 63.9401 51.9608 64.1015 52.572 64.2509L54.015 61.8051H50.1619L50.8255 62.8754L50.2941 63.7767Z" fill="#51C14F"/>
</svg>
