<svg width="252" height="86" viewBox="0 0 252 86" fill="none" xmlns="http://www.w3.org/2000/svg">
<g clip-path="url(#clip0_262_999)">
<path fill-rule="evenodd" clip-rule="evenodd" d="M84.2348 14.324C84.4648 12.5009 86.1454 11.2115 87.9886 11.4441L93.8023 12.1779C95.1141 12.3434 96.3287 12.9535 97.2392 13.9044L98.8267 15.5621L98.8659 15.6076C98.9084 15.5991 98.9509 15.591 98.9934 15.5832C102.312 14.975 106.207 15.2713 110.158 15.7699C114.109 16.2686 117.956 16.9494 121.019 18.363C121.059 18.3811 121.098 18.3996 121.137 18.4183L121.186 18.384L123.136 17.1726C124.254 16.4778 125.582 16.1886 126.894 16.3542L132.707 17.0879C134.551 17.3205 135.858 18.987 135.628 20.8101L135.371 22.8508C135.171 24.4297 134.309 25.8506 132.995 26.7651L131.406 27.871C130.63 28.4108 129.736 28.7622 128.797 28.8967L128.448 28.9467C129.376 32.2338 129.685 35.6612 129.345 38.3593C127.975 49.2128 120.594 53.0435 114.091 56.4187C108.97 59.0768 104.393 61.4523 103.724 66.7529C104.393 61.4523 100.549 58.0141 96.2491 54.1669C90.7885 49.2818 84.591 43.7375 85.9608 32.884C86.3013 30.1859 87.4526 26.9428 89.1684 23.9894L88.8426 23.8542C87.966 23.4906 87.1877 22.9282 86.5704 22.2125L85.306 20.7465C84.2603 19.5342 83.7779 17.9435 83.9772 16.3647L84.2348 14.324ZM110.871 45.0424C110.806 45.5609 110.515 46.0293 110.062 46.3447C109.609 46.66 109.031 46.7963 108.455 46.7237C107.959 46.661 107.499 46.4469 107.151 46.1206C107.585 47.9311 109.049 49.7794 111.922 47.4667C114.473 45.303 112.782 39.8467 110.886 36.4963C110.254 35.3796 109.068 34.7307 107.786 34.5689C106.504 34.4071 105.193 34.7408 104.303 35.6655C101.635 38.4399 98.641 43.3049 100.575 46.0347C102.783 48.9886 104.66 47.5619 105.531 45.9162C105.112 46.1457 104.614 46.2389 104.117 46.1762C103.542 46.1036 103.016 45.8279 102.655 45.41C102.295 44.9919 102.129 44.4659 102.195 43.9473L110.871 45.0424ZM100.154 28.17L94.1109 27.4073L98.3974 31.7805C99.3407 32.7427 100.906 32.6707 101.696 31.6287C102.694 30.313 101.833 28.3819 100.154 28.17ZM116.768 30.2668L122.811 31.0295L117.572 34.2005C116.42 34.8982 114.921 34.4395 114.415 33.2338C113.775 31.7115 115.089 30.0549 116.768 30.2668Z" fill="white"/>
<path d="M138.551 55.5958L143.905 56.2715L146.454 36.0771L141.1 35.4015L138.551 55.5958ZM141.497 32.2523L146.851 32.9279L147.457 28.1254L142.104 27.4497L141.497 32.2523Z" fill="white"/>
<path d="M146.52 63.3206L151.873 63.9962L152.996 55.0997L153.075 55.1096C153.998 56.9858 155.704 58.3609 158.538 58.7186C163.735 59.3744 167.799 55.6882 168.624 49.1535C169.419 42.8551 166.545 38.0534 161.192 37.3777C158.436 37.0299 156.383 38.0905 154.86 39.698L154.742 39.6831L155.06 37.1637L149.903 36.5129L146.52 63.3206ZM157.958 54.1262C154.77 53.7238 153.38 51.1089 153.842 47.448C154.299 43.8264 156 41.1216 159.346 41.5439C162.653 41.9612 163.653 44.807 163.172 48.6254C162.69 52.4438 160.674 54.469 157.958 54.1262Z" fill="white"/>
<path d="M177.958 61.1692C182.997 61.8052 186.769 59.8017 187.281 55.7471C187.877 51.0233 184.256 49.6066 180.96 48.4707C178.161 47.5176 175.504 47.0223 175.723 45.2902C175.907 43.8337 177.384 43.2203 179.47 43.4836C181.753 43.7718 183.032 44.7329 182.995 46.9278L187.837 47.5389C187.955 43.4346 185.335 40.4245 180.021 39.7538C175.415 39.1726 171.53 40.8019 170.979 45.1714C170.422 49.5803 173.841 51.0116 177.373 52.1772C180.059 53.0761 182.593 53.5958 182.35 55.5247C182.171 56.9419 180.718 57.6783 178.356 57.3803C175.955 57.0772 174.431 55.845 174.37 53.4778L169.41 52.8518C169.183 57.1824 172.093 60.429 177.958 61.1692Z" fill="white"/>
<path d="M206.862 64.2171L209.41 44.0228L204.057 43.3471L202.586 54.9992C202.248 57.676 200.475 59.3718 197.955 59.0539C195.672 58.7657 194.773 57.3325 195.071 54.9706L196.656 42.4131L191.342 41.7424L189.643 55.2053C189.086 59.6142 191.243 62.8058 195.731 63.3722C198.565 63.7299 200.274 62.8658 201.885 61.1895L202.003 61.2044L201.705 63.5663L206.862 64.2171Z" fill="white"/>
<path d="M210.324 64.6544L215.678 65.33L217.158 53.5992C217.496 50.9224 219.171 49.3741 221.336 49.6474C223.305 49.8958 224.297 51.2208 224.009 53.504L222.409 66.1796L227.763 66.8552L229.243 55.1244C229.581 52.4476 231.178 50.8894 233.421 51.1726C235.39 51.421 236.382 52.746 236.094 55.0292L234.494 67.7048L239.848 68.3805L241.562 54.7995C242.118 50.3906 240.065 47.332 235.814 46.7954C233.255 46.4725 230.96 47.5426 229.304 49.5732L229.225 49.5632C228.51 47.3133 226.641 45.6378 224.083 45.3149C221.288 44.9622 219.141 46.1309 217.805 47.842L217.687 47.8271L218.03 45.1109L212.873 44.46L210.324 64.6544Z" fill="white"/>
<path d="M3.39018 38.5376L8.74384 39.2132L12.296 11.0671L6.94238 10.3915L3.39018 38.5376Z" fill="white"/>
<path d="M21.7596 41.4562C28.0186 42.2461 32.8957 38.1426 33.6558 32.1197C34.4159 26.0968 30.7113 20.9102 24.4523 20.1203C18.1931 19.3303 13.3161 23.4339 12.556 29.4568C11.7959 35.4796 15.5004 40.6663 21.7596 41.4562ZM22.2762 37.3622C18.9696 36.9449 17.4916 34.0789 17.9884 30.1424C18.4853 26.2059 20.6339 23.7576 23.9406 24.1749C27.2079 24.5872 28.7202 27.4976 28.2234 31.4341C27.7266 35.3706 25.5435 37.7746 22.2762 37.3622Z" fill="white"/>
<path d="M42.8999 50.5229C45.8916 50.9005 48.5792 50.5198 50.4706 49.1589C52.1403 47.9699 53.2892 46.1552 53.6469 43.3209L56.0018 24.6619L50.8449 24.011L50.5767 26.1368L50.4979 26.1268C49.4912 24.2801 47.7653 23.0625 45.2459 22.7445C40.1284 22.0987 36.02 25.4994 35.2598 31.5223C34.4898 37.6239 38.4516 41.7231 42.9392 42.2895C45.4979 42.6124 47.1623 41.7827 48.5122 40.5933L48.6303 40.6082L48.3521 42.8127C48.0043 45.5682 46.364 46.8409 43.3329 46.4584C40.8529 46.1454 39.8355 45.0172 39.5614 43.7029L34.2471 43.0322C34.3014 47.0382 37.3888 49.8274 42.8999 50.5229ZM44.3861 38.113C41.6305 37.7652 40.0731 35.5291 40.5053 32.1043C40.9326 28.7189 43.0117 26.8217 45.7279 27.1645C48.9558 27.5719 50.2125 30.29 49.8399 33.2424C49.4623 36.2341 47.7715 38.5402 44.3861 38.113Z" fill="white"/>
<path d="M66.3913 47.089C72.6504 47.8789 77.5274 43.7754 78.2875 37.7525C79.0477 31.7296 75.3431 26.543 69.084 25.7531C62.825 24.9632 57.9479 29.0667 57.1878 35.0896C56.4277 41.1125 60.1323 46.2991 66.3913 47.089ZM66.908 42.995C63.6013 42.5777 62.1234 39.7117 62.6202 35.7752C63.117 31.8387 65.2656 29.3904 68.5723 29.8077C71.8396 30.22 73.352 33.1304 72.8552 37.0669C72.3583 41.0034 70.1753 43.4074 66.908 42.995Z" fill="white"/>
<path d="M242.712 43.7467C242.826 42.8408 243.652 42.199 244.559 42.3134L247.84 42.7275C248.745 42.8417 249.387 43.6688 249.273 44.5747C249.158 45.4805 248.331 46.1222 247.426 46.0079L244.145 45.5939C243.238 45.4795 242.598 44.6525 242.712 43.7467Z" fill="white"/>
</g>
<defs>
<clipPath id="clip0_262_999">
<rect width="246" height="54.2258" fill="white" transform="translate(7.21973 0.967041) rotate(7.19303)"/>
</clipPath>
</defs>
</svg>
