<svg width="205" height="107" viewBox="0 0 205 107" fill="none" xmlns="http://www.w3.org/2000/svg">
<g clip-path="url(#clip0_262_1011)">
<path d="M104.605 39.9518C105.399 40.0408 106.092 39.9776 106.184 39.1608L106.2 39.0385C106.313 38.2282 105.657 37.9948 104.866 37.8837C104.067 37.7942 103.374 37.8573 103.283 38.6704L103.267 38.7927C103.153 39.6067 103.809 39.8401 104.605 39.9518Z" fill="white"/>
<path d="M75.813 34.6539C75.843 34.4166 75.6778 34.2038 75.4406 34.1739L73.0723 33.875L72.9652 34.7237L75.3335 35.0226C75.4521 35.0376 75.5572 35.0094 75.6491 34.9382C75.7451 34.8637 75.7985 34.7688 75.813 34.6539Z" fill="white"/>
<path d="M89.1993 35.899L89.6956 37.4565L88.328 37.2839L89.1993 35.899Z" fill="white"/>
<path d="M119.628 39.7392L120.124 41.2968L118.757 41.1242L119.628 39.7392Z" fill="white"/>
<path d="M67.2686 64.6087L66.5351 62.3065L65.247 64.3536L67.2686 64.6087Z" fill="white"/>
<path d="M91.1358 66.9864C91.0425 67.7261 90.5439 68.281 89.7988 68.187L86.6539 67.7901L86.9941 65.0945L90.139 65.4914C90.8841 65.5854 91.2299 66.2413 91.1358 66.9864Z" fill="white"/>
<path d="M99.2978 66.4414L100.031 68.7437L98.0097 68.4885L99.2978 66.4414Z" fill="white"/>
<path d="M111.547 68.0043C111.898 68.0485 112.142 68.3633 112.097 68.7139C112.076 68.8837 111.997 69.0241 111.855 69.1342C111.719 69.2395 111.564 69.2811 111.389 69.259L107.888 68.8171L108.046 67.5624L111.547 68.0043Z" fill="white"/>
<path d="M122.936 70.9997C122.843 71.7393 122.343 72.2942 121.598 72.2002L118.453 71.8032L118.793 69.1076L121.938 69.5046C122.684 69.5986 123.03 70.2546 122.936 70.9997Z" fill="white"/>
<path d="M55.7682 48.5758L53.1791 39.6784L46.9102 38.8873L45.1357 52.9476L49.7029 53.524L50.6614 45.9297L52.9986 53.9399L57.0825 54.4553L61.3724 47.2815L60.4139 54.8758L64.9634 55.45L66.7379 41.3896L60.6659 40.6233L55.7682 48.5758Z" fill="white"/>
<path d="M83.6035 57.8025L84.0443 54.3098L73.9603 53.0371L74.1909 51.2101L83.863 52.4308L84.2948 49.0099L74.6226 47.7892L74.8509 45.9801L84.8096 47.2369L85.2527 43.7264L70.5654 41.8727L68.7909 55.9331L83.6035 57.8025Z" fill="white"/>
<path d="M87.771 55.7994C88.9398 57.7848 91.3163 58.9945 94.3075 59.372C96.5538 59.6555 98.2579 59.4071 99.4964 58.8283C99.7094 58.7287 99.9088 58.6192 100.095 58.5011L100.048 59.8782L103.899 60.3642L104.95 52.0355L95.6007 50.8555L95.2187 53.8825L100.216 54.5132C100.176 54.6537 100.071 54.869 99.9342 55.0694C99.8488 55.1946 99.7509 55.3139 99.6483 55.4059C99.0521 55.9494 97.6051 56.3126 95.814 56.0866C93.9512 55.8515 92.8121 55.2165 92.2623 54.3828C91.9025 53.7733 91.7512 52.9535 91.9004 51.7714C92.0563 50.5356 92.4133 49.7254 92.9671 49.2312C93.765 48.5313 94.9901 48.3401 96.7276 48.5594C98.2859 48.756 99.3154 49.2499 99.7603 49.761C100.049 50.0703 100.252 50.4782 100.274 50.7357L104.913 51.3212C104.927 51.155 104.929 50.9499 104.916 50.7298C104.895 50.3537 104.831 49.933 104.714 49.5855C103.888 47.1884 101.478 45.5197 97.0902 44.9658C93.275 44.4844 90.5667 45.3253 88.9303 46.9021C87.8475 47.9845 87.2277 49.4348 87.0152 51.1185C86.7801 52.9812 87.0805 54.6387 87.771 55.7994Z" fill="white"/>
<path d="M92.4826 51.8446C92.6301 50.6759 92.9544 50.0301 93.3559 49.6706C93.9582 49.1437 94.9629 48.9282 96.6538 49.1416C98.1573 49.3313 99.0126 49.7963 99.3172 50.1462L99.3239 50.1538L99.3307 50.1611C99.4364 50.2745 99.5291 50.4093 99.5958 50.5379C99.6617 50.6648 99.6838 50.75 99.6882 50.7793L95.0915 50.1992L94.5625 54.3912L99.2415 54.9817C99.0501 55.1499 98.6606 55.3409 98.0652 55.4586C97.4725 55.5758 96.7266 55.6098 95.8872 55.5038C94.1174 55.2805 93.1798 54.6968 92.7603 54.0714C92.4926 53.6105 92.3448 52.9368 92.4826 51.8446Z" fill="white"/>
<path d="M117.188 53.0201L115.532 55.3994L118.127 55.7269L117.188 53.0201Z" fill="white"/>
<path fill-rule="evenodd" clip-rule="evenodd" d="M120.117 59.772L121.025 62.5252L126.202 63.1785L120.883 48.223L115.098 47.4929L105.818 60.606L110.887 61.2458L112.522 58.8136L120.117 59.772ZM114.496 55.8601L116.697 52.6988L117.397 51.477L117.738 52.8119L118.993 56.4276L114.496 55.8601Z" fill="white"/>
<path fill-rule="evenodd" clip-rule="evenodd" d="M154.091 91.4322L154.083 91.4312C153.983 91.4186 153.884 91.4055 153.784 91.3919L153.784 91.3935L44.2281 77.5669C34.5605 76.3468 26.5012 70.788 21.7581 63.0918L37.8996 65.129L38.1578 63.0831L20.5039 60.855C18.3611 56.6334 17.1674 51.8851 17.1665 46.9239L39.8361 49.785L40.0943 47.7392L17.2351 44.8542C17.2759 44.2404 17.3351 43.6241 17.4131 43.006C17.9243 38.9558 19.1968 35.1881 21.0692 31.8281L41.7726 34.441L42.0308 32.3952L22.2398 29.8974C24.9663 25.752 28.6486 22.3346 32.9335 19.9195L142.796 33.7847C144.294 32.9404 145.866 32.2186 147.496 31.6309C147.056 31.7892 146.621 31.9572 146.191 32.1348L36.3288 18.2695C41.117 16.2941 46.4676 15.4962 51.9739 16.1911L161.53 30.0177L161.53 30.0191C161.632 30.031 161.735 30.0435 161.837 30.0564C178.785 32.1954 190.791 47.6688 188.652 64.6173C186.513 81.5657 171.039 93.5711 154.091 91.4322ZM167.558 76.5774C169.455 72.6114 170.895 67.7983 171.569 62.4613C172.197 57.4859 172.065 52.7858 171.355 48.6776C171.268 48.1759 171.173 47.6832 171.07 47.1999C170.897 46.3947 170.701 45.6157 170.483 44.8655C170.19 43.8524 169.858 42.8917 169.491 41.99C167.753 37.7352 165.47 35.2736 163.178 34.2526L161.974 43.7915L168.241 44.5825C168.628 45.7806 168.957 47.0734 169.218 48.4469L161.509 47.474L160.037 59.1353L169.721 60.3574C169.667 60.9671 169.601 61.5826 169.523 62.2031C169.445 62.8236 169.355 63.4361 169.257 64.04L159.573 62.8179L158.101 74.4793L165.809 75.4521C165.216 76.7178 164.576 77.8884 163.903 78.9527L157.636 78.1618L156.432 87.7009C158.906 87.2815 161.73 85.4643 164.47 81.7743C165.049 80.9922 165.611 80.1443 166.146 79.2357C166.639 78.3995 167.111 77.5119 167.558 76.5774ZM175.196 49.2014C175.731 52.8801 175.841 56.8983 175.453 61.0808L185.139 62.3033C185.388 58.0395 184.63 53.9197 183.06 50.1939L175.196 49.2014ZM180.965 46.1883L174.458 45.3671C173.668 42.1234 172.517 39.2435 171.066 36.8777C175.13 39.1101 178.524 42.3353 180.965 46.1883ZM159.496 33.7875L158.292 43.3269L149.781 42.2527C150.317 41.3443 150.877 40.4963 151.459 39.7143C154.197 36.0237 157.022 34.2065 159.496 33.7875ZM151.201 34.3705C149.209 36.3018 147.38 38.8056 145.808 41.7513L139.299 40.9299C142.622 37.8041 146.711 35.5232 151.201 34.3705ZM144.139 45.2818L132.355 43.7946L132.097 45.8404L134.948 46.2003C133.19 48.9779 131.914 52.1128 131.252 55.5024L140.939 56.7249C141.604 52.5774 142.707 48.7124 144.139 45.2818ZM157.827 47.0093L147.974 45.7658C146.486 49.0869 145.314 52.9529 144.625 57.1901L156.355 58.6706L157.827 47.0093ZM174.988 64.7634C174.325 68.9111 173.22 72.7759 171.788 76.2067L179.652 77.1992C182.098 73.9801 183.856 70.1778 184.675 65.9859L174.988 64.7634ZM144.566 72.7711C143.949 69.1844 143.775 65.1483 144.16 60.8727L155.891 62.3532L154.419 74.0146L144.566 72.7711ZM140.73 72.287C140.196 68.6082 140.087 64.5902 140.474 60.4075L130.788 59.185C130.539 63.4488 131.297 67.5687 132.867 71.2946L140.73 72.287ZM170.12 79.7373C168.549 82.6829 166.718 85.1864 164.727 87.1179C169.217 85.965 173.305 83.6841 176.627 80.5586L170.12 79.7373ZM145.444 76.623L153.954 77.6971L152.75 87.2366C150.458 86.2161 148.173 83.7541 146.438 79.4986C146.069 78.5967 145.737 77.6361 145.444 76.623ZM141.47 76.1215L128.482 74.4825L128.224 76.5283L136.577 77.5826C138.82 80.4312 141.628 82.8352 144.861 84.6109C143.41 82.2451 142.261 79.3653 141.47 76.1215ZM105.065 36.3049C103.189 36.0719 101.586 36.4194 101.355 38.3068L101.31 38.67C101.064 40.5519 102.53 41.2904 104.405 41.5308C106.277 41.7633 107.88 41.4121 108.11 39.5284L108.156 39.1652C108.394 37.2823 106.94 36.5416 105.065 36.3049ZM46.786 29.0741L46.1574 34.0553L48.0995 34.3004L48.7282 29.3192L46.786 29.0741ZM54.2844 32.7014L52.4307 29.7865L49.7585 29.4492L49.1298 34.4305L51.072 34.6756L51.456 31.6328L53.7479 35.0133L55.9346 35.2893L56.5633 30.308L54.6175 30.0624L54.2844 32.7014ZM61.2887 32.5159L60.8593 35.9184L58.9173 35.6733L59.3467 32.2708L57.0377 31.9794L57.2369 30.4006L63.797 31.2285L63.5978 32.8074L61.2887 32.5159ZM63.8208 36.2922L69.6507 37.0279L69.8121 35.7492L65.9241 35.2585L66.0046 34.6211L69.8926 35.1118L70.038 33.959L66.1501 33.4683L66.2305 32.8309L70.1185 33.3216L70.2794 32.0467L64.4494 31.3109L63.8208 36.2922ZM70.6852 37.1546L71.3139 32.1734L76.1135 32.7791C77.1416 32.8976 77.9036 33.8711 77.7587 34.8996C77.7115 35.2739 77.5684 35.6022 77.3299 35.881C77.0956 36.1563 76.8035 36.353 76.4581 36.4637L77.3677 37.998L75.2996 37.737L74.5153 36.403L72.7808 36.1841L72.6274 37.3997L70.6852 37.1546ZM83.1269 36.3414L81.2732 33.4265L78.601 33.0893L77.9723 38.0706L79.9144 38.3157L80.2985 35.2729L82.5903 38.6534L84.7771 38.9294L85.4057 33.9481L83.4599 33.7025L83.1269 36.3414ZM87.1111 39.2315L84.9244 38.9556L88.2253 34.3115L90.5343 34.603L92.5779 39.9215L90.3912 39.6455L90.1059 38.7434L87.6116 38.4286L87.1111 39.2315ZM95.5429 40.2957L95.9723 36.8932L98.2813 37.1846L98.4806 35.6058L91.9205 34.7779L91.7213 36.3567L94.0303 36.6481L93.6009 40.0506L95.5429 40.2957ZM98.5052 40.6619L99.1338 35.6807L101.076 35.9258L100.447 40.907L98.5052 40.6619ZM111.702 37.2668L113.556 40.1817L113.889 37.5428L115.834 37.7884L115.206 42.7696L113.019 42.4937L110.727 39.1132L110.343 42.1559L108.401 41.9108L109.03 36.9296L111.702 37.2668ZM115.353 42.7958L117.54 43.0718L118.04 42.2689L120.534 42.5836L120.82 43.4858L123.007 43.7617L120.964 38.4433L118.654 38.1518L115.353 42.7958ZM123.16 43.7735L123.788 38.7922L125.73 39.0373L125.301 42.4396L129.189 42.9303L128.99 44.5092L123.16 43.7735ZM48.0541 59.5346C47.161 59.4219 46.0486 59.4152 45.9746 60.0013C45.9338 60.3246 46.8214 60.4812 47.9705 60.6818L47.9831 60.6841C50.0238 61.0473 52.8808 61.5558 52.6429 63.3977C52.3773 65.5017 49.9037 65.696 47.3177 65.3697C44.7378 65.0385 42.635 64.4558 42.6494 62.1365L45.6573 62.5161C45.914 63.1275 46.657 63.3714 47.5555 63.4849C48.4486 63.5976 49.5631 63.588 49.635 63.0181C49.6758 62.6949 48.7889 62.5329 47.6398 62.3323L47.627 62.33C45.5864 61.9667 42.7294 61.4582 42.9667 59.6217C43.2323 57.5179 45.7066 57.318 48.2926 57.6444C50.8711 57.9865 52.9767 58.5472 52.9602 60.8829L49.9524 60.5033C49.6968 59.8811 48.9527 59.648 48.0541 59.5346ZM59.3425 61.605L58.7078 66.6345L55.8369 66.2722L56.4716 61.2426L53.0583 60.8119L53.3528 58.4779L63.0504 59.7018L62.7559 62.0358L59.3425 61.605ZM60.2144 66.8247L63.4469 67.2326L64.1867 66.0459L67.8741 66.5112L68.2958 67.8446L71.5283 68.2526L68.5074 60.3905L65.094 59.9597L60.2144 66.8247ZM76.634 61.4049L79.3742 65.7138L79.8665 61.8129L82.7429 62.1759L81.8136 69.5395L78.5811 69.1316L75.1929 64.1342L74.6253 68.6323L71.7544 68.27L72.6837 60.9064L76.634 61.4049ZM84.418 62.3985L83.4887 69.762L90.0415 70.589C92.0597 70.8716 93.7767 69.3517 94.0126 67.3497C94.2828 65.3412 92.9959 63.4532 90.9708 63.2255L84.418 62.3985ZM96.2107 71.3676L92.9781 70.9596L97.8578 64.0947L101.271 64.5255L104.292 72.3875L101.059 71.9795L100.638 70.6462L96.9505 70.1808L96.2107 71.3676ZM105.447 65.0468L104.517 72.4105L107.388 72.7728L107.615 70.9757L110.179 71.2993L111.338 73.2714L114.396 73.6572L113.051 71.389C113.562 71.2252 113.993 70.9347 114.34 70.5274C114.692 70.1156 114.904 69.6301 114.974 69.0768C115.188 67.5564 114.062 66.1174 112.542 65.9423L105.447 65.0468ZM115.288 73.7753L116.217 66.4118L122.77 67.2387C124.795 67.4665 126.082 69.3544 125.813 71.3631C125.576 73.3649 123.859 74.8848 121.84 74.6022L115.288 73.7753ZM65.4721 56.1062L59.7577 55.385L60.4391 49.9859L57.3893 55.0861L52.5427 54.4744L50.8896 48.8089L50.2117 54.1802L44.4794 53.4568L46.401 38.2315L53.6348 39.1445L55.962 47.1415L60.364 39.9938L67.3936 40.8809L65.4721 56.1062ZM84.1131 58.4588L68.1355 56.4423L70.0571 41.2171L85.9093 43.2177L85.3192 47.8932L75.3605 46.6364L75.2792 47.2805L84.9513 48.5012L84.3726 53.0871L74.7004 51.8664L74.6169 52.5284L84.7009 53.8011L84.1131 58.4588ZM104.408 61.0202L99.4437 60.3936L99.4745 59.4791C98.1407 60.0289 96.4038 60.2283 94.2342 59.9545C91.1477 59.5649 88.5632 58.301 87.2659 56.0986C86.4928 54.7984 86.1859 53.0018 86.4329 51.0449C86.6579 49.2621 87.3208 47.6809 88.5153 46.4868L88.5191 46.4829L88.5231 46.4793C90.3281 44.74 93.2375 43.8878 97.1638 44.3833C101.651 44.9497 104.337 46.6897 105.269 49.3943L105.27 49.3964L105.27 49.3985C105.486 50.0386 105.542 50.8556 105.498 51.3712L105.486 51.5113L105.607 51.5265L104.408 61.0202ZM112.808 59.4417L111.172 61.8738L104.773 61.0662L114.822 46.8666L121.315 47.6862L127.074 63.8807L120.583 63.0615L119.676 60.3085L112.808 59.4417ZM41.2804 72.1027L124.649 82.6242L124.907 80.5783L41.5386 70.0567L41.2804 72.1027Z" fill="white"/>
<path fill-rule="evenodd" clip-rule="evenodd" d="M52.9036 8.82582L162.766 22.6911C183.782 25.3435 198.669 44.5305 196.017 65.5466C193.365 86.5628 174.177 101.449 153.161 98.7971L43.2986 84.9318C22.2824 82.2794 7.39573 63.0924 10.0481 42.0763C12.7004 21.0602 31.8874 6.17346 52.9036 8.82582ZM52.4388 12.5084C33.4565 10.1128 16.1264 23.5588 13.7307 42.5411C11.335 61.5233 24.781 78.8536 43.7633 81.2493L153.626 95.1146C172.608 97.5103 189.938 84.0641 192.334 65.0818C194.729 46.0995 181.284 28.7694 162.302 26.3738L52.4388 12.5084Z" fill="white"/>
</g>
<defs>
<clipPath id="clip0_262_1011">
<rect width="194.419" height="82" fill="white" transform="translate(11.2451 0.9021) rotate(7.19303)"/>
</clipPath>
</defs>
</svg>
