<svg width="132" height="88" viewBox="0 0 132 88" fill="none" xmlns="http://www.w3.org/2000/svg">
<path d="M8.89414 74H25.3941V81C25.3941 88 22.2541 88 18.3941 88H1.05414V84.08H18.3941C20.0941 84.08 21.4741 84 21.4741 81V77.92L8.89414 75.34V74ZM57.6027 74H61.5227V88H57.6027V79.18L51.5227 83.84H46.4027L40.3027 79.18V88H36.4027V74H40.3027L48.9427 80.74L57.6027 74ZM92.0626 88L91.3026 85.4H76.4026L75.6426 88H71.6026L75.8626 74H91.8426L96.1226 88H92.0626ZM77.5626 81.48H90.1826L89.1426 77.92H78.6026L77.5626 81.48ZM121.811 80.92V81.1C122.031 81.1 122.491 81.3 122.671 81.42L131.251 88H125.131C125.131 88 118.131 83.02 118.131 82.82H117.951C117.951 83.02 110.951 88 110.951 88H104.851L113.411 81.42C113.591 81.3 114.071 81.1 114.291 81.1V80.92C114.071 80.92 113.591 80.72 113.411 80.58L104.851 74H110.951C110.951 74 117.951 78.98 117.951 79.18H118.131C118.131 78.98 124.891 74 124.891 74H131.251L122.671 80.58C122.491 80.7 122.031 80.92 121.811 80.92Z" fill="#51C14F"/>
<path fill-rule="evenodd" clip-rule="evenodd" d="M65.6664 8.9524H58.6188L46.6664 0.904785L45.0474 5.80955V14.6191L45.9998 15.2857L46.7141 7.28574L48.476 5.33336L58.0474 13.0476L56.095 16.9524L53.6664 15.9524L52.8569 12.0953L48.1902 9.23812V15.2857L42.9521 26.8095L50.3807 21.6191C52.6188 21.5556 57.9521 23 61.3807 29.2857C59.2537 27.5238 54.2188 23.9048 51.095 23.5238L46.7141 26.7619L46.5236 29.6667C47.6664 28.7143 50.4569 26.6191 52.476 25.8572C51.1109 26.7461 47.9807 29.1619 46.3807 31.7143L46.3331 32.6191C47.3966 31.6667 50.1141 29.5334 52.476 28.6191C50.9204 29.6508 47.4855 32.3334 46.1902 34.8095V35.4286C46.9998 34.7143 49.1807 33.0572 51.4283 32.1429C50.3966 32.7302 47.8283 34.581 45.8093 37.2857L51.1902 43.1905L49.8569 36.9048L51.7141 33.2857L58.7141 45.8095L59.3331 37.5238C61.4442 35.3492 65.6664 26.5905 65.6664 8.9524ZM59.9027 30.8096C59.1137 32.1761 57.3663 32.6443 55.9998 31.8553C54.6332 31.0664 54.165 29.319 54.954 27.9524L59.9027 30.8096Z" fill="#51C14F"/>
<path fill-rule="evenodd" clip-rule="evenodd" d="M65.6664 8.9524C65.6664 26.5905 69.8887 35.3492 71.9998 37.5238L72.6188 45.8095L79.6188 33.2857L81.476 36.9048L80.1426 43.1905L85.5236 37.2857C83.5045 34.581 80.9363 32.7302 79.9045 32.1429C82.1521 33.0572 84.3331 34.7143 85.1426 35.4286V34.8095C83.8474 32.3334 80.4125 29.6508 78.8569 28.6191C81.2188 29.5334 83.9363 31.6667 84.9998 32.6191L84.9521 31.7143C83.3521 29.1619 80.222 26.7461 78.8569 25.8572C80.876 26.6191 83.6664 28.7143 84.8093 29.6667L84.6188 26.7619L80.2379 23.5238C77.1141 23.9048 72.0791 27.5238 69.9521 29.2857C73.3807 23 78.7141 21.5556 80.9521 21.6191L88.3807 26.8095L83.1426 15.2857V9.23812L78.476 12.0953L77.6664 15.9524L75.2379 16.9524L73.2855 13.0476L82.8569 5.33336L84.6188 7.28574L85.3331 15.2857L86.2855 14.6191V5.80955L84.6664 0.904785L72.7141 8.9524H65.6664ZM75.2836 31.8553C76.6502 31.0664 77.1184 29.319 76.3294 27.9524L71.3807 30.8096C72.1697 32.1761 73.9171 32.6443 75.2836 31.8553Z" fill="#51C14F"/>
<path d="M65.3807 35.4285L65.6664 23.381L65.9521 35.4285L67.6188 37.4938L69.6664 44.6191L66.6188 43.9306H64.7141L61.6664 44.6191L63.7141 37.4938L65.3807 35.4285Z" fill="#51C14F"/>
<path d="M69.6664 45.6667L68.095 45.0953H63.1902L61.6188 45.6667L61.8569 47.2857L64.3807 50.2857H66.9045L69.4283 47.2857L69.6664 45.6667Z" fill="#51C14F"/>
<path d="M50.476 46.2857L51.8569 47.2381L52.476 49.2381C52.2474 50 52.2855 52.7619 52.3331 54.0476C51.1902 52.2953 50.6188 48.1429 50.476 46.2857Z" fill="#51C14F"/>
<path d="M50.2379 46.1429L48.1902 44.7619C48.3648 46.4921 48.9331 50.3619 49.8093 52L50.2379 52.3334C50.0791 51.1905 49.8569 48.3524 50.2379 46.1429Z" fill="#51C14F"/>
<path d="M43.3807 41.5715L47.9521 44.6667C47.6093 45.6953 47.7458 48.8095 47.8569 50.2381C47.4379 49.9334 44.6982 44.3334 43.3807 41.5715Z" fill="#51C14F"/>
<path d="M71.7617 50.4762L69.4283 52L61.9998 52L59.6664 50.4762L61.6188 52.9048L64.476 54.2381V59.3334L63.5236 60.3334H62.5712L53.7141 53L52.9045 50.381C52.8887 51.3016 53.0855 53.5905 53.9998 55.381L65.6664 65.0476L65.7617 65.0476L77.4283 55.381C78.3426 53.5905 78.5394 51.3016 78.5236 50.381L77.714 53L68.8569 60.3333H67.9045L66.9521 59.3333V54.2381L69.8093 52.9048L71.7617 50.4762Z" fill="#51C14F"/>
<path d="M80.9521 46.2857L79.5712 47.2381L78.9521 49.2381C79.1807 50 79.1426 52.7619 79.095 54.0476C80.2379 52.2952 80.8093 48.1429 80.9521 46.2857Z" fill="#51C14F"/>
<path d="M81.1902 46.1429L83.2379 44.7619C83.0633 46.4921 82.495 50.3619 81.6188 52L81.1902 52.3333C81.349 51.1905 81.5712 48.3524 81.1902 46.1429Z" fill="#51C14F"/>
<path d="M88.0474 41.5714L83.476 44.6667C83.8188 45.6952 83.6823 48.8095 83.5712 50.2381C83.9902 49.9333 86.7299 44.3333 88.0474 41.5714Z" fill="#51C14F"/>
</svg>
