<svg width="155" height="64" viewBox="0 0 155 64" fill="none" xmlns="http://www.w3.org/2000/svg">
<g clip-path="url(#clip0_262_980)">
<path d="M11.7691 34.1554L17.8383 34.9214L17.3869 38.498L6.68444 37.1473L9.08496 18.1266L13.7182 18.7113L11.7691 34.1554Z" fill="white"/>
<path d="M25.6394 39.7595C24.1582 39.5726 22.8614 39.0878 21.7489 38.3051C20.6547 37.5247 19.8384 36.5042 19.3001 35.2434C18.78 33.9849 18.6191 32.5699 18.8174 30.9984C19.0135 29.445 19.5287 28.1244 20.3633 27.0369C21.2003 25.9315 22.2547 25.1378 23.5266 24.656C24.7986 24.1743 26.1752 24.0269 27.6564 24.2138C29.1376 24.4008 30.4344 24.8856 31.5467 25.6682C32.6591 26.4509 33.4833 27.4817 34.0192 28.7604C34.5574 30.0212 34.7286 31.4283 34.5325 32.9817C34.3365 34.5352 33.8109 35.8635 32.9561 36.9668C32.1215 38.0544 31.0592 38.8378 29.769 39.3173C28.4971 39.799 27.1205 39.9464 25.6394 39.7595ZM26.1455 35.7494C27.0305 35.8611 27.8212 35.6307 28.5175 35.0579C29.2318 34.4874 29.6653 33.597 29.818 32.3867C29.9708 31.1765 29.781 30.2075 29.249 29.4797C28.7349 28.7542 28.0354 28.3355 27.1503 28.2238C26.2471 28.1098 25.4564 28.3404 24.7782 28.9155C24.1023 29.4724 23.687 30.365 23.5319 31.5934C23.3792 32.8037 23.5509 33.7704 24.0468 34.4936C24.5608 35.2192 25.2604 35.6377 26.1455 35.7494Z" fill="white"/>
<path d="M42.9026 26.1381C43.9684 26.2726 44.8713 26.6068 45.6114 27.1406C46.3695 27.6766 46.9209 28.3243 47.2656 29.0834L47.5357 26.943L52.1688 27.5277L50.2642 42.6196C50.0886 44.0105 49.6503 45.2306 48.9489 46.2798C48.2634 47.3494 47.3095 48.1466 46.0872 48.6713C44.8829 49.1983 43.4408 49.3559 41.7609 49.1438C39.5211 48.8612 37.7729 48.0992 36.5165 46.8579C35.258 45.6346 34.6432 44.1073 34.6725 42.2759L39.2516 42.8538C39.3231 43.45 39.6093 43.945 40.1102 44.3386C40.6087 44.7501 41.2555 45.0061 42.0503 45.1064C43.0076 45.2272 43.8015 45.0429 44.4322 44.5537C45.0786 44.0847 45.4783 43.2452 45.631 42.0348L45.9011 39.8944C45.3606 40.5418 44.6645 41.0413 43.8127 41.3925C42.9632 41.7257 42.0055 41.8251 40.9398 41.6906C39.6935 41.5333 38.6044 41.0747 37.6726 40.3148C36.7431 39.5369 36.0544 38.5232 35.6066 37.2739C35.1791 36.0088 35.0633 34.5995 35.2593 33.046C35.4554 31.4926 35.9166 30.1653 36.6427 29.0641C37.3869 27.9652 38.3047 27.1635 39.3961 26.6589C40.4874 26.1544 41.6563 25.9808 42.9026 26.1381ZM46.5816 34.5024C46.7275 33.3464 46.5175 32.3932 45.9515 31.6428C45.4037 30.8947 44.6691 30.4625 43.7479 30.3462C42.8266 30.2299 41.9987 30.465 41.2641 31.0512C40.5498 31.6217 40.1197 32.485 39.9738 33.641C39.8279 34.7971 40.0278 35.7582 40.5733 36.5244C41.1393 37.2748 41.8828 37.7081 42.8041 37.8244C43.7253 37.9407 44.5442 37.7045 45.2608 37.116C45.9955 36.5296 46.4357 35.6586 46.5816 34.5024Z" fill="white"/>
<path d="M59.655 44.0526C58.1738 43.8657 56.877 43.3809 55.7647 42.5982C54.6703 41.8178 53.854 40.7972 53.3158 39.5365C52.7957 38.278 52.6347 36.863 52.8331 35.2915C53.0291 33.7381 53.5444 32.4175 54.3791 31.33C55.2159 30.2246 56.2703 29.4309 57.5422 28.9491C58.8142 28.4674 60.1908 28.32 61.672 28.5069C63.1532 28.6939 64.45 29.1787 65.5623 29.9613C66.6748 30.744 67.4989 31.7748 68.0348 33.0535C68.5731 34.3142 68.7442 35.7214 68.5482 37.2748C68.3521 38.8283 67.8267 40.1566 66.9717 41.2599C66.1371 42.3474 65.0748 43.1309 63.7847 43.6104C62.5128 44.0921 61.1362 44.2395 59.655 44.0526ZM60.1611 40.0425C61.0462 40.1542 61.8368 39.9238 62.5331 39.351C63.2474 38.7804 63.6809 37.8901 63.8336 36.6798C63.9864 35.4696 63.7966 34.5006 63.2646 33.7728C62.7505 33.0472 62.051 32.6286 61.1659 32.5169C60.2628 32.4029 59.4721 32.6335 58.7939 33.2086C58.1181 33.7656 57.7026 34.6581 57.5476 35.8864C57.3948 37.0968 57.5665 38.0635 58.0624 38.7867C58.5765 39.5123 59.276 39.9308 60.1611 40.0425Z" fill="white"/>
<path d="M73.676 28.6454C72.8631 28.5428 72.2245 28.2237 71.7599 27.6879C71.3156 27.1364 71.138 26.5084 71.2269 25.8039C71.3181 25.0814 71.6462 24.5172 72.2113 24.1114C72.7967 23.6898 73.4957 23.5303 74.3086 23.6329C75.1034 23.7332 75.7229 24.0591 76.1671 24.6106C76.6316 25.1464 76.8183 25.7755 76.7271 26.4981C76.6382 27.2025 76.3011 27.7656 75.7157 28.1872C75.1507 28.593 74.4708 28.7457 73.676 28.6454ZM75.7807 30.5076L73.8726 45.6266L69.2394 45.0419L71.1475 29.9229L75.7807 30.5076Z" fill="white"/>
<path d="M82.6879 33.5541C83.2282 32.9067 83.9233 32.4162 84.7732 32.0832C85.6231 31.75 86.5808 31.6506 87.6463 31.7851C88.8928 31.9424 89.9814 32.4009 90.9133 33.1608C91.8452 33.9207 92.5264 34.9242 92.9556 36.1712C93.4031 37.4206 93.5302 38.8221 93.3341 40.3755C93.1381 41.929 92.6656 43.264 91.9194 44.381C91.1939 45.4822 90.2836 46.2941 89.1898 46.8167C88.0984 47.3213 86.93 47.4949 85.6834 47.3376C84.635 47.2053 83.7334 46.8713 82.9745 46.3351C82.2341 45.8012 81.6814 45.1626 81.3167 44.4192L80.1404 53.7399L75.5075 53.1552L78.3252 30.829L82.9581 31.4137L82.6879 33.5541ZM88.6195 39.7805C88.7654 38.6245 88.5539 37.6803 87.9852 36.9478C87.437 36.1997 86.6945 35.7665 85.755 35.6479C84.8339 35.5316 84.0057 35.7666 83.2705 36.3528C82.555 36.9414 82.1237 37.8137 81.9778 38.9698C81.8319 40.1259 82.033 41.0779 82.5798 41.826C83.1463 42.5764 83.8901 43.0098 84.8112 43.1261C85.7324 43.2423 86.5606 43.0073 87.2944 42.421C88.0319 41.8167 88.4736 40.9365 88.6195 39.7805Z" fill="white"/>
<path d="M100.117 49.1592C98.7984 48.9927 97.6525 48.6187 96.6794 48.0372C95.7077 47.4557 94.9716 46.7389 94.4739 45.8869C93.9785 45.017 93.7556 44.0897 93.8065 43.1051L98.386 43.6831C98.3737 44.2137 98.5642 44.669 98.9562 45.0488C99.3495 45.4287 99.8617 45.6585 100.494 45.7384C101.072 45.8112 101.527 45.7586 101.862 45.5806C102.217 45.387 102.417 45.1094 102.463 44.7481C102.517 44.3146 102.332 43.97 101.905 43.7144C101.481 43.4406 100.779 43.1135 99.799 42.7328C98.7471 42.3432 97.8774 41.9673 97.1885 41.6051C96.5033 41.2251 95.9359 40.7038 95.4876 40.0416C95.0402 39.3613 94.8828 38.5064 95.0128 37.4769C95.1222 36.6098 95.4562 35.8537 96.0149 35.2085C96.5929 34.5474 97.3693 34.0673 98.3429 33.7681C99.3349 33.4712 100.472 33.4038 101.754 33.5656C103.651 33.8049 105.082 34.4626 106.047 35.5387C107.031 36.6172 107.506 37.9433 107.473 39.5173L103.191 38.9769C103.185 38.444 103.003 37.9989 102.644 37.6416C102.303 37.2867 101.818 37.0694 101.185 36.9896C100.643 36.9212 100.213 36.977 99.8975 37.1574C99.5837 37.3196 99.404 37.5814 99.3584 37.9427C99.3037 38.3762 99.4884 38.7298 99.9124 39.0036C100.355 39.2796 101.049 39.5875 101.998 39.9273C103.081 40.3577 103.956 40.7618 104.625 41.1397C105.295 41.4996 105.852 42.0286 106.296 42.727C106.76 43.4095 106.936 44.2758 106.822 45.3259C106.711 46.211 106.357 46.9738 105.762 47.6144C105.188 48.2393 104.406 48.6912 103.416 48.9699C102.445 49.2511 101.345 49.3142 100.117 49.1592Z" fill="white"/>
<path d="M125.128 36.7355L123.219 51.8545L118.586 51.2698L118.846 49.2106C118.292 49.8196 117.582 50.2805 116.717 50.5934C115.872 50.8905 114.962 50.9776 113.986 50.8544C112.83 50.7085 111.841 50.3268 111.021 49.7093C110.201 49.0737 109.609 48.2375 109.246 47.2007C108.881 46.1636 108.781 44.9858 108.948 43.6671L110.062 34.8342L114.668 35.4155L113.632 43.6252C113.504 44.6368 113.668 45.4556 114.121 46.0817C114.573 46.7077 115.243 47.0767 116.128 47.1885C117.031 47.3024 117.78 47.1125 118.375 46.6186C118.969 46.1247 119.33 45.3721 119.458 44.3605L120.494 36.1508L125.128 36.7355Z" fill="white"/>
<path d="M146.955 39.3253C148.832 39.5623 150.251 40.3194 151.21 41.5965C152.185 42.8757 152.546 44.5269 152.291 46.5501L151.176 55.3831L146.57 54.8018L147.607 46.5921C147.73 45.6166 147.562 44.8338 147.104 44.2439C146.666 43.6381 145.997 43.2784 145.093 43.1643C144.19 43.0503 143.442 43.2312 142.85 43.707C142.279 44.1671 141.931 44.8848 141.808 45.8603L140.772 54.07L136.165 53.4886L137.201 45.2788C137.324 44.3034 137.158 43.5208 136.7 42.9309C136.262 42.325 135.592 41.9651 134.689 41.8512C133.786 41.7373 133.038 41.9181 132.446 42.394C131.874 42.8539 131.527 43.5717 131.404 44.5472L130.368 52.7569L125.734 52.1722L127.643 37.0532L132.276 37.638L132.036 39.5346C132.586 38.9616 133.263 38.5424 134.067 38.2768C134.873 37.9932 135.755 37.9119 136.712 38.0326C137.851 38.1764 138.832 38.5479 139.655 39.1472C140.496 39.7489 141.113 40.5333 141.505 41.5003C142.134 40.7354 142.933 40.1482 143.902 39.7383C144.871 39.3284 145.889 39.1909 146.955 39.3253Z" fill="white"/>
</g>
<defs>
<clipPath id="clip0_262_980">
<rect width="205" height="38.3548" fill="white" transform="translate(-48.4736 0.108521) rotate(7.19303)"/>
</clipPath>
</defs>
</svg>
