<svg width="180" height="69" viewBox="0 0 180 69" fill="none" xmlns="http://www.w3.org/2000/svg">
<g clip-path="url(#clip0_262_993)">
<path d="M55.0089 21.4389L59.2209 21.9705L57.0681 39.0288L52.856 38.4972L55.0089 21.4389ZM59.5575 32.8242C60.0907 28.599 63.0347 26.3977 66.9712 26.8945C70.9077 27.3914 73.2124 30.2551 72.6792 34.4802C72.1459 38.7054 69.2905 40.9446 65.2622 40.4362C61.2338 39.9278 59.0126 37.1413 59.5575 32.8242ZM68.5065 33.9536C68.7996 31.6311 68.0664 30.1522 66.623 29.97C65.1797 29.7878 64.1218 30.9874 63.822 33.3624C63.5223 35.7375 64.2506 37.1491 65.694 37.3313C67.1374 37.5134 68.233 36.332 68.5311 33.9701L68.5065 33.9536ZM73.438 41.9879L77.5058 42.5013C77.6356 42.9625 77.913 43.3688 78.2954 43.6576C78.6777 43.9467 79.1441 44.1026 79.6233 44.1016C81.2373 44.3053 82.1864 43.5452 82.3487 42.2593L82.6468 39.8974L82.6599 39.8991C82.2195 40.5907 81.58 41.1326 80.8257 41.4539C80.0713 41.7751 79.2374 41.8604 78.4336 41.6985C75.35 41.3094 73.5994 38.7022 74.1095 34.6608C74.6195 30.6193 76.8926 28.3466 80.1862 28.7623C81.0238 28.8228 81.8222 29.1416 82.4711 29.6747C83.1201 30.2078 83.5877 30.9291 83.8097 31.7391L83.6916 31.7242L83.9913 29.3492L88.164 29.8758L86.5511 42.6564C86.1619 45.74 83.1891 47.3244 79.1739 46.8177C75.5277 46.3442 73.4024 44.3829 73.4626 42.0043L73.438 41.9879ZM83.1766 35.8051C83.4366 33.745 82.6557 32.3267 81.1599 32.1379C79.664 31.9491 78.5799 33.1454 78.3215 35.1923C78.0632 37.2393 78.8162 38.5608 80.3252 38.7512C81.8342 38.9417 82.9066 37.9439 83.1766 35.8051ZM89.0157 36.542C89.549 32.3168 92.4929 30.1155 96.4294 30.6123C100.366 31.1092 102.671 33.9729 102.137 38.198C101.604 42.4232 98.7357 44.6607 94.7204 44.154C90.7052 43.6472 88.4971 40.8624 89.042 36.5453L89.0157 36.542ZM97.9647 37.6714C98.2579 35.3489 97.5116 33.8683 96.0813 33.6878C94.651 33.5073 93.58 34.7052 93.2803 37.0802C92.9805 39.4553 93.7089 40.8669 95.1523 41.0491C96.5957 41.2312 97.6912 40.0498 97.9893 37.6879L97.9647 37.6714ZM105.051 28.8476C105.086 28.4162 105.25 28.0054 105.522 27.6681C105.793 27.3307 106.159 27.0822 106.572 26.9546C106.986 26.8268 107.428 26.8259 107.842 26.9517C108.257 27.0775 108.624 27.3243 108.896 27.6604C109.169 27.9966 109.335 28.4065 109.373 28.8378C109.411 29.269 109.319 29.7017 109.108 30.08C108.898 30.4585 108.58 30.7654 108.194 30.9613C107.808 31.1572 107.372 31.2331 106.942 31.1793C106.667 31.1516 106.4 31.0695 106.157 30.9379C105.913 30.8061 105.699 30.6273 105.525 30.412C105.351 30.1966 105.222 29.9489 105.145 29.6831C105.068 29.4174 105.044 29.139 105.075 28.864L105.051 28.8476ZM104.66 31.9443L108.924 32.4825L107.291 45.4205L103.092 44.8906L104.66 31.9443ZM123.447 40.8875C122.916 45.0995 120.718 47.3017 117.503 46.896C116.674 46.8429 115.881 46.5364 115.231 46.0182C114.581 45.4999 114.106 44.7948 113.87 43.9979L113.791 43.9879L112.986 50.3651L108.774 49.8335L110.927 32.7753L115.113 33.3036L114.821 35.613L114.9 35.6229C115.317 34.8935 115.949 34.3103 116.71 33.9531C117.471 33.5958 118.323 33.4819 119.151 33.6266C122.461 34.0177 124.057 36.6853 123.524 40.9105L123.447 40.8875ZM119.156 40.3459C119.415 38.2989 118.624 36.8528 117.141 36.6656C115.659 36.4785 114.561 37.6731 114.288 39.7315C114.015 41.79 114.809 43.2099 116.292 43.3971C117.774 43.5842 118.965 42.4947 119.233 40.369L119.156 40.3459ZM131.492 35.0241C135.022 35.4696 137.003 37.4126 136.692 40.0928L132.847 39.6076C132.964 38.6759 132.263 38.0009 131.108 37.8551C129.954 37.7094 129.346 38.086 129.262 38.7552C129.177 39.4244 129.636 39.6956 130.583 40.015L133.216 40.9072C135.771 41.7896 136.688 42.9718 136.441 44.9269C136.11 47.5513 133.457 49.0295 129.849 48.574C126.24 48.1186 124.11 46.0901 124.273 43.4311L128.353 43.9462C128.351 44.919 129.04 45.5792 130.274 45.7349C131.507 45.8906 132.134 45.5698 132.222 44.8743C132.31 44.1789 131.931 44.0111 130.947 43.6737L128.571 42.8539C126.107 41.9963 124.949 40.5037 125.199 38.5223C125.602 35.9604 128.013 34.5984 131.569 35.0472L131.492 35.0241ZM150.03 50.8011L145.95 50.2861L146.256 47.8586L146.177 47.8487C145.847 48.6296 145.26 49.2745 144.513 49.6769C143.767 50.0795 142.906 50.2158 142.072 50.0633C141.435 50.0039 140.817 49.8105 140.261 49.4958C139.705 49.1813 139.221 48.7523 138.842 48.2375C138.461 47.7224 138.196 47.1332 138.06 46.5081C137.924 45.8831 137.922 45.2363 138.054 44.6106L139.103 36.3045L143.315 36.8361L142.381 44.2368C142.189 45.7589 142.885 46.6866 144.197 46.8522C144.505 46.8887 144.817 46.8586 145.113 46.7643C145.409 46.6698 145.681 46.5129 145.91 46.3042C146.14 46.0957 146.323 45.8403 146.445 45.5553C146.567 45.2701 146.627 44.9621 146.621 44.6519L147.54 37.3694L151.739 37.8993L150.03 50.8011ZM153.696 38.1329L157.79 38.6496L157.475 41.1427L157.567 41.1543C157.893 40.3841 158.467 39.7443 159.196 39.3345C159.926 38.925 160.771 38.7688 161.598 38.8904C162.441 38.9231 163.241 39.2688 163.841 39.8598C164.442 40.4509 164.801 41.2449 164.848 42.0866L165.031 42.1097C165.398 41.3158 166.016 40.6651 166.791 40.2592C167.565 39.8529 168.453 39.7143 169.314 39.8641C169.893 39.9149 170.455 40.0874 170.962 40.3701C171.47 40.6529 171.912 41.0397 172.26 41.5052C172.607 41.9706 172.852 42.5042 172.979 43.0711C173.107 43.6381 173.113 44.2254 172.998 44.7948L171.89 53.5732L167.651 53.0383L168.623 45.3359C168.789 44.0237 168.265 43.211 167.071 43.0603C166.806 43.0226 166.537 43.0425 166.281 43.1184C166.025 43.1944 165.79 43.3251 165.589 43.5011C165.388 43.6771 165.227 43.8943 165.118 44.138C165.01 44.3819 164.955 44.6463 164.957 44.9132L163.99 52.5763L159.975 52.0695L160.952 44.3277C161.118 43.0155 160.563 42.239 159.408 42.0932C159.14 42.0573 158.868 42.079 158.611 42.1568C158.352 42.2347 158.114 42.3669 157.91 42.5444C157.707 42.7222 157.545 42.9413 157.434 43.1869C157.322 43.4326 157.264 43.6992 157.265 43.969L156.301 51.6058L152.089 51.0743L153.696 38.1329Z" fill="white"/>
<path d="M46.5358 21.5024C46.8655 18.8908 46.3988 16.2405 45.1968 13.8986C43.9948 11.5568 42.1134 9.63253 39.7993 8.37799C37.4852 7.12345 34.846 6.59707 32.2277 6.86783C29.6092 7.13856 27.1337 8.19382 25.1252 9.89533L8.74929 7.82861L4.38729 42.3912L38.963 46.7549L41.0016 30.602C42.5118 29.5595 43.7853 28.2103 44.7389 26.6423C45.6925 25.0743 46.3048 23.323 46.5358 21.5024ZM39.8831 20.6628C39.7278 21.9145 39.2046 23.0921 38.3797 24.0465C37.5548 25.0007 36.4654 25.6889 35.2493 26.0237C34.0331 26.3587 32.745 26.3253 31.5479 25.9277C30.3508 25.5303 29.2985 24.7866 28.5242 23.7907C27.7499 22.7949 27.2886 21.5919 27.1983 20.3337C27.1081 19.0756 27.3932 17.8189 28.0174 16.7228C28.6417 15.6267 29.5771 14.7405 30.7052 14.1762C31.8334 13.612 33.1036 13.3951 34.355 13.553C36.0301 13.7644 37.553 14.6318 38.5893 15.9647C39.6258 17.2976 40.0911 18.9872 39.8831 20.6628ZM33.1499 39.2625L11.8796 36.5781L14.5624 15.3209L21.0445 16.139C20.8313 16.8206 20.6762 17.519 20.581 18.2268C20.1503 21.668 21.1023 25.1395 23.2283 27.8796C25.3542 30.6195 28.4803 32.4043 31.9206 32.842C32.5938 32.9233 33.2723 32.951 33.9498 32.9248L33.1499 39.2625Z" fill="white"/>
</g>
<defs>
<clipPath id="clip0_262_993">
<rect width="174.581" height="46.2903" fill="white" transform="translate(6.3418 0.286133) rotate(7.19303)"/>
</clipPath>
</defs>
</svg>
