<svg width="16" height="16" viewBox="0 0 16 16" fill="none" xmlns="http://www.w3.org/2000/svg">
<path d="M14.75 14H14V2.75C14 2.55109 13.921 2.36032 13.7803 2.21967C13.6397 2.07902 13.4489 2 13.25 2C13.0511 2 12.8603 2.07902 12.7197 2.21967C12.579 2.36032 12.5 2.55109 12.5 2.75V14H11V8.75C11 8.55109 10.921 8.36032 10.7803 8.21967C10.6397 8.07902 10.4489 8 10.25 8C10.0511 8 9.86032 8.07902 9.71967 8.21967C9.57902 8.36032 9.5 8.55109 9.5 8.75V14H8V5.75C8 5.55109 7.92098 5.36032 7.78033 5.21967C7.63968 5.07902 7.44891 5 7.25 5C7.05109 5 6.86032 5.07902 6.71967 5.21967C6.57902 5.36032 6.5 5.55109 6.5 5.75V14H5V11.75C5 11.5511 4.92098 11.3603 4.78033 11.2197C4.63968 11.079 4.44891 11 4.25 11C4.05109 11 3.86032 11.079 3.71967 11.2197C3.57902 11.3603 3.5 11.5511 3.5 11.75V14H2V1.25C2 1.05109 1.92098 0.860322 1.78033 0.71967C1.63968 0.579018 1.44891 0.5 1.25 0.5C1.05109 0.5 0.860322 0.579018 0.71967 0.71967C0.579018 0.860322 0.5 1.05109 0.5 1.25V14.75C0.5 14.9489 0.579018 15.1397 0.71967 15.2803C0.860322 15.421 1.05109 15.5 1.25 15.5H14.75C14.9489 15.5 15.1397 15.421 15.2803 15.2803C15.421 15.1397 15.5 14.9489 15.5 14.75C15.5 14.5511 15.421 14.3603 15.2803 14.2197C15.1397 14.079 14.9489 14 14.75 14Z" fill="#51C14F"/>
</svg>
