<svg width="16" height="16" viewBox="0 0 16 16" fill="none" xmlns="http://www.w3.org/2000/svg">
<path d="M7.9999 0.50003C6.85081 0.497951 5.71662 0.759935 4.68485 1.26576C3.65309 1.77158 2.75134 2.50772 2.04923 3.41735C1.34711 4.32698 0.863395 5.38578 0.635418 6.51203C0.407441 7.63827 0.441298 8.80184 0.734376 9.91292C1.02745 11.024 1.57192 12.0529 2.32574 12.9202C3.07956 13.7874 4.02258 14.4699 5.08201 14.9149C6.14144 15.3598 7.28895 15.5554 8.43597 15.4865C9.58299 15.4176 10.6988 15.0861 11.6974 14.5175H11.7499H11.7874C13.2313 13.6955 14.3615 12.4173 15.0004 10.8836C15.6393 9.34981 15.7508 7.6473 15.3174 6.04331C14.884 4.43931 13.9302 3.02463 12.6058 2.02134C11.2814 1.01805 9.66133 0.482949 7.9999 0.50003V0.50003ZM8.7499 2.05253C10.0699 2.21993 11.2968 2.82135 12.2377 3.76222C13.1786 4.70309 13.78 5.93002 13.9474 7.25003H8.7499V2.05253ZM7.9999 14C6.48078 13.9897 5.02214 13.4034 3.91835 12.3597C2.81456 11.3159 2.1478 9.89225 2.05262 8.37608C1.95745 6.85991 2.44094 5.36408 3.40553 4.19045C4.37013 3.01683 5.744 2.25279 7.2499 2.05253V8.00003C7.25285 8.08982 7.27059 8.17851 7.3024 8.26253V8.32253V8.37503L10.3024 13.5275C9.57471 13.839 8.79144 13.9997 7.9999 14V14ZM11.6224 12.77L9.2974 8.75003H13.9474C13.8464 9.54097 13.5888 10.3039 13.1896 10.9941C12.7904 11.6843 12.2576 12.2881 11.6224 12.77Z" fill="#51C14F"/>
</svg>
