<svg width="175" height="67" viewBox="0 0 175 67" fill="none" xmlns="http://www.w3.org/2000/svg">
<path d="M21.288 45.112C20.2427 45.112 19.2827 44.8667 18.408 44.376C17.5333 43.8853 16.84 43.208 16.328 42.344C15.816 41.4693 15.56 40.4827 15.56 39.384C15.56 38.296 15.816 37.32 16.328 36.456C16.84 35.5813 17.5333 34.8987 18.408 34.408C19.2827 33.9173 20.2427 33.672 21.288 33.672C22.344 33.672 23.304 33.9173 24.168 34.408C25.0427 34.8987 25.7307 35.5813 26.232 36.456C26.744 37.32 27 38.296 27 39.384C27 40.4827 26.744 41.4693 26.232 42.344C25.7307 43.208 25.0427 43.8853 24.168 44.376C23.2933 44.8667 22.3333 45.112 21.288 45.112ZM21.288 43.112C21.96 43.112 22.552 42.9627 23.064 42.664C23.576 42.3547 23.976 41.9173 24.264 41.352C24.552 40.7867 24.696 40.1307 24.696 39.384C24.696 38.6373 24.552 37.9867 24.264 37.432C23.976 36.8667 23.576 36.4347 23.064 36.136C22.552 35.8373 21.96 35.688 21.288 35.688C20.616 35.688 20.0187 35.8373 19.496 36.136C18.984 36.4347 18.584 36.8667 18.296 37.432C18.008 37.9867 17.864 38.6373 17.864 39.384C17.864 40.1307 18.008 40.7867 18.296 41.352C18.584 41.9173 18.984 42.3547 19.496 42.664C20.0187 42.9627 20.616 43.112 21.288 43.112ZM34.4265 45L31.9625 40.648H30.9065V45H28.6665V33.832H32.8585C33.7225 33.832 34.4585 33.9867 35.0665 34.296C35.6745 34.5947 36.1278 35.0053 36.4265 35.528C36.7358 36.04 36.8905 36.616 36.8905 37.256C36.8905 37.992 36.6772 38.6587 36.2505 39.256C35.8238 39.8427 35.1892 40.248 34.3465 40.472L37.0185 45H34.4265ZM30.9065 38.968H32.7785C33.3865 38.968 33.8398 38.824 34.1385 38.536C34.4372 38.2373 34.5865 37.8267 34.5865 37.304C34.5865 36.792 34.4372 36.3973 34.1385 36.12C33.8398 35.832 33.3865 35.688 32.7785 35.688H30.9065V38.968ZM42.8205 33.832C43.9938 33.832 45.0232 34.0613 45.9085 34.52C46.8045 34.9787 47.4925 35.6347 47.9725 36.488C48.4632 37.3307 48.7085 38.312 48.7085 39.432C48.7085 40.552 48.4632 41.5333 47.9725 42.376C47.4925 43.208 46.8045 43.8533 45.9085 44.312C45.0232 44.7707 43.9938 45 42.8205 45H38.9165V33.832H42.8205ZM42.7405 43.096C43.9138 43.096 44.8205 42.776 45.4605 42.136C46.1005 41.496 46.4205 40.5947 46.4205 39.432C46.4205 38.2693 46.1005 37.3627 45.4605 36.712C44.8205 36.0507 43.9138 35.72 42.7405 35.72H41.1565V43.096H42.7405ZM52.6253 35.64V38.44H56.3853V40.216H52.6253V43.176H56.8653V45H50.3853V33.816H56.8653V35.64H52.6253ZM64.6609 45L62.1969 40.648H61.1409V45H58.9009V33.832H63.0929C63.9569 33.832 64.6929 33.9867 65.3009 34.296C65.9089 34.5947 66.3622 35.0053 66.6609 35.528C66.9702 36.04 67.1249 36.616 67.1249 37.256C67.1249 37.992 66.9115 38.6587 66.4849 39.256C66.0582 39.8427 65.4235 40.248 64.5809 40.472L67.2529 45H64.6609ZM61.1409 38.968H63.0129C63.6209 38.968 64.0742 38.824 64.3729 38.536C64.6715 38.2373 64.8209 37.8267 64.8209 37.304C64.8209 36.792 64.6715 36.3973 64.3729 36.12C64.0742 35.832 63.6209 35.688 63.0129 35.688H61.1409V38.968ZM79.8114 42.872H75.3634L74.6274 45H72.2754L76.2914 33.816H78.8994L82.9154 45H80.5474L79.8114 42.872ZM79.2034 41.08L77.5874 36.408L75.9714 41.08H79.2034ZM95.125 33.832V35.64H90.469V38.504H94.037V40.28H90.469V45H88.229V33.832H95.125ZM102.473 45L100.009 40.648H98.9534V45H96.7134V33.832H100.905C101.769 33.832 102.505 33.9867 103.113 34.296C103.721 34.5947 104.175 35.0053 104.473 35.528C104.783 36.04 104.937 36.616 104.937 37.256C104.937 37.992 104.724 38.6587 104.297 39.256C103.871 39.8427 103.236 40.248 102.393 40.472L105.065 45H102.473ZM98.9534 38.968H100.825C101.433 38.968 101.887 38.824 102.185 38.536C102.484 38.2373 102.633 37.8267 102.633 37.304C102.633 36.792 102.484 36.3973 102.185 36.12C101.887 35.832 101.433 35.688 100.825 35.688H98.9534V38.968ZM109.203 35.64V38.44H112.963V40.216H109.203V43.176H113.443V45H106.963V33.816H113.443V35.64H109.203ZM117.719 35.64V38.44H121.479V40.216H117.719V43.176H121.959V45H115.479V33.816H121.959V35.64H117.719ZM134.655 42.872H130.207L129.471 45H127.119L131.135 33.816H133.743L137.759 45H135.391L134.655 42.872ZM134.047 41.08L132.431 36.408L130.815 41.08H134.047ZM141.468 33.832V40.744C141.468 41.5013 141.666 42.0827 142.06 42.488C142.455 42.8827 143.01 43.08 143.724 43.08C144.45 43.08 145.01 42.8827 145.404 42.488C145.799 42.0827 145.996 41.5013 145.996 40.744V33.832H148.252V40.728C148.252 41.6773 148.044 42.4827 147.628 43.144C147.223 43.7947 146.674 44.2853 145.98 44.616C145.298 44.9467 144.535 45.112 143.692 45.112C142.86 45.112 142.103 44.9467 141.42 44.616C140.748 44.2853 140.215 43.7947 139.82 43.144C139.426 42.4827 139.228 41.6773 139.228 40.728V33.832H141.468ZM154.321 33.832C155.494 33.832 156.523 34.0613 157.409 34.52C158.305 34.9787 158.993 35.6347 159.473 36.488C159.963 37.3307 160.209 38.312 160.209 39.432C160.209 40.552 159.963 41.5333 159.473 42.376C158.993 43.208 158.305 43.8533 157.409 44.312C156.523 44.7707 155.494 45 154.321 45H150.417V33.832H154.321ZM154.241 43.096C155.414 43.096 156.321 42.776 156.961 42.136C157.601 41.496 157.921 40.5947 157.921 39.432C157.921 38.2693 157.601 37.3627 156.961 36.712C156.321 36.0507 155.414 35.72 154.241 35.72H152.657V43.096H154.241ZM164.125 33.832V45H161.885V33.832H164.125ZM173.938 33.832V35.64H170.962V45H168.722V35.64H165.746V33.832H173.938Z" fill="url(#paint0_linear_262_5752)"/>
<path d="M23.1 12H15C7.26801 12 1 18.268 1 26V52C1 59.732 7.26801 66 15 66H159.25C165.739 66 171 60.7393 171 54.25V54.25M77.925 12H158.8C165.538 12 171 17.4621 171 24.2V24.2" stroke="#51C14F" stroke-width="2" stroke-linecap="round"/>
<path d="M48 10H49C49.2652 10 49.5196 9.89464 49.7071 9.70711C49.8946 9.51957 50 9.26522 50 9C50 8.73478 49.8946 8.48043 49.7071 8.29289C49.5196 8.10536 49.2652 8 49 8H48C47.7348 8 47.4804 8.10536 47.2929 8.29289C47.1054 8.48043 47 8.73478 47 9C47 9.26522 47.1054 9.51957 47.2929 9.70711C47.4804 9.89464 47.7348 10 48 10ZM54 12H48C47.7348 12 47.4804 12.1054 47.2929 12.2929C47.1054 12.4804 47 12.7348 47 13C47 13.2652 47.1054 13.5196 47.2929 13.7071C47.4804 13.8946 47.7348 14 48 14H54C54.2652 14 54.5196 13.8946 54.7071 13.7071C54.8946 13.5196 55 13.2652 55 13C55 12.7348 54.8946 12.4804 54.7071 12.2929C54.5196 12.1054 54.2652 12 54 12ZM54 16H48C47.7348 16 47.4804 16.1054 47.2929 16.2929C47.1054 16.4804 47 16.7348 47 17C47 17.2652 47.1054 17.5196 47.2929 17.7071C47.4804 17.8946 47.7348 18 48 18H54C54.2652 18 54.5196 17.8946 54.7071 17.7071C54.8946 17.5196 55 17.2652 55 17C55 16.7348 54.8946 16.4804 54.7071 16.2929C54.5196 16.1054 54.2652 16 54 16ZM58.71 20.29C58.6625 20.247 58.6124 20.2069 58.56 20.17C58.5043 20.1322 58.4437 20.1019 58.38 20.08L58.2 20C58.005 19.9619 57.8031 19.9828 57.62 20.06C57.4959 20.1049 57.3832 20.1766 57.2899 20.2699C57.1966 20.3632 57.1249 20.4759 57.08 20.6C57.0209 20.7247 56.9934 20.8621 57 21C56.9983 21.1488 57.0297 21.296 57.0921 21.4311C57.1545 21.5662 57.2462 21.6856 57.3606 21.7807C57.475 21.8758 57.6092 21.9442 57.7534 21.9809C57.8976 22.0176 58.0481 22.0216 58.1941 21.9927C58.34 21.9638 58.4777 21.9028 58.597 21.8139C58.7164 21.7251 58.8144 21.6107 58.8839 21.4792C58.9535 21.3477 58.9928 21.2023 58.9991 21.0537C59.0053 20.905 58.9783 20.7569 58.92 20.62C58.8694 20.4988 58.7983 20.3872 58.71 20.29ZM59 8.94C58.9896 8.84813 58.9695 8.75763 58.94 8.67V8.58C58.8919 8.47718 58.8278 8.38267 58.75 8.3L52.75 2.3C52.6673 2.22222 52.5728 2.15808 52.47 2.11C52.4402 2.10576 52.4099 2.10576 52.38 2.11C52.2784 2.05174 52.1662 2.01434 52.05 2H46C45.2044 2 44.4413 2.31607 43.8787 2.87868C43.3161 3.44129 43 4.20435 43 5V19C43 19.7956 43.3161 20.5587 43.8787 21.1213C44.4413 21.6839 45.2044 22 46 22H54C54.2652 22 54.5196 21.8946 54.7071 21.7071C54.8946 21.5196 55 21.2652 55 21C55 20.7348 54.8946 20.4804 54.7071 20.2929C54.5196 20.1054 54.2652 20 54 20H46C45.7348 20 45.4804 19.8946 45.2929 19.7071C45.1054 19.5196 45 19.2652 45 19V5C45 4.73478 45.1054 4.48043 45.2929 4.29289C45.4804 4.10536 45.7348 4 46 4H51V7C51 7.79565 51.3161 8.55871 51.8787 9.12132C52.4413 9.68393 53.2044 10 54 10H57V12C57 12.2652 57.1054 12.5196 57.2929 12.7071C57.4804 12.8946 57.7348 13 58 13C58.2652 13 58.5196 12.8946 58.7071 12.7071C58.8946 12.5196 59 12.2652 59 12V9C59 9 59 9 59 8.94ZM54 8C53.7348 8 53.4804 7.89464 53.2929 7.70711C53.1054 7.51957 53 7.26522 53 7V5.41L55.59 8H54ZM58 15C57.7348 15 57.4804 15.1054 57.2929 15.2929C57.1054 15.4804 57 15.7348 57 16V18C57 18.2652 57.1054 18.5196 57.2929 18.7071C57.4804 18.8946 57.7348 19 58 19C58.2652 19 58.5196 18.8946 58.7071 18.7071C58.8946 18.5196 59 18.2652 59 18V16C59 15.7348 58.8946 15.4804 58.7071 15.2929C58.5196 15.1054 58.2652 15 58 15Z" fill="#51C14F"/>
<defs>
<linearGradient id="paint0_linear_262_5752" x1="95" y1="27" x2="95" y2="51" gradientUnits="userSpaceOnUse">
<stop stop-color="#DEF7DE"/>
<stop offset="1" stop-color="#51C14F"/>
</linearGradient>
</defs>
</svg>
