<svg width="45" height="49" viewBox="0 0 45 49" fill="none" xmlns="http://www.w3.org/2000/svg">
<g opacity="0.4" filter="url(#filter0_f_262_6234)">
<rect x="7" y="11.6667" width="30.3333" height="30.3333" rx="11.6667" fill="#51C14F"/>
</g>
<rect x="4" width="36" height="36" rx="11.6667" fill="#51C14F"/>
<path d="M22.3 18.22C22.8336 17.7581 23.2615 17.1869 23.5549 16.545C23.8482 15.9032 24 15.2057 24 14.5C24 13.1739 23.4732 11.9021 22.5355 10.9645C21.5979 10.0268 20.3261 9.5 19 9.5C17.6739 9.5 16.4021 10.0268 15.4645 10.9645C14.5268 11.9021 14 13.1739 14 14.5C14 15.2057 14.1518 15.9032 14.4451 16.545C14.7384 17.1869 15.1664 17.7581 15.7 18.22C14.3001 18.8539 13.1125 19.8775 12.279 21.1685C11.4455 22.4596 11.0015 23.9633 11 25.5C11 25.7652 11.1054 26.0196 11.2929 26.2071C11.4804 26.3946 11.7348 26.5 12 26.5C12.2652 26.5 12.5196 26.3946 12.7071 26.2071C12.8946 26.0196 13 25.7652 13 25.5C13 23.9087 13.6321 22.3826 14.7574 21.2574C15.8826 20.1321 17.4087 19.5 19 19.5C20.5913 19.5 22.1174 20.1321 23.2426 21.2574C24.3679 22.3826 25 23.9087 25 25.5C25 25.7652 25.1054 26.0196 25.2929 26.2071C25.4804 26.3946 25.7348 26.5 26 26.5C26.2652 26.5 26.5196 26.3946 26.7071 26.2071C26.8946 26.0196 27 25.7652 27 25.5C26.9985 23.9633 26.5545 22.4596 25.721 21.1685C24.8875 19.8775 23.6999 18.8539 22.3 18.22ZM19 17.5C18.4067 17.5 17.8266 17.3241 17.3333 16.9944C16.8399 16.6648 16.4554 16.1962 16.2284 15.648C16.0013 15.0999 15.9419 14.4967 16.0576 13.9147C16.1734 13.3328 16.4591 12.7982 16.8787 12.3787C17.2982 11.9591 17.8328 11.6734 18.4147 11.5576C18.9967 11.4419 19.5999 11.5013 20.148 11.7284C20.6962 11.9554 21.1648 12.3399 21.4944 12.8333C21.8241 13.3266 22 13.9067 22 14.5C22 15.2956 21.6839 16.0587 21.1213 16.6213C20.5587 17.1839 19.7956 17.5 19 17.5ZM28.74 17.82C29.38 17.0993 29.798 16.2091 29.9438 15.2563C30.0896 14.3036 29.9569 13.3291 29.5618 12.45C29.1666 11.5709 28.5258 10.8248 27.7165 10.3014C26.9071 9.77805 25.9638 9.49974 25 9.5C24.7348 9.5 24.4804 9.60536 24.2929 9.79289C24.1054 9.98043 24 10.2348 24 10.5C24 10.7652 24.1054 11.0196 24.2929 11.2071C24.4804 11.3946 24.7348 11.5 25 11.5C25.7956 11.5 26.5587 11.8161 27.1213 12.3787C27.6839 12.9413 28 13.7043 28 14.5C27.9986 15.0252 27.8593 15.5409 27.5961 15.9954C27.3328 16.4499 26.9549 16.8274 26.5 17.09C26.3517 17.1755 26.2279 17.2977 26.1404 17.4447C26.0528 17.5918 26.0045 17.7589 26 17.93C25.9958 18.0998 26.0349 18.2678 26.1137 18.4183C26.1924 18.5687 26.3081 18.6967 26.45 18.79L26.84 19.05L26.97 19.12C28.1754 19.6917 29.1923 20.596 29.901 21.7263C30.6096 22.8566 30.9805 24.1659 30.97 25.5C30.97 25.7652 31.0754 26.0196 31.2629 26.2071C31.4504 26.3946 31.7048 26.5 31.97 26.5C32.2352 26.5 32.4896 26.3946 32.6771 26.2071C32.8646 26.0196 32.97 25.7652 32.97 25.5C32.9782 23.9654 32.5938 22.4543 31.8535 21.1101C31.1131 19.7659 30.0413 18.6333 28.74 17.82Z" fill="#EFF7F4"/>
<defs>
<filter id="filter0_f_262_6234" x="-4.76837e-07" y="4.66666" width="44.333" height="44.3333" filterUnits="userSpaceOnUse" color-interpolation-filters="sRGB">
<feFlood flood-opacity="0" result="BackgroundImageFix"/>
<feBlend mode="normal" in="SourceGraphic" in2="BackgroundImageFix" result="shape"/>
<feGaussianBlur stdDeviation="3.5" result="effect1_foregroundBlur_262_6234"/>
</filter>
</defs>
</svg>
