<svg width="45" height="49" viewBox="0 0 45 49" fill="none" xmlns="http://www.w3.org/2000/svg">
<g opacity="0.4" filter="url(#filter0_f_262_6250)">
<rect x="7" y="11.6667" width="30.3333" height="30.3333" rx="11.6667" fill="#51C14F"/>
</g>
<rect x="4" width="36" height="36" rx="11.6667" fill="#51C14F"/>
<path d="M31.4899 15.19L30.4899 14.64L21.4899 9.64002H21.3799C21.3186 9.6141 21.255 9.59401 21.1899 9.58002H20.9999H20.8199C20.7516 9.59402 20.6846 9.6141 20.6199 9.64002H20.5099L11.5099 14.64C11.356 14.7272 11.228 14.8537 11.1389 15.0066C11.0499 15.1594 11.0029 15.3331 11.0029 15.51C11.0029 15.6869 11.0499 15.8606 11.1389 16.0135C11.228 16.1663 11.356 16.2928 11.5099 16.38L13.9999 17.76V22.5C13.9999 23.2957 14.3159 24.0587 14.8786 24.6213C15.4412 25.1839 16.2042 25.5 16.9999 25.5H24.9999C25.7955 25.5 26.5586 25.1839 27.1212 24.6213C27.6838 24.0587 27.9999 23.2957 27.9999 22.5V17.76L29.9999 16.64V19.5C29.9999 19.7652 30.1052 20.0196 30.2928 20.2071C30.4803 20.3947 30.7347 20.5 30.9999 20.5C31.2651 20.5 31.5194 20.3947 31.707 20.2071C31.8945 20.0196 31.9999 19.7652 31.9999 19.5V16.06C31.9996 15.8828 31.9522 15.7089 31.8626 15.556C31.773 15.4032 31.6443 15.2768 31.4899 15.19ZM25.9999 22.5C25.9999 22.7652 25.8945 23.0196 25.707 23.2071C25.5194 23.3947 25.2651 23.5 24.9999 23.5H16.9999C16.7347 23.5 16.4803 23.3947 16.2928 23.2071C16.1052 23.0196 15.9999 22.7652 15.9999 22.5V18.87L20.5099 21.37L20.6599 21.43H20.7499C20.8329 21.4405 20.9169 21.4405 20.9999 21.43C21.0829 21.4405 21.1669 21.4405 21.2499 21.43H21.3399C21.393 21.4188 21.4437 21.3985 21.4899 21.37L25.9999 18.87V22.5ZM20.9999 19.36L14.0599 15.5L20.9999 11.64L27.9399 15.5L20.9999 19.36Z" fill="#EFF7F4"/>
<defs>
<filter id="filter0_f_262_6250" x="-4.76837e-07" y="4.66669" width="44.333" height="44.3333" filterUnits="userSpaceOnUse" color-interpolation-filters="sRGB">
<feFlood flood-opacity="0" result="BackgroundImageFix"/>
<feBlend mode="normal" in="SourceGraphic" in2="BackgroundImageFix" result="shape"/>
<feGaussianBlur stdDeviation="3.5" result="effect1_foregroundBlur_262_6250"/>
</filter>
</defs>
</svg>
