<svg width="18" height="18" viewBox="0 0 18 18" fill="none" xmlns="http://www.w3.org/2000/svg">
<path d="M16.5 11.25H15V9C15 8.80109 14.921 8.61032 14.7803 8.46967C14.6397 8.32902 14.4489 8.25 14.25 8.25H9.75V6.75H11.25C11.4489 6.75 11.6397 6.67098 11.7803 6.53033C11.921 6.38968 12 6.19891 12 6V1.5C12 1.30109 11.921 1.11032 11.7803 0.96967C11.6397 0.829018 11.4489 0.75 11.25 0.75H6.75C6.55109 0.75 6.36032 0.829018 6.21967 0.96967C6.07902 1.11032 6 1.30109 6 1.5V6C6 6.19891 6.07902 6.38968 6.21967 6.53033C6.36032 6.67098 6.55109 6.75 6.75 6.75H8.25V8.25H3.75C3.55109 8.25 3.36032 8.32902 3.21967 8.46967C3.07902 8.61032 3 8.80109 3 9V11.25H1.5C1.30109 11.25 1.11032 11.329 0.96967 11.4697C0.829018 11.6103 0.75 11.8011 0.75 12V16.5C0.75 16.6989 0.829018 16.8897 0.96967 17.0303C1.11032 17.171 1.30109 17.25 1.5 17.25H6C6.19891 17.25 6.38968 17.171 6.53033 17.0303C6.67098 16.8897 6.75 16.6989 6.75 16.5V12C6.75 11.8011 6.67098 11.6103 6.53033 11.4697C6.38968 11.329 6.19891 11.25 6 11.25H4.5V9.75H13.5V11.25H12C11.8011 11.25 11.6103 11.329 11.4697 11.4697C11.329 11.6103 11.25 11.8011 11.25 12V16.5C11.25 16.6989 11.329 16.8897 11.4697 17.0303C11.6103 17.171 11.8011 17.25 12 17.25H16.5C16.6989 17.25 16.8897 17.171 17.0303 17.0303C17.171 16.8897 17.25 16.6989 17.25 16.5V12C17.25 11.8011 17.171 11.6103 17.0303 11.4697C16.8897 11.329 16.6989 11.25 16.5 11.25ZM5.25 12.75V15.75H2.25V12.75H5.25ZM7.5 5.25V2.25H10.5V5.25H7.5ZM15.75 15.75H12.75V12.75H15.75V15.75Z" fill="#51C14F"/>
</svg>
