<svg width="16" height="16" viewBox="0 0 16 16" fill="none" xmlns="http://www.w3.org/2000/svg">
<path d="M15.4996 2.81C15.5002 2.35266 15.3651 1.90543 15.1113 1.52497C14.8575 1.14451 14.4965 0.847943 14.074 0.672843C13.6516 0.497743 13.1866 0.451992 12.7381 0.541387C12.2896 0.630782 11.8777 0.851298 11.5546 1.175L9.44712 3.2825L4.57962 1.6625C4.45002 1.62177 4.3118 1.617 4.17971 1.6487C4.04761 1.6804 3.92661 1.74738 3.82962 1.8425L2.04462 3.6125C1.96004 3.69806 1.89729 3.80271 1.86165 3.91761C1.82602 4.03252 1.81855 4.15431 1.83987 4.27272C1.8612 4.39112 1.9107 4.50265 1.98419 4.5979C2.05768 4.69315 2.153 4.76933 2.26212 4.82L6.14712 6.5825L4.19712 8.5325L2.91462 7.8875C2.77615 7.81256 2.6176 7.78309 2.46145 7.80328C2.30531 7.82348 2.15947 7.8923 2.04462 8L0.717118 9.3575C0.57743 9.49802 0.499023 9.68811 0.499023 9.88625C0.499023 10.0844 0.57743 10.2745 0.717118 10.415L5.58462 15.2825C5.72514 15.4222 5.91523 15.5006 6.11337 15.5006C6.31151 15.5006 6.5016 15.4222 6.64212 15.2825L7.99962 13.955C8.11218 13.8436 8.18659 13.6994 8.21219 13.5431C8.23779 13.3869 8.21326 13.2265 8.14212 13.085L7.49712 11.8025L9.44712 9.8525L11.2096 13.7375C11.2603 13.8466 11.3365 13.9419 11.4317 14.0154C11.527 14.0889 11.6385 14.1384 11.7569 14.1597C11.8753 14.1811 11.9971 14.1736 12.112 14.138C12.2269 14.1023 12.3316 14.0396 12.4171 13.955L14.1871 12.185C14.2822 12.088 14.3492 11.967 14.3809 11.8349C14.4126 11.7028 14.4079 11.5646 14.3671 11.435L12.7471 6.5675L14.8246 4.445C15.04 4.23092 15.2107 3.9761 15.3266 3.69538C15.4424 3.41467 15.5013 3.11369 15.4996 2.81ZM13.7596 3.3875L11.3296 5.8175C11.2345 5.91449 11.1675 6.03549 11.1358 6.16759C11.1041 6.29968 11.1089 6.4379 11.1496 6.5675L12.7696 11.4275L12.0946 12.1025L10.3321 8.225C10.2821 8.11487 10.2062 8.01848 10.1108 7.94404C10.0155 7.8696 9.90359 7.81933 9.78462 7.7975C9.66467 7.7756 9.54119 7.78329 9.42488 7.81988C9.30856 7.85647 9.20293 7.92087 9.11712 8.0075L6.02712 11.1275C5.91618 11.2383 5.84277 11.3811 5.81721 11.5358C5.79165 11.6905 5.81523 11.8494 5.88462 11.99L6.49962 13.25L6.07962 13.67L2.30712 9.89L2.74962 9.5L4.03212 10.145C4.17274 10.2144 4.33157 10.238 4.48628 10.2124C4.64099 10.1868 4.78379 10.1134 4.89462 10.0025L7.99962 6.8825C8.0858 6.79699 8.14993 6.69185 8.18651 6.57609C8.22309 6.46034 8.23103 6.33743 8.20964 6.21793C8.18824 6.09844 8.13816 5.98592 8.0637 5.89004C7.98923 5.79416 7.89261 5.7178 7.78212 5.6675L3.87462 3.905L4.54962 3.23L9.40962 4.85C9.53921 4.89073 9.67744 4.8955 9.80953 4.8638C9.94162 4.83209 10.0626 4.76511 10.1596 4.67L12.5896 2.24C12.6644 2.16357 12.7536 2.10285 12.8521 2.0614C12.9507 2.01994 13.0565 1.99858 13.1634 1.99858C13.2703 1.99858 13.3761 2.01994 13.4746 2.0614C13.5731 2.10285 13.6624 2.16357 13.7371 2.24C13.8154 2.31248 13.8772 2.40082 13.9186 2.49911C13.96 2.5974 13.9799 2.70339 13.9771 2.81C13.9812 2.91589 13.964 3.02154 13.9267 3.12071C13.8893 3.21989 13.8325 3.31059 13.7596 3.3875Z" fill="#51C14F"/>
</svg>
