<svg width="16" height="16" viewBox="0 0 16 16" fill="none" xmlns="http://www.w3.org/2000/svg">
<path d="M15.2825 0.725053C15.142 0.585364 14.9519 0.506958 14.7537 0.506958C14.5556 0.506958 14.3655 0.585364 14.225 0.725053L11.69 3.20005L10.775 2.30005C10.6328 2.16081 10.4411 2.08378 10.242 2.08589C10.043 2.088 9.85299 2.16908 9.71375 2.3113C9.57451 2.45352 9.49747 2.64523 9.49958 2.84426C9.50169 3.04328 9.58278 3.23331 9.725 3.37255L11.165 4.78255C11.3052 4.91997 11.4937 4.99695 11.69 4.99695C11.8863 4.99695 12.0748 4.91997 12.215 4.78255L15.275 1.78255C15.4157 1.64302 15.4954 1.45349 15.4969 1.25535C15.4983 1.05721 15.4212 0.866563 15.2825 0.725053ZM13.25 5.75005C13.0511 5.75005 12.8603 5.82907 12.7197 5.96972C12.579 6.11037 12.5 6.30114 12.5 6.50005V9.79255L11.39 8.68255C11.1969 8.48822 10.9673 8.33399 10.7144 8.22874C10.4614 8.1235 10.1902 8.06932 9.91625 8.06932C9.6423 8.06932 9.37106 8.1235 9.11813 8.22874C8.8652 8.33399 8.63559 8.48822 8.4425 8.68255L7.9175 9.20755L6.0575 7.34005C5.66557 6.95121 5.13584 6.73302 4.58375 6.73302C4.03166 6.73302 3.50193 6.95121 3.11 7.34005L2 8.45005V4.25005C2 4.05114 2.07902 3.86037 2.21967 3.71972C2.36032 3.57907 2.55109 3.50005 2.75 3.50005H7.25C7.44891 3.50005 7.63968 3.42103 7.78033 3.28038C7.92098 3.13973 8 2.94896 8 2.75005C8 2.55114 7.92098 2.36037 7.78033 2.21972C7.63968 2.07907 7.44891 2.00005 7.25 2.00005H2.75C2.15326 2.00005 1.58097 2.23711 1.15901 2.65906C0.737053 3.08102 0.5 3.65332 0.5 4.25005V13.2501C0.5 13.8468 0.737053 14.4191 1.15901 14.841C1.58097 15.263 2.15326 15.5001 2.75 15.5001H11.75C12.3467 15.5001 12.919 15.263 13.341 14.841C13.7629 14.4191 14 13.8468 14 13.2501V6.50005C14 6.30114 13.921 6.11037 13.7803 5.96972C13.6397 5.82907 13.4489 5.75005 13.25 5.75005ZM2.75 14.0001C2.55109 14.0001 2.36032 13.921 2.21967 13.7804C2.07902 13.6397 2 13.449 2 13.2501V10.5726L4.175 8.39755C4.28518 8.29255 4.43155 8.23398 4.58375 8.23398C4.73595 8.23398 4.88232 8.29255 4.9925 8.39755L7.37 10.7751L10.5875 14.0001H2.75ZM12.5 13.2501C12.4989 13.3936 12.4516 13.533 12.365 13.6476L8.9825 10.2501L9.5075 9.72505C9.61711 9.61605 9.76542 9.55486 9.92 9.55486C10.0746 9.55486 10.2229 9.61605 10.3325 9.72505L12.5 11.9151V13.2501Z" fill="#51C14F"/>
</svg>
