<svg width="95" height="82" viewBox="0 0 95 82" fill="none" xmlns="http://www.w3.org/2000/svg">
<path d="M3.8 1.9C3.8 2.9 3 3.8 1.9 3.8C0.8 3.8 0 2.9 0 1.9C0 0.8 0.8 0 1.9 0C2.9 0 3.8 0.8 3.8 1.9Z" fill="#44937D"/>
<path d="M20.1 3.8C21.1493 3.8 22 2.94934 22 1.9C22 0.850659 21.1493 0 20.1 0C19.0507 0 18.2 0.850659 18.2 1.9C18.2 2.94934 19.0507 3.8 20.1 3.8Z" fill="#44937D"/>
<path d="M40.1 1.9C40.1 2.9 39.3 3.8 38.2 3.8C37.2 3.8 36.3 3 36.3 1.9C36.3 0.9 37.1 0 38.2 0C39.3 0 40.1 0.8 40.1 1.9Z" fill="#44937D"/>
<path d="M56.4 3.8C57.4493 3.8 58.3 2.94934 58.3 1.9C58.3 0.850659 57.4493 0 56.4 0C55.3507 0 54.5 0.850659 54.5 1.9C54.5 2.94934 55.3507 3.8 56.4 3.8Z" fill="#44937D"/>
<path d="M76.5 1.9C76.5 2.9 75.7 3.8 74.6 3.8C73.6 3.8 72.7 3 72.7 1.9C72.7 0.9 73.5 0 74.6 0C75.6 0 76.5 0.8 76.5 1.9Z" fill="#44937D"/>
<path d="M94.6 1.9C94.6 2.9 93.8 3.8 92.7 3.8C91.7 3.8 90.8 3 90.8 1.9C90.8 0.9 91.6 0 92.7 0C93.8 0 94.6 0.8 94.6 1.9Z" fill="#44937D"/>
<path d="M3.8 17.5C3.8 18.5 3 19.4 1.9 19.4C0.9 19.4 0 18.6 0 17.5C0 16.5 0.8 15.6 1.9 15.6C2.9 15.6 3.8 16.5 3.8 17.5Z" fill="#44937D"/>
<path d="M20.1 19.4C21.1493 19.4 22 18.5493 22 17.5C22 16.4507 21.1493 15.6 20.1 15.6C19.0507 15.6 18.2 16.4507 18.2 17.5C18.2 18.5493 19.0507 19.4 20.1 19.4Z" fill="#44937D"/>
<path d="M40.1 17.5C40.1 18.5 39.3 19.4 38.2 19.4C37.2 19.4 36.3 18.6 36.3 17.5C36.3 16.5 37.1 15.6 38.2 15.6C39.3 15.6 40.1 16.5 40.1 17.5Z" fill="#44937D"/>
<path d="M56.4 19.4C57.4493 19.4 58.3 18.5493 58.3 17.5C58.3 16.4507 57.4493 15.6 56.4 15.6C55.3507 15.6 54.5 16.4507 54.5 17.5C54.5 18.5493 55.3507 19.4 56.4 19.4Z" fill="#44937D"/>
<path d="M76.5 17.5C76.5 18.5 75.7 19.4 74.6 19.4C73.6 19.4 72.7 18.6 72.7 17.5C72.7 16.5 73.5 15.6 74.6 15.6C75.6 15.6 76.5 16.5 76.5 17.5Z" fill="#44937D"/>
<path d="M94.6 17.5C94.6 18.5 93.8 19.4 92.7 19.4C91.7 19.4 90.8 18.6 90.8 17.5C90.8 16.5 91.6 15.6 92.7 15.6C93.8 15.6 94.6 16.5 94.6 17.5Z" fill="#44937D"/>
<path d="M3.8 33.2C3.8 34.2 3 35.1 1.9 35.1C0.9 35.1 0 34.3 0 33.2C0 32.2 0.8 31.3 1.9 31.3C2.9 31.3 3.8 32.1 3.8 33.2Z" fill="#44937D"/>
<path d="M22 33.2C22 34.2 21.2 35.1 20.1 35.1C19.1 35.1 18.2 34.3 18.2 33.2C18.2 32.2 19 31.3 20.1 31.3C21.1 31.3 22 32.1 22 33.2Z" fill="#44937D"/>
<path d="M40.1 33.2C40.1 34.2 39.3 35.1 38.2 35.1C37.2 35.1 36.3 34.3 36.3 33.2C36.3 32.2 37.1 31.3 38.2 31.3C39.3 31.3 40.1 32.1 40.1 33.2Z" fill="#44937D"/>
<path d="M58.3 33.2C58.3 34.2 57.5 35.1 56.4 35.1C55.4 35.1 54.5 34.3 54.5 33.2C54.5 32.2 55.3 31.3 56.4 31.3C57.5 31.3 58.3 32.1 58.3 33.2Z" fill="#44937D"/>
<path d="M76.5 33.2C76.5 34.2 75.7 35.1 74.6 35.1C73.6 35.1 72.7 34.3 72.7 33.2C72.7 32.2 73.5 31.3 74.6 31.3C75.6 31.3 76.5 32.1 76.5 33.2Z" fill="#44937D"/>
<path d="M94.6 33.2C94.6 34.2 93.8 35.1 92.7 35.1C91.7 35.1 90.8 34.3 90.8 33.2C90.8 32.2 91.6 31.3 92.7 31.3C93.8 31.3 94.6 32.1 94.6 33.2Z" fill="#44937D"/>
<path d="M3.8 48.8C3.8 49.8 3 50.7 1.9 50.7C0.9 50.7 0 49.9 0 48.8C0 47.8 0.8 46.9 1.9 46.9C2.9 46.9 3.8 47.7 3.8 48.8Z" fill="#44937D"/>
<path d="M22 48.8C22 49.8 21.2 50.7 20.1 50.7C19.1 50.7 18.2 49.9 18.2 48.8C18.2 47.8 19 46.9 20.1 46.9C21.1 46.9 22 47.7 22 48.8Z" fill="#44937D"/>
<path d="M40.1 48.8C40.1 49.8 39.3 50.7 38.2 50.7C37.2 50.7 36.3 49.9 36.3 48.8C36.3 47.8 37.1 46.9 38.2 46.9C39.3 46.9 40.1 47.7 40.1 48.8Z" fill="#44937D"/>
<path d="M58.3 48.8C58.3 49.8 57.5 50.7 56.4 50.7C55.4 50.7 54.5 49.9 54.5 48.8C54.5 47.8 55.3 46.9 56.4 46.9C57.5 46.9 58.3 47.7 58.3 48.8Z" fill="#44937D"/>
<path d="M76.5 48.8C76.5 49.8 75.7 50.7 74.6 50.7C73.6 50.7 72.7 49.9 72.7 48.8C72.7 47.8 73.5 46.9 74.6 46.9C75.6 46.9 76.5 47.7 76.5 48.8Z" fill="#44937D"/>
<path d="M94.6 48.8C94.6 49.8 93.8 50.7 92.7 50.7C91.7 50.7 90.8 49.9 90.8 48.8C90.8 47.8 91.6 46.9 92.7 46.9C93.8 46.9 94.6 47.7 94.6 48.8Z" fill="#44937D"/>
<path d="M3.8 64.4C3.8 65.4 3 66.3 1.9 66.3C0.9 66.3 0 65.5 0 64.4C0 63.4 0.8 62.5 1.9 62.5C2.9 62.5 3.8 63.4 3.8 64.4Z" fill="#44937D"/>
<path d="M20.1 66.3C21.1493 66.3 22 65.4493 22 64.4C22 63.3507 21.1493 62.5 20.1 62.5C19.0507 62.5 18.2 63.3507 18.2 64.4C18.2 65.4493 19.0507 66.3 20.1 66.3Z" fill="#44937D"/>
<path d="M40.1 64.4C40.1 65.4 39.3 66.3 38.2 66.3C37.2 66.3 36.3 65.5 36.3 64.4C36.3 63.4 37.1 62.5 38.2 62.5C39.3 62.5 40.1 63.4 40.1 64.4Z" fill="#44937D"/>
<path d="M56.4 66.3C57.4493 66.3 58.3 65.4493 58.3 64.4C58.3 63.3507 57.4493 62.5 56.4 62.5C55.3507 62.5 54.5 63.3507 54.5 64.4C54.5 65.4493 55.3507 66.3 56.4 66.3Z" fill="#44937D"/>
<path d="M76.5 64.4C76.5 65.4 75.7 66.3 74.6 66.3C73.6 66.3 72.7 65.5 72.7 64.4C72.7 63.4 73.5 62.5 74.6 62.5C75.6 62.5 76.5 63.4 76.5 64.4Z" fill="#44937D"/>
<path d="M94.6 64.4C94.6 65.4 93.8 66.3 92.7 66.3C91.7 66.3 90.8 65.5 90.8 64.4C90.8 63.4 91.6 62.5 92.7 62.5C93.8 62.5 94.6 63.4 94.6 64.4Z" fill="#44937D"/>
<path d="M3.8 80C3.8 81 3 81.9 1.9 81.9C0.9 81.9 0 81.1 0 80C0 79 0.8 78.1 1.9 78.1C2.9 78.1 3.8 79 3.8 80Z" fill="#44937D"/>
<path d="M22 80C22 81 21.2 81.9 20.1 81.9C19.1 81.9 18.2 81.1 18.2 80C18.2 79 19 78.1 20.1 78.1C21.1 78.1 22 79 22 80Z" fill="#44937D"/>
<path d="M40.1 80C40.1 81 39.3 81.9 38.2 81.9C37.2 81.9 36.3 81.1 36.3 80C36.3 79 37.1 78.1 38.2 78.1C39.3 78.1 40.1 79 40.1 80Z" fill="#44937D"/>
<path d="M58.3 80C58.3 81 57.5 81.9 56.4 81.9C55.4 81.9 54.5 81.1 54.5 80C54.5 79 55.3 78.1 56.4 78.1C57.5 78.1 58.3 79 58.3 80Z" fill="#44937D"/>
<path d="M76.5 80C76.5 81 75.7 81.9 74.6 81.9C73.6 81.9 72.7 81.1 72.7 80C72.7 79 73.5 78.1 74.6 78.1C75.6 78.1 76.5 79 76.5 80Z" fill="#44937D"/>
<path d="M94.6 80C94.6 81 93.8 81.9 92.7 81.9C91.7 81.9 90.8 81.1 90.8 80C90.8 79 91.6 78.1 92.7 78.1C93.8 78.1 94.6 79 94.6 80Z" fill="#44937D"/>
</svg>
