<svg width="45" height="49" viewBox="0 0 45 49" fill="none" xmlns="http://www.w3.org/2000/svg">
<g opacity="0.4" filter="url(#filter0_f_262_6230)">
<rect x="7" y="11.6667" width="30.3333" height="30.3333" rx="11.6667" fill="#51C14F"/>
</g>
<rect x="4" width="36" height="36" rx="11.6667" fill="#51C14F"/>
<path d="M31 8C30.7348 8 30.4804 8.10536 30.2929 8.29289C30.1054 8.48043 30 8.73478 30 9V11H28V9C28 8.73478 27.8946 8.48043 27.7071 8.29289C27.5196 8.10536 27.2652 8 27 8C26.7348 8 26.4804 8.10536 26.2929 8.29289C26.1054 8.48043 26 8.73478 26 9V10H18V9C18 8.73478 17.8946 8.48043 17.7071 8.29289C17.5196 8.10536 17.2652 8 17 8C16.7348 8 16.4804 8.10536 16.2929 8.29289C16.1054 8.48043 16 8.73478 16 9V11H14V9C14 8.73478 13.8946 8.48043 13.7071 8.29289C13.5196 8.10536 13.2652 8 13 8C12.7348 8 12.4804 8.10536 12.2929 8.29289C12.1054 8.48043 12 8.73478 12 9V27C12 27.2652 12.1054 27.5196 12.2929 27.7071C12.4804 27.8946 12.7348 28 13 28C13.2652 28 13.5196 27.8946 13.7071 27.7071C13.8946 27.5196 14 27.2652 14 27V25H16V27C16 27.2652 16.1054 27.5196 16.2929 27.7071C16.4804 27.8946 16.7348 28 17 28C17.2652 28 17.5196 27.8946 17.7071 27.7071C17.8946 27.5196 18 27.2652 18 27V26H26V27C26 27.2652 26.1054 27.5196 26.2929 27.7071C26.4804 27.8946 26.7348 28 27 28C27.2652 28 27.5196 27.8946 27.7071 27.7071C27.8946 27.5196 28 27.2652 28 27V25H30V27C30 27.2652 30.1054 27.5196 30.2929 27.7071C30.4804 27.8946 30.7348 28 31 28C31.2652 28 31.5196 27.8946 31.7071 27.7071C31.8946 27.5196 32 27.2652 32 27V9C32 8.73478 31.8946 8.48043 31.7071 8.29289C31.5196 8.10536 31.2652 8 31 8V8ZM16 23H14V21H16V23ZM16 19H14V17H16V19ZM16 15H14V13H16V15ZM26 24H18V19H26V24ZM26 17H18V12H26V17ZM30 23H28V21H30V23ZM30 19H28V17H30V19ZM30 15H28V13H30V15Z" fill="#EFF7F4"/>
<defs>
<filter id="filter0_f_262_6230" x="-4.76837e-07" y="4.66666" width="44.333" height="44.3333" filterUnits="userSpaceOnUse" color-interpolation-filters="sRGB">
<feFlood flood-opacity="0" result="BackgroundImageFix"/>
<feBlend mode="normal" in="SourceGraphic" in2="BackgroundImageFix" result="shape"/>
<feGaussianBlur stdDeviation="3.5" result="effect1_foregroundBlur_262_6230"/>
</filter>
</defs>
</svg>
