<svg width="1920" height="484" viewBox="0 0 1920 484" fill="none" xmlns="http://www.w3.org/2000/svg">
<path opacity="0.125" d="M-90.1641 341.29C161.583 337.713 189.402 287.997 352.884 305.165C516.708 322.333 650.996 387.071 833.024 353.451C1016.77 320.187 1111.9 175.331 1231.08 227.551C1350.26 279.771 1373.27 372.765 1476.65 364.181C1580.02 355.954 1685.12 264.749 1766.86 264.033C1837.27 263.318 1770.98 345.582 1964.34 340.932" stroke="#51C14F" stroke-opacity="0.23" stroke-width="0.75" stroke-miterlimit="10"/>
<path opacity="0.25" d="M-196.6895 347.728C155.058 344.151 183.221 244.719 347.045 261.887C510.87 279.055 632.107 400.663 814.478 372.05C1000.63 343.794 1079.96 143.499 1199.14 195.719C1318.32 247.938 1331.71 384.568 1435.09 376.342C1538.47 368.115 1638.41 251.157 1731.14 252.588C1801.55 253.661 1780.6 370.619 1973.61 351.663" stroke="#51C14F" stroke-opacity="0.23" stroke-width="0.75" stroke-miterlimit="10"/>
<path opacity="0.375" d="M-102.872 354.166C148.875 350.589 177.381 201.084 341.206 218.252C505.031 235.42 613.56 413.897 796.274 390.648C984.827 367.4 1048.02 111.666 1167.2 164.244C1286.37 216.463 1290.5 397.087 1393.87 388.502C1497.25 380.276 1591.7 238.281 1696.11 241.143C1766.51 243.289 1790.56 395.656 1983.92 362.393" stroke="#51C14F" stroke-opacity="0.23" stroke-width="0.75" stroke-miterlimit="10"/>
<path opacity="0.5" d="M-109.398 360.604C142.35 357.027 171.2 157.805 335.024 174.974C498.849 192.142 594.327 427.13 777.385 409.247C968.342 390.648 1015.39 80.1913 1134.57 132.411C1253.75 184.631 1248.25 408.889 1351.63 400.663C1455.01 392.437 1544.3 225.405 1660.05 230.055C1730.11 232.916 1799.83 421.408 1992.85 373.123" stroke="#51C14F" stroke-opacity="0.23" stroke-width="0.75" stroke-miterlimit="10"/>
<path opacity="0.625" d="M-115.579 367.042C136.168 363.465 165.705 114.17 329.529 131.338C493.354 148.506 575.781 440.722 759.526 427.488C952.887 414.254 984.141 48.0008 1103.32 100.578C1222.49 152.798 1207.38 421.05 1310.76 412.824C1414.14 404.597 1498.28 212.171 1625.01 218.609C1695.08 222.186 1809.79 446.445 2002.81 383.853" stroke="#51C14F" stroke-opacity="0.23" stroke-width="0.75" stroke-miterlimit="10"/>
<path opacity="0.75" d="M-122.105 373.48C129.643 369.903 159.523 70.534 323.347 88.0598C487.172 105.228 556.549 454.313 740.637 446.087C936.402 438.218 951.514 16.5261 1070.69 68.7458C1189.87 120.966 1165.48 433.211 1268.86 424.627C1372.24 416.4 1450.89 198.938 1589.3 206.806C1659.36 211.098 1819.41 471.482 2012.42 394.225" stroke="#51C14F" stroke-opacity="0.23" stroke-width="0.75" stroke-miterlimit="10"/>
<path opacity="0.875" d="M-128.287 379.918C123.46 376.342 153.684 27.2562 317.508 44.4244C481.333 61.5925 537.658 467.547 722.433 464.328C920.603 461.467 919.572 -15.664 1038.75 36.5558C1157.93 88.7755 1123.92 444.657 1227.3 436.43C1330.68 428.204 1404.18 184.989 1553.92 195.361C1623.98 200.011 1829.02 496.519 2022.04 404.598" stroke="#51C14F" stroke-opacity="0.23" stroke-width="0.75" stroke-miterlimit="10"/>
<path d="M-134.813 386.356C116.935 382.779 147.845 -16.3797 311.326 1.14618C475.151 18.3143 518.425 481.138 703.544 482.927C904.117 485.073 887.289 -47.4968 1006.46 5.08066C1125.64 57.3004 1082.37 457.175 1185.74 448.591C1289.12 440.364 1357.47 171.755 1518.55 183.915C1588.61 189.28 1838.98 521.555 2032 415.328" stroke="#51C14F" stroke-opacity="0.23" stroke-width="0.75" stroke-miterlimit="10"/>
</svg>
