<svg width="152" height="61" viewBox="0 0 152 61" fill="none" xmlns="http://www.w3.org/2000/svg">
<path d="M32.0981 32.168C31.8741 31.7573 31.5661 31.4447 31.1741 31.23C30.7821 31.0153 30.3248 30.908 29.8021 30.908C29.2235 30.908 28.7101 31.0387 28.2621 31.3C27.8141 31.5613 27.4641 31.9347 27.2121 32.42C26.9601 32.9053 26.8341 33.4653 26.8341 34.1C26.8341 34.7533 26.9601 35.3227 27.2121 35.808C27.4735 36.2933 27.8328 36.6667 28.2901 36.928C28.7475 37.1893 29.2795 37.32 29.8861 37.32C30.6328 37.32 31.2441 37.124 31.7201 36.732C32.1961 36.3307 32.5088 35.7753 32.6581 35.066H29.2981V33.568H34.5901V35.276C34.4595 35.9573 34.1795 36.5873 33.7501 37.166C33.3208 37.7447 32.7655 38.2113 32.0841 38.566C31.4121 38.9113 30.6561 39.084 29.8161 39.084C28.8735 39.084 28.0195 38.874 27.2541 38.454C26.4981 38.0247 25.9008 37.432 25.4621 36.676C25.0328 35.92 24.8181 35.0613 24.8181 34.1C24.8181 33.1387 25.0328 32.28 25.4621 31.524C25.9008 30.7587 26.4981 30.166 27.2541 29.746C28.0195 29.3167 28.8688 29.102 29.8021 29.102C30.9035 29.102 31.8601 29.3727 32.6721 29.914C33.4841 30.446 34.0441 31.1973 34.3521 32.168H32.0981ZM40.5762 39.098C39.6616 39.098 38.8216 38.8833 38.0562 38.454C37.2909 38.0247 36.6842 37.432 36.2362 36.676C35.7882 35.9107 35.5642 35.0473 35.5642 34.086C35.5642 33.134 35.7882 32.28 36.2362 31.524C36.6842 30.7587 37.2909 30.1613 38.0562 29.732C38.8216 29.3027 39.6616 29.088 40.5762 29.088C41.5002 29.088 42.3402 29.3027 43.0962 29.732C43.8616 30.1613 44.4636 30.7587 44.9022 31.524C45.3502 32.28 45.5742 33.134 45.5742 34.086C45.5742 35.0473 45.3502 35.9107 44.9022 36.676C44.4636 37.432 43.8616 38.0247 43.0962 38.454C42.3309 38.8833 41.4909 39.098 40.5762 39.098ZM40.5762 37.348C41.1642 37.348 41.6822 37.2173 42.1302 36.956C42.5782 36.6853 42.9282 36.3027 43.1802 35.808C43.4322 35.3133 43.5582 34.7393 43.5582 34.086C43.5582 33.4327 43.4322 32.8633 43.1802 32.378C42.9282 31.8833 42.5782 31.5053 42.1302 31.244C41.6822 30.9827 41.1642 30.852 40.5762 30.852C39.9882 30.852 39.4656 30.9827 39.0082 31.244C38.5602 31.5053 38.2102 31.8833 37.9582 32.378C37.7062 32.8633 37.5802 33.4327 37.5802 34.086C37.5802 34.7393 37.7062 35.3133 37.9582 35.808C38.2102 36.3027 38.5602 36.6853 39.0082 36.956C39.4656 37.2173 39.9882 37.348 40.5762 37.348ZM57.0183 29.228V30.81H54.4143V39H52.4543V30.81H49.8503V29.228H57.0183ZM62.9844 39.098C62.0698 39.098 61.2298 38.8833 60.4644 38.454C59.6991 38.0247 59.0924 37.432 58.6444 36.676C58.1964 35.9107 57.9724 35.0473 57.9724 34.086C57.9724 33.134 58.1964 32.28 58.6444 31.524C59.0924 30.7587 59.6991 30.1613 60.4644 29.732C61.2298 29.3027 62.0698 29.088 62.9844 29.088C63.9084 29.088 64.7484 29.3027 65.5044 29.732C66.2698 30.1613 66.8718 30.7587 67.3104 31.524C67.7584 32.28 67.9824 33.134 67.9824 34.086C67.9824 35.0473 67.7584 35.9107 67.3104 36.676C66.8718 37.432 66.2698 38.0247 65.5044 38.454C64.7391 38.8833 63.8991 39.098 62.9844 39.098ZM62.9844 37.348C63.5724 37.348 64.0904 37.2173 64.5384 36.956C64.9864 36.6853 65.3364 36.3027 65.5884 35.808C65.8404 35.3133 65.9664 34.7393 65.9664 34.086C65.9664 33.4327 65.8404 32.8633 65.5884 32.378C65.3364 31.8833 64.9864 31.5053 64.5384 31.244C64.0904 30.9827 63.5724 30.852 62.9844 30.852C62.3964 30.852 61.8738 30.9827 61.4164 31.244C60.9684 31.5053 60.6184 31.8833 60.3664 32.378C60.1144 32.8633 59.9884 33.4327 59.9884 34.086C59.9884 34.7393 60.1144 35.3133 60.3664 35.808C60.6184 36.3027 60.9684 36.6853 61.4164 36.956C61.8738 37.2173 62.3964 37.348 62.9844 37.348ZM79.4265 29.228V30.81H76.8225V39H74.8625V30.81H72.2585V29.228H79.4265ZM88.9626 29.228V39H87.0026V34.842H82.8166V39H80.8566V29.228H82.8166V33.246H87.0026V29.228H88.9626ZM92.8518 30.81V33.26H96.1418V34.814H92.8518V37.404H96.5618V39H90.8918V29.214H96.5618V30.81H92.8518ZM105.053 39.098C104.372 39.098 103.756 38.9813 103.205 38.748C102.664 38.5147 102.234 38.1787 101.917 37.74C101.6 37.3013 101.436 36.7833 101.427 36.186H103.527C103.555 36.5873 103.695 36.9047 103.947 37.138C104.208 37.3713 104.563 37.488 105.011 37.488C105.468 37.488 105.828 37.3807 106.089 37.166C106.35 36.942 106.481 36.6527 106.481 36.298C106.481 36.0087 106.392 35.7707 106.215 35.584C106.038 35.3973 105.814 35.2527 105.543 35.15C105.282 35.038 104.918 34.9167 104.451 34.786C103.816 34.5993 103.298 34.4173 102.897 34.24C102.505 34.0533 102.164 33.778 101.875 33.414C101.595 33.0407 101.455 32.546 101.455 31.93C101.455 31.3513 101.6 30.8473 101.889 30.418C102.178 29.9887 102.584 29.662 103.107 29.438C103.63 29.2047 104.227 29.088 104.899 29.088C105.907 29.088 106.724 29.3353 107.349 29.83C107.984 30.3153 108.334 30.9967 108.399 31.874H106.243C106.224 31.538 106.08 31.2627 105.809 31.048C105.548 30.824 105.198 30.712 104.759 30.712C104.376 30.712 104.068 30.81 103.835 31.006C103.611 31.202 103.499 31.4867 103.499 31.86C103.499 32.1213 103.583 32.3407 103.751 32.518C103.928 32.686 104.143 32.826 104.395 32.938C104.656 33.0407 105.02 33.162 105.487 33.302C106.122 33.4887 106.64 33.6753 107.041 33.862C107.442 34.0487 107.788 34.3287 108.077 34.702C108.366 35.0753 108.511 35.5653 108.511 36.172C108.511 36.6947 108.376 37.18 108.105 37.628C107.834 38.076 107.438 38.4353 106.915 38.706C106.392 38.9673 105.772 39.098 105.053 39.098ZM112.17 29.228V39H110.21V29.228H112.17ZM120.757 29.228V30.81H118.153V39H116.193V30.81H113.589V29.228H120.757ZM124.147 30.81V33.26H127.437V34.814H124.147V37.404H127.857V39H122.187V29.214H127.857V30.81H124.147Z" fill="#EFF7F4"/>
<path d="M20.7802 10H15C7.26802 10 1 16.268 1 24V46C1 53.732 7.26801 60 15 60H137C144.732 60 151 53.732 151 46V24C151 16.268 144.732 10 137 10H66.1099" stroke="#EFF7F4" stroke-width="2" stroke-linecap="round"/>
<g clip-path="url(#clip0_332_5310)">
<path d="M41.5 3.75C41.3517 3.75 41.2067 3.79399 41.0833 3.8764C40.96 3.95881 40.8639 4.07594 40.8071 4.21299C40.7503 4.35003 40.7355 4.50083 40.7644 4.64632C40.7933 4.7918 40.8648 4.92544 40.9697 5.03033C41.0746 5.13522 41.2082 5.20665 41.3537 5.23559C41.4992 5.26453 41.65 5.24968 41.787 5.19291C41.9241 5.13614 42.0412 5.04001 42.1236 4.91668C42.206 4.79334 42.25 4.64834 42.25 4.5C42.25 4.30109 42.171 4.11032 42.0303 3.96967C41.8897 3.82902 41.6989 3.75 41.5 3.75ZM38.5 3.75C38.3517 3.75 38.2067 3.79399 38.0833 3.8764C37.96 3.95881 37.8639 4.07594 37.8071 4.21299C37.7503 4.35003 37.7355 4.50083 37.7644 4.64632C37.7933 4.7918 37.8648 4.92544 37.9697 5.03033C38.0746 5.13522 38.2082 5.20665 38.3537 5.23559C38.4992 5.26453 38.65 5.24968 38.787 5.19291C38.9241 5.13614 39.0412 5.04001 39.1236 4.91668C39.206 4.79334 39.25 4.64834 39.25 4.5C39.25 4.30109 39.171 4.11032 39.0303 3.96967C38.8897 3.82902 38.6989 3.75 38.5 3.75ZM44.5 3.75C44.3517 3.75 44.2067 3.79399 44.0833 3.8764C43.96 3.95881 43.8639 4.07594 43.8071 4.21299C43.7503 4.35003 43.7355 4.50083 43.7644 4.64632C43.7934 4.7918 43.8648 4.92544 43.9697 5.03033C44.0746 5.13522 44.2082 5.20665 44.3537 5.23559C44.4992 5.26453 44.65 5.24968 44.787 5.19291C44.9241 5.13614 45.0412 5.04001 45.1236 4.91668C45.206 4.79334 45.25 4.64834 45.25 4.5C45.25 4.30109 45.171 4.11032 45.0303 3.96967C44.8897 3.82902 44.6989 3.75 44.5 3.75ZM49 0.75H37C36.4033 0.75 35.831 0.987053 35.409 1.40901C34.9871 1.83097 34.75 2.40326 34.75 3V15C34.75 15.5967 34.9871 16.169 35.409 16.591C35.831 17.0129 36.4033 17.25 37 17.25H49C49.5967 17.25 50.169 17.0129 50.591 16.591C51.0129 16.169 51.25 15.5967 51.25 15V3C51.25 2.40326 51.0129 1.83097 50.591 1.40901C50.169 0.987053 49.5967 0.75 49 0.75ZM49.75 15C49.75 15.1989 49.671 15.3897 49.5303 15.5303C49.3897 15.671 49.1989 15.75 49 15.75H37C36.8011 15.75 36.6103 15.671 36.4697 15.5303C36.329 15.3897 36.25 15.1989 36.25 15V8.25H49.75V15ZM49.75 6.75H36.25V3C36.25 2.80109 36.329 2.61032 36.4697 2.46967C36.6103 2.32902 36.8011 2.25 37 2.25H49C49.1989 2.25 49.3897 2.32902 49.5303 2.46967C49.671 2.61032 49.75 2.80109 49.75 3V6.75Z" fill="#51C14F"/>
</g>
<defs>
<clipPath id="clip0_332_5310">
<rect width="18" height="18" fill="white" transform="translate(34)"/>
</clipPath>
</defs>
</svg>
