<svg width="28" height="20" viewBox="0 0 28 20" fill="none" xmlns="http://www.w3.org/2000/svg">
<g clip-path="url(#clip0_332_5388)">
<rect width="28" height="20" rx="3" fill="white"/>
<path fill-rule="evenodd" clip-rule="evenodd" d="M0 0H12V9.33333H0V0Z" fill="#1A47B8"/>
<path fill-rule="evenodd" clip-rule="evenodd" d="M12 0V1.33333H28V0H12ZM12 2.66667V4H28V2.66667H12ZM12 5.33333V6.66667H28V5.33333H12ZM12 8V9.33333H28V8H12ZM0 10.6667V12H28V10.6667H0ZM0 13.3333V14.6667H28V13.3333H0ZM0 16V17.3333H28V16H0ZM0 18.6667V20H28V18.6667H0Z" fill="#F93939"/>
<path fill-rule="evenodd" clip-rule="evenodd" d="M1.33301 1.33325V2.66659H2.66634V1.33325H1.33301ZM3.99967 1.33325V2.66659H5.33301V1.33325H3.99967ZM6.66634 1.33325V2.66659H7.99967V1.33325H6.66634ZM9.33301 1.33325V2.66659H10.6663V1.33325H9.33301ZM7.99967 2.66659V3.99992H9.33301V2.66659H7.99967ZM5.33301 2.66659V3.99992H6.66634V2.66659H5.33301ZM2.66634 2.66659V3.99992H3.99967V2.66659H2.66634ZM1.33301 3.99992V5.33325H2.66634V3.99992H1.33301ZM3.99967 3.99992V5.33325H5.33301V3.99992H3.99967ZM6.66634 3.99992V5.33325H7.99967V3.99992H6.66634ZM9.33301 3.99992V5.33325H10.6663V3.99992H9.33301ZM1.33301 6.66658V7.99992H2.66634V6.66658H1.33301ZM3.99967 6.66658V7.99992H5.33301V6.66658H3.99967ZM6.66634 6.66658V7.99992H7.99967V6.66658H6.66634ZM9.33301 6.66658V7.99992H10.6663V6.66658H9.33301ZM7.99967 5.33325V6.66658H9.33301V5.33325H7.99967ZM5.33301 5.33325V6.66658H6.66634V5.33325H5.33301ZM2.66634 5.33325V6.66658H3.99967V5.33325H2.66634Z" fill="white"/>
</g>
<defs>
<clipPath id="clip0_332_5388">
<rect width="28" height="20" rx="3" fill="white"/>
</clipPath>
</defs>
</svg>
